<svg width="28" height="28" viewBox="0 0 28 28" fill="none" xmlns="http://www.w3.org/2000/svg">
<mask id="mask0_86_237" style="mask-type:alpha" maskUnits="userSpaceOnUse" x="0" y="0" width="28" height="28">
<rect width="28" height="28" fill="#D9D9D9"/>
</mask>
<g mask="url(#mask0_86_237)">
<path d="M14 25.0834C13.5783 25.0834 13.1764 25.0046 12.7945 24.8469C12.4125 24.6892 12.0739 24.4614 11.779 24.1635C11.1925 23.5846 10.6896 23.2059 10.2702 23.0272C9.85056 22.8485 9.22124 22.7591 8.38221 22.7591C7.50955 22.7591 6.76784 22.4537 6.15709 21.843C5.54634 21.2323 5.24096 20.4905 5.24096 19.6179C5.24096 18.7864 5.15132 18.1588 4.97205 17.7349C4.79277 17.311 4.41428 16.8064 3.83659 16.2211C3.53598 15.9205 3.30751 15.5796 3.15117 15.1982C2.99484 14.8169 2.91667 14.4183 2.91667 14.0024C2.91667 13.5865 2.99484 13.1871 3.15117 12.8042C3.30751 12.4214 3.53598 12.0796 3.83659 11.779C4.41428 11.1978 4.79277 10.6969 4.97205 10.2761C5.15132 9.85511 5.24096 9.22385 5.24096 8.38229C5.24096 7.50962 5.54634 6.76791 6.15709 6.15716C6.76784 5.54641 7.50955 5.24104 8.38221 5.24104C9.21366 5.24104 9.84132 5.1514 10.2652 4.97212C10.6891 4.79284 11.1937 4.41436 11.779 3.83666C12.0745 3.53878 12.4135 3.31098 12.796 3.15329C13.1785 2.99559 13.5784 2.91675 13.9956 2.91675C14.4129 2.91675 14.813 2.99491 15.1958 3.15125C15.5787 3.30758 15.9204 3.53605 16.221 3.83666C16.8022 4.41436 17.3032 4.79284 17.724 4.97212C18.145 5.1514 18.7762 5.24104 19.6178 5.24104C20.4905 5.24104 21.2322 5.54641 21.8429 6.15716C22.4537 6.76791 22.759 7.50962 22.759 8.38229C22.759 9.21373 22.8487 9.8414 23.028 10.2653C23.2072 10.6892 23.5857 11.1938 24.1634 11.779C24.464 12.0796 24.6925 12.4206 24.8488 12.8019C25.0052 13.1832 25.0833 13.5818 25.0833 13.9977C25.0833 14.4137 25.0052 14.8131 24.8488 15.1959C24.6925 15.5788 24.464 15.9205 24.1634 16.2211C23.5846 16.8076 23.2058 17.3105 23.0271 17.7299C22.8484 18.1495 22.759 18.7788 22.759 19.6179C22.759 20.4905 22.4537 21.2323 21.8429 21.843C21.2322 22.4537 20.4905 22.7591 19.6178 22.7591C18.7864 22.7591 18.1587 22.8488 17.7348 23.028C17.3109 23.2073 16.8063 23.5858 16.221 24.1635C15.9261 24.4614 15.5875 24.6892 15.2055 24.8469C14.8236 25.0046 14.4218 25.0834 14 25.0834ZM14.0015 23.3334C14.186 23.3334 14.3661 23.2957 14.5419 23.2202C14.7177 23.1446 14.8654 23.047 14.985 22.9274C15.7223 22.1825 16.4191 21.6766 17.0753 21.4096C17.7314 21.1426 18.5789 21.0091 19.6178 21.0091C20.0119 21.0091 20.3424 20.8758 20.6092 20.6092C20.8758 20.3425 21.009 20.012 21.009 19.6179C21.009 18.5725 21.1425 17.7252 21.4095 17.076C21.6765 16.4269 22.1786 15.73 22.916 14.985C23.1942 14.7068 23.3333 14.3785 23.3333 14.0001C23.3333 13.6217 23.198 13.2971 22.9273 13.0262C22.1824 12.2815 21.6765 11.581 21.4095 10.9247C21.1425 10.2687 21.009 9.42121 21.009 8.38229C21.009 7.98815 20.8758 7.65769 20.6092 7.39092C20.3424 7.12433 20.0119 6.99104 19.6178 6.99104C18.5616 6.99104 17.7102 6.8594 17.0637 6.59612C16.4171 6.33265 15.7205 5.82865 14.9739 5.08412C14.8541 4.96435 14.7063 4.86489 14.5305 4.78575C14.3548 4.70642 14.1779 4.66675 14 4.66675C13.8221 4.66675 13.6434 4.70729 13.4639 4.78837C13.2843 4.86965 13.1346 4.96823 13.015 5.08412C12.2777 5.82146 11.5809 6.32361 10.9247 6.59058C10.2686 6.85755 9.42113 6.99104 8.38221 6.99104C7.98807 6.99104 7.65762 7.12433 7.39084 7.39092C7.12425 7.65769 6.99096 7.98815 6.99096 8.38229C6.99096 9.43521 6.85748 10.2862 6.59051 10.9352C6.32353 11.5845 5.81759 12.2815 5.07267 13.0262C4.802 13.2971 4.66667 13.6217 4.66667 14.0001C4.66667 14.3785 4.802 14.7068 5.07267 14.985C5.81759 15.73 6.32353 16.4281 6.59051 17.0795C6.85748 17.7309 6.99096 18.577 6.99096 19.6179C6.99096 20.012 7.12425 20.3425 7.39084 20.6092C7.65762 20.8758 7.98807 21.0091 8.38221 21.0091C9.43591 21.0091 10.2852 21.1426 10.9302 21.4096C11.5752 21.6766 12.2738 22.1825 13.0261 22.9274C13.1459 23.047 13.2922 23.1446 13.4651 23.2202C13.6381 23.2957 13.8169 23.3334 14.0015 23.3334ZM16.8403 18.2742C17.2428 18.2742 17.5824 18.1358 17.859 17.8591C18.1357 17.5824 18.2741 17.2428 18.2741 16.8403C18.2741 16.4376 18.1357 16.0954 17.859 15.8137C17.5824 15.5319 17.2428 15.391 16.8403 15.391C16.4376 15.391 16.0953 15.5319 15.8136 15.8137C15.5318 16.0954 15.391 16.4376 15.391 16.8403C15.391 17.2428 15.5318 17.5824 15.8136 17.8591C16.0953 18.1358 16.4376 18.2742 16.8403 18.2742ZM11.1035 18.1149L18.1148 11.1149L16.8852 9.88525L9.88517 16.8966L11.1035 18.1149ZM11.1598 12.6091C11.5624 12.6091 11.9047 12.4682 12.1864 12.1865C12.4682 11.9047 12.609 11.5625 12.609 11.1598C12.609 10.7573 12.4682 10.4177 12.1864 10.141C11.9047 9.86435 11.5624 9.726 11.1598 9.726C10.7573 9.726 10.4177 9.86435 10.141 10.141C9.86427 10.4177 9.72592 10.7573 9.72592 11.1598C9.72592 11.5625 9.86427 11.9047 10.141 12.1865C10.4177 12.4682 10.7573 12.6091 11.1598 12.6091Z" fill="white" fill-opacity="0.6"/>
</g>
</svg>
