<svg width="28" height="28" viewBox="0 0 28 28" fill="none" xmlns="http://www.w3.org/2000/svg">
<mask id="mask0_86_254" style="mask-type:alpha" maskUnits="userSpaceOnUse" x="0" y="0" width="28" height="28">
<rect width="28" height="28" fill="#D9D9D9"/>
</mask>
<g mask="url(#mask0_86_254)">
<path d="M8.97427 23.9166V22.1666H13.125V18.1684C12.1349 17.9695 11.2599 17.553 10.5 16.9189C9.74009 16.2846 9.20012 15.4941 8.88006 14.5474C7.53392 14.3873 6.39798 13.816 5.47223 12.8333C4.54629 11.8505 4.08331 10.6839 4.08331 9.33325V8.16659C4.08331 7.68942 4.25569 7.27846 4.60044 6.93371C4.94519 6.58896 5.35615 6.41659 5.83331 6.41659H8.54815V4.08325H19.4518V6.41659H22.1666C22.6438 6.41659 23.0548 6.58896 23.3995 6.93371C23.7443 7.27846 23.9166 7.68942 23.9166 8.16659V9.33325C23.9166 10.6839 23.4537 11.8505 22.5277 12.8333C21.602 13.816 20.466 14.3873 19.1199 14.5474C18.7998 15.4941 18.2599 16.2846 17.5 16.9189C16.7401 17.553 15.8651 17.9695 14.875 18.1684V22.1666H19.0257V23.9166H8.97427ZM8.54815 12.6673V8.16659H5.83331V9.33325C5.83331 10.147 6.08833 10.8616 6.59835 11.477C7.10838 12.0924 7.75831 12.4892 8.54815 12.6673ZM14 16.4905C15.0245 16.4905 15.8939 16.1333 16.6081 15.4189C17.3223 14.7047 17.6794 13.8353 17.6794 12.8108V5.83325H10.3206V12.8108C10.3206 13.8353 10.6777 14.7047 11.3919 15.4189C12.1061 16.1333 12.9755 16.4905 14 16.4905ZM19.4518 12.6673C20.2416 12.4892 20.8916 12.0924 21.4016 11.477C21.9116 10.8616 22.1666 10.147 22.1666 9.33325V8.16659H19.4518V12.6673Z" fill="white" fill-opacity="0.6"/>
</g>
</svg>
