<svg width="28" height="28" viewBox="0 0 28 28" fill="none" xmlns="http://www.w3.org/2000/svg">
<mask id="mask0_86_244" style="mask-type:alpha" maskUnits="userSpaceOnUse" x="0" y="0" width="28" height="28">
<rect width="28" height="28" fill="#D9D9D9"/>
</mask>
<g mask="url(#mask0_86_244)">
<path d="M13.1743 21.9425H14.7674V20.529C15.6723 20.4063 16.4916 20.0664 17.2253 19.5091C17.9589 18.952 18.3257 18.1073 18.3257 16.9751C18.3257 16.1584 18.0849 15.436 17.6033 14.8077C17.1216 14.1797 16.1808 13.6128 14.7808 13.1073C13.5543 12.6885 12.7398 12.3257 12.3375 12.0191C11.9352 11.7124 11.7341 11.2839 11.7341 10.7334C11.7341 10.1829 11.9401 9.73572 12.3521 9.39175C12.7641 9.04778 13.3329 8.87579 14.0584 8.87579C14.6656 8.87579 15.1554 9.019 15.5278 9.30541C15.9003 9.59183 16.1868 9.95116 16.3873 10.3834L17.8276 9.80446C17.5837 9.18379 17.1863 8.65247 16.6352 8.2105C16.084 7.76853 15.4808 7.52207 14.8257 7.47112V6.05771H13.2326V7.47112C12.2381 7.66265 11.4742 8.06612 10.941 8.68154C10.4077 9.29715 10.141 9.98111 10.141 10.7334C10.141 11.61 10.4065 12.3152 10.9375 12.8492C11.4685 13.3831 12.3338 13.8654 13.5334 14.2961C14.7733 14.7509 15.6203 15.159 16.0744 15.5202C16.5282 15.8813 16.7551 16.3663 16.7551 16.9751C16.7551 17.7066 16.4911 18.2379 15.9632 18.569C15.4351 18.9004 14.839 19.066 14.175 19.066C13.5184 19.066 12.931 18.8687 12.4128 18.474C11.8944 18.079 11.4961 17.5016 11.2178 16.7417L9.74169 17.3432C10.0439 18.209 10.478 18.897 11.044 19.407C11.6102 19.917 12.3203 20.2716 13.1743 20.4707V21.9425ZM14 25.0834C12.4684 25.0834 11.0284 24.7921 9.68015 24.2096C8.33167 23.627 7.15859 22.8369 6.1609 21.8392C5.1632 20.8415 4.37308 19.6684 3.79052 18.32C3.20796 16.9717 2.91669 15.5317 2.91669 14.0001C2.91669 12.4684 3.20796 11.0285 3.79052 9.68021C4.37308 8.33173 5.1632 7.15865 6.1609 6.16096C7.15859 5.16326 8.33167 4.37314 9.68015 3.79058C11.0284 3.20803 12.4684 2.91675 14 2.91675C15.5317 2.91675 16.9716 3.20803 18.3199 3.79058C19.6684 4.37314 20.8415 5.16326 21.8391 6.16096C22.8368 7.15865 23.627 8.33173 24.2095 9.68021C24.7921 11.0285 25.0834 12.4684 25.0834 14.0001C25.0834 15.5317 24.7921 16.9717 24.2095 18.32C23.627 19.6684 22.8368 20.8415 21.8391 21.8392C20.8415 22.8369 19.6684 23.627 18.3199 24.2096C16.9716 24.7921 15.5317 25.0834 14 25.0834ZM14 23.3334C16.6056 23.3334 18.8125 22.4292 20.6209 20.6209C22.4292 18.8126 23.3334 16.6056 23.3334 14.0001C23.3334 11.3945 22.4292 9.18758 20.6209 7.37925C18.8125 5.57091 16.6056 4.66675 14 4.66675C11.3945 4.66675 9.18752 5.57091 7.37919 7.37925C5.57085 9.18758 4.66669 11.3945 4.66669 14.0001C4.66669 16.6056 5.57085 18.8126 7.37919 20.6209C9.18752 22.4292 11.3945 23.3334 14 23.3334Z" fill="white" fill-opacity="0.6"/>
</g>
</svg>
