<svg width="510" height="531" viewBox="0 0 510 531" fill="none" xmlns="http://www.w3.org/2000/svg">
<path d="M26.7435 168.582H78.2508C86.8356 168.582 93.4255 170.708 98.0223 174.96C102.617 179.211 104.917 184.476 104.917 190.753C104.917 196.017 103.276 200.533 99.9969 204.298C97.8108 206.809 94.6114 208.793 90.4006 210.251C96.7975 211.79 101.506 214.432 104.523 218.177C107.539 221.924 109.048 226.63 109.048 232.3C109.048 236.917 107.975 241.067 105.828 244.752C103.681 248.438 100.745 251.353 97.0202 253.498C94.7116 254.835 91.2283 255.807 86.5721 256.414C80.3757 257.225 76.267 257.629 74.2423 257.629H26.7435V168.583V168.582ZM54.5023 203.507H66.4684C70.7608 203.507 73.7468 202.769 75.4282 201.29C77.1076 199.813 77.9483 197.677 77.9483 194.882C77.9483 192.291 77.1076 190.265 75.4282 188.808C73.7468 187.349 70.8221 186.622 66.6503 186.622H54.5023V203.507ZM54.5023 238.494H68.5339C73.2717 238.494 76.6121 237.654 78.557 235.974C80.5 234.295 81.4724 232.036 81.4724 229.203C81.4724 226.571 80.5093 224.455 78.5867 222.856C76.6622 221.256 73.2921 220.456 68.4727 220.456H54.5023V238.496V238.494Z" fill="white"/>
<path d="M118.529 168.581H146.045V235.699H188.988V257.627H118.529V168.581Z" fill="white"/>
<path d="M261.158 242.927H229.92L225.579 257.627H197.484L230.951 168.581H260.965L294.425 257.627H265.612L261.156 242.927H261.158ZM255.452 223.674L245.623 191.663L235.897 223.674H255.452Z" fill="white"/>
<path d="M360.209 221.183L384.323 228.473C382.703 235.235 380.151 240.884 376.67 245.42C373.186 249.955 368.864 253.377 363.702 255.684C358.539 257.993 351.967 259.147 343.991 259.147C334.313 259.147 326.408 257.74 320.272 254.929C314.137 252.117 308.843 247.17 304.389 240.088C299.933 233.007 297.708 223.941 297.708 212.894C297.708 198.164 301.626 186.844 309.461 178.933C317.296 171.021 328.382 167.065 342.716 167.065C353.933 167.065 362.75 169.333 369.169 173.868C375.586 178.404 380.353 185.369 383.473 194.763L359.177 200.168C358.327 197.455 357.436 195.471 356.505 194.215C354.965 192.111 353.083 190.49 350.856 189.357C348.629 188.223 346.138 187.657 343.384 187.657C337.147 187.657 332.37 190.166 329.05 195.18C326.539 198.901 325.285 204.747 325.285 212.712C325.285 222.581 326.783 229.347 329.78 233.006C332.777 236.668 336.988 238.498 342.414 238.498C347.84 238.498 351.656 237.021 354.348 234.064C357.041 231.108 358.995 226.816 360.211 221.187L360.209 221.183Z" fill="white"/>
<path d="M397.809 168.581H425.325V202.232L454.147 168.581H490.743L458.249 202.191L492.2 257.627H458.315L439.54 221.007L425.325 235.898V257.627H397.809V168.581Z" fill="white"/>
<path d="M326.085 163.427C325.55 160.367 325.283 156.756 325.283 152.588C325.283 144.621 326.537 138.777 329.048 135.056C332.368 130.042 337.147 127.533 343.382 127.533C346.136 127.533 348.627 128.101 350.854 129.233C353.081 130.366 354.962 131.987 356.503 134.091C357.434 135.347 358.325 137.331 359.175 140.044L383.471 134.638C380.351 125.245 375.584 118.28 369.167 113.744C362.747 109.209 353.931 106.941 342.714 106.941C328.38 106.941 317.294 110.897 309.459 118.809C301.624 126.72 297.706 138.04 297.706 152.769C297.706 156.555 297.968 160.107 298.491 163.425H326.085V163.427Z" fill="white"/>
<path d="M437.113 163.427L439.538 160.887L440.841 163.427H471.326L458.245 142.071L490.739 108.461H454.145L425.321 142.112V108.461H397.807V163.427H437.113Z" fill="white"/>
<path d="M359.63 163.427H368.035L360.21 161.061C360.033 161.879 359.838 162.664 359.63 163.427Z" fill="white"/>
<path d="M235.931 163.427L245.618 131.543L255.409 163.427H281.618L260.963 108.461H230.95L210.289 163.427H235.931Z" fill="white"/>
<path d="M54.5005 163.427V160.334H68.4708C73.2884 160.334 76.6604 161.134 78.5848 162.733C78.8502 162.954 79.097 163.188 79.3271 163.429H107.578C106.837 161.46 105.82 159.669 104.523 158.057C101.506 154.312 96.7994 151.669 90.4006 150.131C94.6114 148.672 97.8107 146.69 99.9969 144.177C103.276 140.412 104.917 135.897 104.917 130.632C104.917 124.356 102.617 119.091 98.0223 114.839C93.4255 110.588 86.8356 108.461 78.2508 108.461H26.7435V163.427H54.5023H54.5005ZM54.5005 126.501H66.6484C70.8184 126.501 73.745 127.23 75.4263 128.687C77.1058 130.146 77.9465 132.17 77.9465 134.761C77.9465 137.556 77.1058 139.692 75.4263 141.169C73.745 142.648 70.759 143.387 66.4666 143.387H54.5005V126.501Z" fill="white"/>
<path d="M146.043 108.461H118.527V163.427H146.043V108.461Z" fill="white"/>
<path d="M462.298 103.083L458.247 96.469L490.741 62.8589H454.147L425.323 96.5098V62.8589H397.809V103.083H462.298Z" fill="white"/>
<path d="M325.396 103.083C325.752 97.0831 326.97 92.5383 329.05 89.454C332.37 84.4397 337.149 81.9306 343.384 81.9306C346.138 81.9306 348.628 82.4985 350.855 83.6305C353.082 84.7644 354.964 86.3845 356.504 88.489C357.436 89.7453 358.327 91.7292 359.177 94.4423L383.473 89.0364C380.353 79.6425 375.586 72.6777 369.168 68.1422C362.749 63.6066 353.932 61.3389 342.716 61.3389C328.382 61.3389 317.295 65.2954 309.46 73.2066C302.366 80.3699 298.483 90.3281 297.812 103.083H325.394H325.396Z" fill="white"/>
<path d="M93.8913 103.083C96.4245 101.84 98.4603 100.338 99.9969 98.5753C103.276 94.8099 104.917 90.2948 104.917 85.0299C104.917 78.7537 102.617 73.4888 98.0223 69.2372C93.4256 64.9856 86.8357 62.8589 78.2508 62.8589H26.7435V103.083H93.8913ZM54.5023 80.899H66.6503C70.8203 80.899 73.7468 81.6283 75.4282 83.0851C77.1076 84.5437 77.9483 86.5684 77.9483 89.159C77.9483 91.9539 77.1076 94.0899 75.4282 95.5671C73.7468 97.0461 70.7609 97.7847 66.4684 97.7847H54.5023V80.899Z" fill="white"/>
<path d="M240.417 103.083L245.624 85.9411L250.889 103.083H276.085L260.969 62.8589H230.956L215.837 103.083H240.417Z" fill="white"/>
<path d="M146.045 62.8589H118.529V103.083H146.045V62.8589Z" fill="white"/>
<path d="M472.086 58.123L490.744 38.8247H454.15L437.619 58.123H472.086Z" fill="white"/>
<path d="M340.287 58.1229C341.276 57.9725 342.308 57.8965 343.384 57.8965C344.384 57.8965 345.351 57.9725 346.283 58.1229H380.682C377.742 52.1287 373.906 47.4558 369.168 44.108C362.749 39.5725 353.932 37.3047 342.716 37.3047C328.382 37.3047 317.296 41.2612 309.46 49.1724C306.873 51.7835 304.717 54.7676 302.986 58.1229H340.287Z" fill="white"/>
<path d="M425.326 38.8247H397.81V58.123H425.326V38.8247Z" fill="white"/>
<path d="M268.217 58.123L260.967 38.8247H230.953L223.699 58.123H268.217Z" fill="white"/>
<path d="M54.5032 58.123V56.8648H66.6511C69.8134 56.8648 72.2593 57.2842 73.9907 58.123H104.75C104.144 53.0957 101.902 48.7884 98.025 45.203C93.4282 40.9514 86.8383 38.8247 78.2535 38.8247H26.7462V58.123H54.505H54.5032Z" fill="white"/>
<path d="M146.045 38.8247H118.53V58.123H146.045V38.8247Z" fill="white"/>
<path d="M53.7479 353.565H25.8276V267.731H91.8416V287.631H53.7479V300.44H86.2854V319.252H53.7479V353.565ZM27.6834 351.709H51.8921V317.396H84.4296V302.295H51.8921V285.775H89.9858V269.587H27.6834V351.709Z" fill="white"/>
<path d="M189.359 353.565H157.961L143.828 327.415C142.143 324.227 140.654 322.158 139.404 321.252C137.713 320.079 135.751 319.48 133.588 319.48H132.224V353.563H104.303V267.729H148.48C156.56 267.729 162.842 268.438 167.155 269.838C171.57 271.268 175.179 273.959 177.883 277.836C180.578 281.702 181.946 286.458 181.946 291.972C181.946 296.776 180.899 300.991 178.837 304.5C176.781 307.998 173.916 310.873 170.321 313.044C168.627 314.067 166.455 314.965 163.844 315.726C165.628 316.449 167.01 317.173 168.029 317.919C169.055 318.66 170.471 320.159 172.355 322.503C174.227 324.832 175.45 326.593 176.096 327.887L189.356 353.563L189.359 353.565ZM159.068 351.709H186.312L174.445 328.729C173.862 327.562 172.674 325.862 170.911 323.668C169.159 321.488 167.823 320.061 166.942 319.424C165.607 318.45 163.421 317.453 160.435 316.455L157.293 315.405L160.524 314.67C164.271 313.818 167.244 312.736 169.365 311.457C172.693 309.447 175.343 306.792 177.241 303.561C179.134 300.341 180.094 296.442 180.094 291.973C180.094 286.846 178.839 282.448 176.365 278.899C173.899 275.362 170.609 272.909 166.587 271.604C162.46 270.266 156.371 269.587 148.486 269.587H106.165V351.709H130.373V317.626H133.593C136.141 317.626 138.459 318.337 140.48 319.74C142 320.838 143.627 323.06 145.468 326.541L159.071 351.709H159.068ZM142.237 303.613H130.368V284.686H142.696C147.703 284.686 151.065 285.469 152.975 287.082C154.905 288.713 155.883 291.051 155.883 294.035C155.883 296.069 155.269 297.899 154.057 299.471C152.836 301.056 151.238 302.058 149.304 302.447C145.812 303.232 143.499 303.613 142.237 303.613ZM132.224 301.757H142.237C143.347 301.757 145.591 301.379 148.907 300.634L148.928 300.631C150.434 300.328 151.63 299.58 152.585 298.339C153.554 297.081 154.025 295.674 154.025 294.035C154.025 291.589 153.29 289.778 151.776 288.499C150.238 287.2 147.181 286.542 142.694 286.542H132.222V301.757H132.224Z" fill="white"/>
<path d="M224.11 353.565H196.247V267.731H224.11V353.565ZM198.103 351.709H222.254V269.587H198.103V351.709Z" fill="white"/>
<path d="M280.693 353.565H241.213V267.731H280.693C288.387 267.731 294.71 268.799 299.485 270.903C304.28 273.019 308.301 276.097 311.438 280.056C314.559 283.996 316.851 288.639 318.252 293.853C319.642 299.026 320.345 304.58 320.345 310.363C320.345 319.417 319.291 326.562 317.211 331.596C315.127 336.644 312.187 340.937 308.476 344.355C304.751 347.784 300.689 350.102 296.4 351.244C290.66 352.784 285.375 353.565 280.695 353.565H280.693ZM243.069 351.709H280.693C285.21 351.709 290.334 350.949 295.92 349.449C299.917 348.386 303.718 346.213 307.218 342.989C310.729 339.754 313.514 335.683 315.494 330.887C317.482 326.077 318.488 319.172 318.488 310.363C318.488 304.741 317.805 299.35 316.458 294.334C315.123 289.366 312.945 284.949 309.981 281.208C307.034 277.489 303.25 274.594 298.735 272.601C294.197 270.601 288.127 269.587 280.693 269.587H243.069V351.709ZM274.45 334.49H267.164V286.75H274.565C281.532 286.75 286.622 288.513 289.695 291.988C292.782 295.483 294.281 301.661 294.281 310.877C294.281 317.789 293.618 322.677 292.256 325.823C290.877 329.006 288.925 331.279 286.451 332.578C284.002 333.864 280.075 334.49 274.448 334.49H274.45ZM269.018 332.634H274.448C279.695 332.634 283.441 332.062 285.589 330.936C287.676 329.839 289.346 327.872 290.553 325.086C291.794 322.219 292.423 317.439 292.423 310.877C292.423 302.255 291.037 296.312 288.302 293.217C285.596 290.157 280.973 288.605 274.561 288.605H269.016V332.634H269.018Z" fill="white"/>
<path d="M412.354 353.565H383.151L378.95 339.702H350.87L346.778 353.565H318.249L350.51 267.731H380.1L412.354 353.565ZM384.528 351.709H409.674L378.816 269.587H351.796L320.93 351.709H345.393L349.485 337.847H380.328L384.53 351.709H384.528ZM375.511 321.544H354.561L364.981 287.251L375.511 321.544ZM357.066 319.688H373L364.99 293.603L357.064 319.688H357.066Z" fill="white"/>
<path d="M460.461 353.565H432.598V317.747L399.079 267.731H430.169L446.563 295.18L462.99 267.731H493.923L460.461 317.747V353.565ZM434.454 351.709H458.605V317.183L458.761 316.949L490.447 269.587H464.041L446.559 298.797L429.115 269.587H402.557L434.454 317.183V351.709Z" fill="white"/>
<path d="M292.426 376.386C292.426 382.948 291.797 387.728 290.556 390.595C289.349 393.379 287.679 395.348 285.591 396.445C283.444 397.571 279.698 398.143 274.451 398.143H269.021V359.114H267.165V399.999H274.451C280.078 399.999 284.005 399.373 286.454 398.087C288.928 396.788 290.88 394.517 292.259 391.332C293.621 388.186 294.284 383.298 294.284 376.386C294.284 368.45 293.17 362.77 290.892 359.114H288.628C291.15 362.304 292.428 368.109 292.428 376.386H292.426Z" fill="white"/>
<path d="M154.029 359.544C154.029 361.181 153.558 362.59 152.589 363.848C151.634 365.088 150.438 365.837 148.932 366.14L148.911 366.143C145.595 366.89 143.349 367.266 142.241 367.266H132.228V359.114H130.372V369.122H142.241C143.503 369.122 145.816 368.742 149.308 367.957C151.24 367.567 152.84 366.565 154.061 364.98C155.273 363.408 155.887 361.578 155.887 359.544C155.887 359.398 155.883 359.255 155.878 359.114H154.022C154.027 359.255 154.029 359.4 154.029 359.544Z" fill="white"/>
<path d="M373 385.197H357.066L364.991 359.114H363.051L354.563 387.053H375.511L366.934 359.114H364.992L373 385.197Z" fill="white"/>
<path d="M449.667 359.114H447.505L446.563 360.689L445.62 359.114H443.46L446.561 364.306L449.667 359.114Z" fill="white"/>
<path d="M53.7479 359.114H51.8921V367.804H84.4296V382.905H51.8921V417.218H27.6834V359.114H25.8276V419.074H53.7479V384.761H86.2854V365.949H53.7479V359.114Z" fill="white"/>
<path d="M474.38 359.114L458.763 382.458L458.606 382.692V417.218H434.454V382.692L418.654 359.114H416.42L432.599 383.256V419.074H460.461V383.256L476.612 359.114H474.38Z" fill="white"/>
<path d="M172.357 388.014C170.473 385.672 169.057 384.171 168.031 383.43C167.012 382.686 165.63 381.96 163.846 381.237C166.457 380.476 168.629 379.577 170.323 378.555C173.917 376.384 176.783 373.509 178.839 370.011C180.665 366.904 181.691 363.245 181.905 359.114H180.047C179.839 362.905 178.898 366.249 177.239 369.07C175.341 372.299 172.691 374.957 169.363 376.966C167.244 378.245 164.269 379.327 160.522 380.179L157.292 380.914L160.433 381.964C163.419 382.961 165.605 383.959 166.94 384.933C167.821 385.57 169.157 386.997 170.909 389.177C172.672 391.371 173.86 393.071 174.443 394.238L186.31 417.218H159.066L145.463 392.05C143.622 388.567 141.994 386.346 140.474 385.249C138.452 383.846 136.136 383.135 133.588 383.135H130.368V417.218H106.159V359.114H104.303V419.074H132.224V384.991H133.588C135.75 384.991 137.711 385.59 139.404 386.763C140.656 387.667 142.143 389.738 143.828 392.926L157.961 419.076H189.359L176.1 393.399C175.454 392.106 174.229 390.345 172.359 388.016L172.357 388.014Z" fill="white"/>
<path d="M387.841 359.114L409.674 417.218H384.528L380.327 403.356H349.485L345.391 417.218H320.929L342.767 359.114H340.785L318.249 419.074H346.78L350.872 405.211H378.951L383.153 419.074H412.354L389.823 359.114H387.841Z" fill="white"/>
<path d="M222.254 359.114V417.218H198.103V359.114H196.247V419.074H224.11V359.114H222.254Z" fill="white"/>
<path d="M318.252 359.361C318.23 359.277 318.206 359.195 318.182 359.114H316.253C316.324 359.355 316.393 359.598 316.458 359.843C317.805 364.857 318.488 370.25 318.488 375.872C318.488 384.681 317.48 391.586 315.494 396.396C313.512 401.194 310.729 405.265 307.218 408.498C303.718 411.722 299.917 413.895 295.92 414.958C290.334 416.457 285.212 417.218 280.693 417.218H243.069V359.114H241.213V419.074H280.693C285.373 419.074 290.659 418.293 296.398 416.753C300.687 415.611 304.751 413.293 308.474 409.864C312.186 406.446 315.125 402.153 317.209 397.105C319.29 392.069 320.344 384.926 320.344 375.872C320.344 370.089 319.638 364.535 318.25 359.362L318.252 359.361Z" fill="white"/>
<path d="M172.359 441.831C170.476 439.489 169.06 437.988 168.033 437.248C167.014 436.503 165.632 435.778 163.849 435.054C166.46 434.293 168.631 433.395 170.325 432.372C173.92 430.201 176.785 427.327 178.841 423.828C178.867 423.784 178.891 423.739 178.917 423.695H176.742C174.889 426.562 172.413 428.945 169.368 430.784C167.248 432.063 164.273 433.144 160.527 433.996L157.296 434.731L160.438 435.782C163.424 436.778 165.61 437.777 166.944 438.751C167.825 439.387 169.162 440.814 170.913 442.995C172.676 445.189 173.864 446.888 174.447 448.056L186.315 471.036H159.07L145.467 445.868C143.626 442.384 141.999 440.163 140.479 439.066C138.456 437.663 136.14 436.953 133.592 436.953H130.372V471.036H106.163V423.695H104.308V472.892H132.228V438.808H133.592C135.754 438.808 137.715 439.408 139.408 440.581C140.66 441.484 142.147 443.555 143.832 446.744L157.966 472.894H189.364L176.104 447.217C175.458 445.923 174.233 444.162 172.363 441.833L172.359 441.831Z" fill="white"/>
<path d="M292.426 430.203C292.426 436.765 291.797 441.546 290.556 444.413C289.349 447.196 287.679 449.165 285.591 450.262C283.444 451.389 279.698 451.96 274.451 451.96H269.021V423.695H267.165V453.816H274.451C280.078 453.816 284.005 453.191 286.454 451.905C288.928 450.606 290.88 448.334 292.259 445.15C293.621 442.004 294.284 437.116 294.284 430.203C294.284 427.835 294.184 425.668 293.985 423.695H292.115C292.324 425.66 292.43 427.83 292.43 430.203H292.426Z" fill="white"/>
<path d="M84.4296 423.695V436.722H51.8921V471.036H27.6834V423.695H25.8276V472.892H53.7479V438.578H86.2854V423.695H84.4296Z" fill="white"/>
<path d="M373 439.014H357.066L361.721 423.695H359.781L354.563 440.87H375.511L370.239 423.695H368.298L373 439.014Z" fill="white"/>
<path d="M391.884 423.695L409.674 471.036H384.528L380.327 457.173H349.485L345.391 471.036H320.929L338.722 423.695H336.74L318.249 472.892H346.78L350.872 459.029H378.951L383.153 472.892H412.354L393.868 423.695H391.884Z" fill="white"/>
<path d="M467.179 423.695L458.763 436.275L458.606 436.509V471.036H434.455V436.509L425.868 423.695H423.633L432.599 437.073V472.892H460.461V437.073L469.412 423.695H467.179Z" fill="white"/>
<path d="M320.084 423.695H318.221C318.399 425.658 318.488 427.659 318.488 429.687C318.488 438.496 317.48 445.402 315.494 450.212C313.512 455.009 310.729 459.081 307.218 462.314C303.718 465.537 299.917 467.71 295.92 468.774C290.334 470.273 285.212 471.034 280.693 471.034H243.069V423.693H241.213V472.89H280.693C285.373 472.89 290.659 472.108 296.398 470.568C300.687 469.427 304.751 467.109 308.474 463.679C312.186 460.261 315.125 455.969 317.209 450.921C319.29 445.884 320.344 438.741 320.344 429.687C320.344 427.659 320.255 425.66 320.082 423.695H320.084Z" fill="white"/>
<path d="M222.254 423.695V471.036H198.103V423.695H196.247V472.892H224.11V423.695H222.254Z" fill="white"/>
<path d="M130.37 478.255V499.059H106.163V478.255H104.308V500.915H132.226V478.255H130.37Z" fill="white"/>
<path d="M175.569 478.255L186.312 499.059H159.067L147.823 478.255H145.713L157.961 500.915H189.359L177.658 478.255H175.569Z" fill="white"/>
<path d="M286.454 479.927C287.299 479.484 288.082 478.923 288.804 478.255H285.645C285.627 478.265 285.61 478.276 285.591 478.285C283.444 479.412 279.698 479.983 274.451 479.983H269.021V478.255H267.165V481.839H274.451C280.078 481.839 284.005 481.213 286.454 479.927Z" fill="white"/>
<path d="M51.8921 478.255V499.059H27.6834V478.255H25.8276V500.915H53.7479V478.255H51.8921Z" fill="white"/>
<path d="M401.857 478.255L409.674 499.059H384.528L380.327 485.196H349.485L345.391 499.059H320.929L328.749 478.255H326.765L318.249 500.915H346.78L350.872 487.052H378.951L383.153 500.915H412.354L403.839 478.255H401.857Z" fill="white"/>
<path d="M458.608 478.255V499.059H434.457V478.255H432.602V500.915H460.464V478.255H458.608Z" fill="white"/>
<path d="M222.254 478.255V499.059H198.103V478.255H196.247V500.915H224.11V478.255H222.254Z" fill="white"/>
<path d="M315.487 478.255C313.507 483.043 310.725 487.109 307.218 490.338C303.718 493.562 299.917 495.735 295.92 496.798C290.334 498.298 285.212 499.059 280.693 499.059H243.069V478.255H241.213V500.915H280.693C285.373 500.915 290.659 500.133 296.398 498.593C300.687 497.452 304.751 495.134 308.474 491.704C312.186 488.286 315.125 483.993 317.209 478.946C317.302 478.721 317.393 478.489 317.482 478.255H315.487Z" fill="white"/>
<path d="M218.7 430.246L175.897 373.175C174.386 371.161 172.176 369.788 169.702 369.326L148.594 365.382C141.138 363.989 134.088 369.278 133.338 376.825L131.213 398.193C130.964 400.696 131.664 403.203 133.173 405.217L175.976 462.288C179.306 466.729 185.606 467.627 190.045 464.298L216.687 444.316C221.128 440.987 222.026 434.687 218.697 430.248L218.7 430.246ZM140.707 380.008C138.868 377.555 139.365 374.077 141.817 372.236C144.268 370.395 147.748 370.894 149.589 373.346C151.43 375.797 150.931 379.277 148.479 381.118C146.026 382.957 142.548 382.459 140.707 380.008Z" fill="url(#paint0_linear_12_874)"/>
<g style="mix-blend-mode:multiply">
<path d="M150.642 377.466C151.075 374.431 148.967 371.619 145.932 371.186C142.897 370.752 140.086 372.861 139.652 375.896C139.219 378.93 141.327 381.742 144.362 382.176C147.397 382.609 150.208 380.5 150.642 377.466Z" stroke="white" stroke-width="2.96925" stroke-miterlimit="10"/>
</g>
<path d="M146.648 371.334C146.713 373.747 146.128 375.541 144.844 376.215C144.473 376.41 144.057 376.502 143.608 376.502C142.519 376.502 141.225 375.953 139.863 374.97C138.468 373.962 137 372.498 135.601 370.696C134.459 369.228 133.364 367.535 132.394 365.685C130.495 362.066 129.302 358.36 129.035 355.248C128.983 354.651 128.968 354.088 128.99 353.565C129.016 352.875 129.105 352.253 129.252 351.709C129.484 350.846 129.861 350.18 130.371 349.75V348.848C129.441 349.373 128.801 350.353 128.48 351.709C128.346 352.266 128.268 352.886 128.244 353.565C128.226 354.111 128.242 354.693 128.296 355.311C128.571 358.52 129.792 362.326 131.737 366.03C132.785 368.031 133.951 369.829 135.159 371.371C136.638 373.257 138.184 374.758 139.668 375.771C141.07 376.727 142.413 377.249 143.597 377.249C144.171 377.249 144.705 377.126 145.189 376.872C146.693 376.083 147.426 374.175 147.422 371.614C147.17 371.501 146.912 371.408 146.648 371.334ZM143.254 359.986C144.172 361.736 144.911 363.497 145.462 365.182C145.726 365.166 145.991 365.158 146.257 365.16C145.681 363.388 144.898 361.523 143.911 359.641C141.968 355.937 139.529 352.769 137.044 350.72C135.285 349.269 133.632 348.491 132.227 348.428V349.178C133.461 349.247 134.971 349.97 136.573 351.292C138.982 353.279 141.355 356.367 143.254 359.986Z" fill="white"/>
<path d="M161.93 402.032L161.428 402.244C161.054 402.573 160.739 402.811 160.486 402.957L160.156 403.018L159.918 403.226L159.672 403.251L159.313 403.452L158.867 403.423L158.194 403.746L157.977 403.631L157.664 403.753L157.285 403.627L156.766 403.776L156.409 403.631L156.131 403.837L155.619 403.56C155.196 403.6 154.828 403.515 154.515 403.305L154.418 403.238C153.938 403.302 153.553 403.168 153.262 402.837C153.049 402.769 152.861 402.641 152.696 402.454L152.355 402.371L152.101 402.212L151.638 402.121L151.413 401.821L151.061 401.595L150.89 401.095L150.139 400.109L150.351 399.349L150.43 398.438L150.871 398.242L151.32 397.273L151.734 397.177L152.157 396.614L152.576 396.438C152.752 396.232 152.883 396.091 152.97 396.015C153.243 395.775 153.508 395.669 153.764 395.7C153.921 395.587 154.241 395.472 154.724 395.354L154.818 395.462L154.932 395.286L155.291 395.085L155.615 394.801C155.846 394.802 155.989 394.791 156.045 394.767L156.29 394.437L156.376 394.361C156.667 394.285 156.92 394.152 157.136 393.962L158.16 393.865C158.16 393.865 158.187 393.867 158.241 393.87C158.308 393.888 158.369 393.899 158.423 393.902L158.49 393.805L158.566 393.891L159.218 393.893L159.733 393.478L160.402 393.847C160.709 393.935 161.039 393.875 161.391 393.667L161.638 393.947C161.864 394.03 162.033 394.136 162.147 394.265C162.261 394.395 162.34 394.543 162.383 394.708L162.57 394.965L163.28 395.337L163.265 395.886L163.322 396.256L163.474 396.429L163.586 396.904L163.738 397.077C163.729 397.416 163.681 397.841 163.594 398.351L163.524 398.489L163.571 398.716L163.386 399.682L162.731 400.984L162.516 401.174L161.93 402.032ZM160.16 401.062L160.249 400.946C160.261 400.757 160.319 400.604 160.421 400.489L160.586 400.459L160.825 399.904L161.274 399.586L161.306 399.405C161.285 399.091 161.312 398.889 161.386 398.799C161.329 398.619 161.416 398.428 161.647 398.225L161.555 398.077L161.759 397.438L161.739 397.111L161.514 396.506L161.405 396.295C161.329 396.209 161.307 396.126 161.34 396.046L160.485 396.032L159.634 396.282L158.998 396.038L158.703 396.182L158.405 396.061L157.768 396.467L157.411 396.322C157.159 396.442 156.946 396.577 156.773 396.729L156.146 396.668L156.176 396.833C156.003 396.985 155.795 397.053 155.552 397.037C155.384 397.108 155.19 397.177 154.968 397.244L154.795 397.396L154.652 397.407L154.412 397.656L153.62 397.931L153.55 398.069L152.945 398.6L152.567 398.779L152.284 399.067L152.174 399.508L152.331 399.905L152.383 400.051L152.621 400.148L153.071 400.747L153.363 400.644L153.439 400.73C153.515 400.816 153.538 400.886 153.507 400.938L153.743 401.076L153.83 401.305L154.271 401.415L154.374 401.402L154.587 401.558C154.834 401.52 155.201 401.618 155.689 401.853L155.835 401.801L156.516 401.968L157.071 401.902L157.547 402.095L157.674 402.022L158.006 401.921L158.287 401.675L158.731 401.744L158.958 401.698L159.182 401.692C159.304 401.482 159.401 401.346 159.473 401.283C159.603 401.169 159.778 401.092 159.998 401.052L160.16 401.062ZM179.916 406.693C179.628 406.946 179.188 407.026 178.597 406.934L178.553 406.666L178.055 406.491L178.518 405.319C178.708 405.101 178.838 404.885 178.906 404.672L178.727 404.6L178.599 404.062L178.507 403.913L178.087 403.784L177.818 403.217L177.621 403.123C177.363 403.12 177.177 403.053 177.063 402.924C177.013 402.866 176.976 402.809 176.952 402.754L176.736 402.943C176.379 403.002 175.94 403.068 175.42 403.143C175.263 403.256 174.952 403.439 174.488 403.694L174.187 403.614L173.874 403.736L173.585 403.799L173.248 404.286L172.631 404.369L172.231 404.567L171.983 404.632L171.699 404.92L170.656 405.3L170.327 405.666C170.257 405.702 169.98 405.793 169.495 405.938L169.39 405.992C169.574 406.086 169.717 406.177 169.82 406.265L169.912 406.413C169.952 406.429 170.031 406.475 170.148 406.551L170.205 406.616C170.205 406.616 170.405 406.873 170.807 407.388L170.907 407.415C171.087 407.562 171.19 407.65 171.216 407.679C171.342 407.823 171.445 408.013 171.525 408.249C171.72 408.384 171.874 408.516 171.988 408.645C172.09 408.761 172.156 408.88 172.189 409.005L172.36 409.199L172.542 409.537C172.983 410.068 173.002 410.51 172.599 410.864C172.483 410.966 172.328 411.064 172.131 411.16L170.997 410.435L170.59 409.798C170.408 409.677 170.123 409.455 169.737 409.131L169.75 408.929C169.56 408.916 169.39 408.824 169.238 408.651L169.029 408.414L168.217 408.056L168.103 407.62L168.008 407.512C167.763 407.524 167.543 407.462 167.348 407.327L167.237 407.463L166.859 407.642L166.606 408.094L165.798 408.307L164.991 409.13L164.594 409.288L164.348 409.618L163.683 409.82L163.481 410.112C163.479 410.139 163.45 410.178 163.392 410.229C163.378 410.241 163.194 410.352 162.841 410.56C162.503 410.755 162.189 410.979 161.901 411.232L161.707 411.403C161.705 411.43 161.681 411.592 161.635 411.887L161.135 412.059L160.836 412.589L160.396 412.785L159.546 413.952L158.437 415.042L158.309 415.767L157.663 415.99C157.512 416.428 157.343 416.73 157.156 416.894L157.091 416.951C157.063 416.976 157.033 417.015 157.002 417.067C156.945 417.118 156.909 417.15 156.894 417.162C156.347 417.643 155.781 417.579 155.196 416.971L155.39 416.495L155.313 416.103L155.664 415.718L156.494 414.224L156.731 414.015C156.94 413.73 157.066 413.568 157.109 413.53C157.181 413.467 157.238 413.43 157.279 413.419L157.589 413.031L158.013 412.774L158.194 412.5L158.669 412.083L159.84 410.671L159.921 410.677L160.12 410.425L160.461 410.202L160.609 409.804L160.96 409.725L162.083 408.739L162.307 408.733L163.085 408.05L163.314 407.963L163.927 407.31L164.262 407.169C164.532 406.982 165.155 406.588 166.131 405.986L166.055 405.899L165.895 405.543L165.61 405.219L164.993 404.69L164.756 404.247L164.077 403.735L163.93 403.481C163.852 403.421 163.769 403.341 163.681 403.24C163.412 402.354 163.338 401.82 163.458 401.637L163.731 401.207C164.457 400.901 164.965 400.913 165.256 401.244C165.269 401.259 165.433 401.548 165.75 402.111L166.807 403.402L167.468 403.893L167.902 404.43L168.051 404.643L168.389 404.461L169.053 403.954L169.407 403.834L169.782 403.39C169.94 403.251 170.127 403.188 170.344 403.202L170.562 402.972L171.03 402.982L171.773 402.521L171.957 402.512L172.181 402.201C172.534 402.197 172.775 402.137 172.905 402.024C172.979 401.933 173.016 401.888 173.016 401.888C172.9 401.989 173.326 401.806 174.294 401.339L174.534 401.396L175.028 401L174.958 401.138L175.023 401.081C175.268 400.866 175.536 400.809 175.829 400.909L176.137 400.868L176.991 400.577L177.029 400.62C177.168 400.778 177.331 400.775 177.518 400.611L177.605 400.535L178.352 400.95L178.504 401.122C178.726 401.259 178.925 401.428 179.102 401.63L179.235 401.781L179.373 401.851L179.899 402.231L180.262 402.906C180.273 402.948 180.302 403.024 180.349 403.136C180.533 403.229 180.651 403.305 180.701 403.362C180.878 403.564 180.892 403.884 180.741 404.322L180.791 404.814L180.549 405.41L180.509 406.018L179.981 406.636L179.916 406.693ZM187.925 415.808C187.637 416.061 187.197 416.142 186.606 416.049L186.562 415.782L186.064 415.607L186.527 414.435C186.717 414.216 186.847 414.001 186.915 413.788L186.736 413.715L186.608 413.177L186.516 413.029L186.096 412.9L185.827 412.332L185.63 412.238C185.372 412.235 185.186 412.169 185.072 412.039C185.022 411.982 184.985 411.925 184.961 411.869L184.745 412.059C184.388 412.117 183.949 412.184 183.429 412.259C183.272 412.371 182.961 412.555 182.497 412.81L182.196 412.729L181.883 412.852L181.594 412.914L181.257 413.402L180.64 413.484L180.241 413.682L179.992 413.748L179.708 414.035L178.665 414.416L178.336 414.782C178.266 414.818 177.989 414.908 177.504 415.054L177.399 415.108C177.583 415.201 177.726 415.292 177.829 415.38L177.921 415.529C177.961 415.545 178.04 415.591 178.157 415.666L178.214 415.731C178.214 415.731 178.414 415.988 178.816 416.503L178.916 416.53C179.096 416.677 179.199 416.766 179.225 416.794C179.351 416.938 179.454 417.128 179.534 417.364C179.729 417.499 179.884 417.631 179.997 417.761C180.099 417.876 180.166 417.996 180.198 418.12L180.369 418.315L180.551 418.652C180.992 419.183 181.011 419.626 180.608 419.98C180.492 420.081 180.337 420.18 180.14 420.276L179.006 419.55L178.599 418.913C178.417 418.793 178.132 418.571 177.746 418.247L177.759 418.044C177.57 418.032 177.399 417.939 177.247 417.767L177.038 417.529L176.226 417.171L176.112 416.736L176.017 416.628C175.772 416.639 175.552 416.577 175.357 416.443L175.246 416.578L174.868 416.757L174.615 417.209L173.807 417.422L173 418.246L172.603 418.403L172.357 418.734L171.692 418.935L171.49 419.228C171.488 419.255 171.459 419.294 171.401 419.344C171.387 419.357 171.203 419.467 170.85 419.675C170.512 419.871 170.198 420.095 169.91 420.348L169.716 420.519C169.714 420.546 169.69 420.707 169.644 421.003L169.144 421.174L168.845 421.705L168.405 421.9L167.555 423.068L166.446 424.157L166.318 424.882L165.672 425.105C165.521 425.544 165.352 425.845 165.165 426.009L165.1 426.066C165.072 426.092 165.042 426.13 165.011 426.183C164.954 426.233 164.918 426.265 164.904 426.278C164.356 426.758 163.79 426.695 163.205 426.086L163.399 425.61L163.322 425.218L163.673 424.833L164.503 423.339L164.74 423.13C164.949 422.845 165.075 422.683 165.118 422.645C165.19 422.582 165.247 422.545 165.288 422.534L165.598 422.147L166.022 421.889L166.203 421.616L166.678 421.198L167.849 419.787L167.93 419.792L168.129 419.54L168.47 419.318L168.618 418.92L168.969 418.841L170.092 417.854L170.316 417.848L171.094 417.165L171.323 417.078L171.936 416.425L172.271 416.284C172.541 416.098 173.164 415.703 174.14 415.101L174.064 415.015L173.904 414.658L173.619 414.334L173.002 413.805L172.765 413.362L172.086 412.85L171.939 412.596C171.861 412.537 171.778 412.457 171.69 412.356C171.421 411.469 171.347 410.935 171.467 410.753L171.74 410.322C172.466 410.016 172.974 410.029 173.265 410.36C173.278 410.374 173.442 410.663 173.759 411.227L174.816 412.517L175.477 413.008L175.911 413.545L176.06 413.759L176.398 413.577L177.062 413.07L177.416 412.95L177.791 412.506C177.949 412.367 178.137 412.304 178.353 412.318L178.571 412.088L179.039 412.098L179.782 411.636L179.966 411.628L180.19 411.316C180.543 411.312 180.785 411.253 180.914 411.139C180.988 411.049 181.025 411.004 181.025 411.004C180.909 411.105 181.335 410.922 182.303 410.455L182.543 410.511L183.038 410.115L182.967 410.253L183.032 410.196C183.277 409.981 183.546 409.924 183.838 410.024L184.146 409.983L185 409.692L185.038 409.735C185.177 409.894 185.34 409.891 185.527 409.726L185.614 409.65L186.361 410.065L186.513 410.238C186.735 410.374 186.934 410.544 187.111 410.745L187.244 410.896L187.382 410.966L187.908 411.347L188.271 412.022C188.282 412.063 188.311 412.14 188.358 412.252C188.542 412.345 188.66 412.42 188.71 412.478C188.887 412.679 188.901 412.999 188.75 413.438L188.8 413.93L188.558 414.525L188.518 415.134L187.99 415.752L187.925 415.808ZM182.251 431.78C182.078 431.932 181.748 431.992 181.262 431.961C180.968 432.091 180.686 432.147 180.416 432.13L180.28 432.019L179.661 432.142L179.255 431.811L178.635 431.628L178.057 431.754L177.891 431.478C177.68 431.383 177.523 431.291 177.42 431.203L177.112 431.244C177.088 431.189 177.039 431.117 176.963 431.031C176.798 430.844 176.511 430.778 176.1 430.833L176.093 430.303C176.028 430.258 175.945 430.178 175.844 430.063C175.679 429.875 175.569 429.692 175.513 429.512L175.19 429.144L175.146 428.877C174.752 428.254 174.657 427.725 174.862 427.29L174.927 427.233L174.829 426.86L175.082 426.408L175.027 425.997L175.351 425.712L176.073 424.618L176.889 423.979L177.31 423.761L177.764 423.363L178.204 423.167L178.336 423.013L178.728 422.936L178.647 422.931C178.777 422.817 178.945 422.733 179.152 422.679L179.26 422.584L179.722 422.064C179.966 421.849 180.277 421.767 180.654 421.818C180.695 421.807 180.745 421.777 180.803 421.726C180.86 421.675 180.95 421.545 181.072 421.336C181.221 421.128 181.332 420.993 181.404 420.93C181.577 420.778 181.795 420.663 182.058 420.585C181.986 420.852 182.045 421.093 182.235 421.309L182.292 421.374C182.375 421.352 182.496 421.36 182.657 421.398C183.118 421.197 183.56 421.089 183.981 421.076L184.144 421.086C184.201 421.036 184.405 420.934 184.754 420.78L184.906 420.952L185.052 420.901L185.247 421.035C185.425 421.006 185.528 420.993 185.555 420.994C185.609 420.998 185.842 421.074 186.253 421.223C186.405 421.192 186.574 421.196 186.762 421.235C186.841 421.267 186.933 421.314 187.038 421.375L187.243 421.348C187.714 421.623 187.994 421.81 188.083 421.911C188.184 422.026 188.25 422.16 188.281 422.311L188.397 422.4L188.444 422.627C188.466 422.914 188.51 423.181 188.575 423.43L188.617 424.044L188.531 424.12C188.563 424.679 188.341 425.167 187.866 425.584L187.593 425.709L186.937 426.4L186.637 426.319L185.886 426.597L185.072 426.585L184.707 426.867C183.971 426.697 183.332 426.506 182.789 426.295C182.473 426.342 182.195 426.229 181.955 425.956L181.898 425.891L181.279 425.708L180.975 425.363L180.304 425.034L180.156 424.475L180.119 424.432C179.978 424.504 179.78 424.627 179.524 424.801L179.243 424.742L178.965 424.948L178.484 425.141C178.176 425.488 177.972 425.705 177.871 425.794L177.731 425.764C177.544 425.929 177.4 426.042 177.301 426.103C177.287 426.116 177.259 426.128 177.218 426.139C177.189 426.164 177.167 426.183 177.153 426.195C177.038 426.297 176.995 426.436 177.024 426.615C176.889 426.81 176.844 426.977 176.89 427.115L176.893 427.38L177.181 427.969L177.116 428.026L177.225 428.237L177.827 429.009L178.271 429.384L178.612 429.467L178.769 429.559L179.282 429.49L179.399 429.579L180.046 429.967C180.197 429.936 180.366 429.954 180.552 430.02L180.717 429.99C181.027 430.228 181.324 430.26 181.607 430.089C181.985 430.113 182.314 430.284 182.592 430.6L182.668 430.687C182.592 431.239 182.453 431.603 182.251 431.78ZM186.592 424.178C186.635 424.14 186.703 424.042 186.794 423.885L186.721 423.758L186.661 423.734C186.649 423.72 186.623 423.691 186.585 423.648C186.546 423.632 186.513 423.609 186.488 423.58C186.475 423.566 186.464 423.538 186.453 423.497C186.427 423.468 186.408 423.446 186.396 423.432L186.055 423.349L185.862 423.173L185.724 423.103L184.927 423.154L184.545 423.068L183.637 423.254L183.337 423.173C183.054 423.345 182.757 423.428 182.445 423.421L182.218 423.467C182.458 423.537 182.666 423.673 182.843 423.874L183.041 423.969L183.292 423.863L183.536 424.184L183.947 424.129L184.061 424.259L184.183 424.572L184.602 424.395L184.735 424.547L184.972 424.338L185.284 424.562L185.406 424.57L185.638 424.442L186.295 424.362C186.392 424.328 186.491 424.266 186.592 424.178ZM197.089 436.038L196.224 436.491L195.414 435.787L194.754 435.602L194.637 435.207L194.199 435.057L193.785 434.846L193.444 434.763L193.357 434.839L192.743 434.575L192.088 434.615L191.956 434.463C191.509 434.448 191.212 434.415 191.066 434.365L190.303 434.499L190.165 434.429C190.012 434.487 189.795 434.589 189.514 434.733L189.141 434.526L188.768 434.624L188.4 434.641L188.038 434.883L187.822 434.767L187.498 435.051L187.376 435.043C187.342 435.15 187.307 435.27 187.271 435.403L186.857 435.193L186.538 435.397L185.981 435.503L185.815 435.88L185.179 435.94C185.061 436.096 184.972 436.199 184.915 436.249C184.9 436.262 184.872 436.287 184.828 436.325C184.773 436.349 184.73 436.373 184.701 436.398L184.545 436.612L184.479 437.321L183.736 437.477L183.314 437.388L182.48 437.049L182.102 435.966L182.599 435.529L182.717 435.272L183.098 435.052C183.303 434.821 183.463 434.655 183.578 434.554C183.621 434.516 183.685 434.472 183.77 434.423C183.842 434.36 183.892 434.316 183.921 434.291L184.118 434.079C184.13 433.89 184.201 433.738 184.331 433.625C184.446 433.523 184.62 433.46 184.852 433.434C184.924 433.371 185.128 433.167 185.462 432.822L185.584 432.83L185.808 432.518L186.105 432.334L186.218 432.158L186.772 431.786L186.874 431.467L187.187 431.344L187.392 431.011C187.491 430.95 187.613 430.856 187.756 430.729C187.972 430.54 188.091 430.384 188.112 430.264L188.318 430.236L188.631 429.808L188.741 429.367L189.181 429.172L189.235 428.971L189.677 428.43L189.85 428.278C189.873 428.13 189.949 427.999 190.079 427.885C190.367 427.632 190.89 427.734 191.648 428.19L192.014 428.825L191.699 429.294L191.608 429.756L190.968 430.204C190.718 430.5 190.446 430.828 190.151 431.19L189.862 431.558C189.846 431.598 189.779 431.682 189.662 431.81C189.576 431.886 189.451 431.932 189.287 431.949L188.912 432.393L188.399 432.767L188.107 432.87L188.078 433.011L187.9 433.244C188.076 433.242 188.228 433.197 188.356 433.111L188.756 432.912C188.88 432.88 189.002 432.888 189.121 432.936L189.521 432.738L189.959 432.888L190.257 432.704L190.724 432.714L191.2 432.602C191.566 432.612 191.854 432.678 192.063 432.8L192.166 432.786L192.639 432.715L192.872 432.893L192.994 432.901L193.199 432.874L193.537 432.997L193.802 432.994L193.895 433.143L194.133 433.239L194.338 433.212L194.696 433.357L195.256 433.516L195.884 433.882C196.09 434.058 196.199 434.154 196.212 434.168C196.197 434.181 196.19 434.187 196.19 434.187C196.177 434.173 196.164 434.172 196.149 434.184L196.168 434.206C196.219 434.264 196.324 434.325 196.482 434.389C196.603 434.411 196.721 434.486 196.834 434.616C196.885 434.673 196.959 434.787 197.057 434.956C197.371 435.343 197.382 435.704 197.089 436.038Z" fill="white"/>
<defs>
<linearGradient id="paint0_linear_12_874" x1="175.935" y1="365.159" x2="175.935" y2="466.308" gradientUnits="userSpaceOnUse">
<stop stop-color="#CA0B0B"/>
<stop offset="1" stop-color="#960707"/>
</linearGradient>
</defs>
</svg>
