<svg width="82" height="23" viewBox="0 0 82 23" fill="none" xmlns="http://www.w3.org/2000/svg">
<g clip-path="url(#clip0_189_952)">
<mask id="mask0_189_952" style="mask-type:luminance" maskUnits="userSpaceOnUse" x="0" y="3" width="82" height="17">
<path d="M81.7416 3.34717H0V19.4113H81.7416V3.34717Z" fill="white"/>
</mask>
<g mask="url(#mask0_189_952)">
<mask id="mask1_189_952" style="mask-type:luminance" maskUnits="userSpaceOnUse" x="0" y="3" width="82" height="17">
<path d="M81.7416 3.34717H0V19.4113H81.7416V3.34717Z" fill="white"/>
</mask>
<g mask="url(#mask1_189_952)">
<path d="M17.2989 4.69253C15.977 4.06403 14.5636 3.60726 13.0858 3.34717C12.9043 3.68059 12.6923 4.12906 12.5461 4.48581C10.9753 4.24575 9.41885 4.24575 7.87687 4.48581C7.73072 4.12906 7.51388 3.68059 7.33077 3.34717C5.85144 3.60726 4.43636 4.06571 3.11444 4.69586C0.448118 8.79024 -0.274678 12.7829 0.0867204 16.7189C1.85517 18.0609 3.569 18.8762 5.25392 19.4096C5.66993 18.8278 6.04096 18.2093 6.36059 17.5575C5.75184 17.3224 5.16879 17.0323 4.61787 16.6956C4.76403 16.5856 4.90699 16.4705 5.04511 16.3522C8.40531 17.9492 12.0562 17.9492 15.3763 16.3522C15.516 16.4705 15.659 16.5856 15.8035 16.6956C15.251 17.034 14.6664 17.3241 14.0576 17.5591C14.3772 18.2093 14.7467 18.8295 15.1643 19.4113C16.8508 18.8778 18.5662 18.0626 20.3347 16.7189C20.7587 12.1561 19.6103 8.20008 17.2989 4.69253ZM6.81837 14.2983C5.80968 14.2983 4.98246 13.3414 4.98246 12.1761C4.98246 11.0108 5.79201 10.0522 6.81837 10.0522C7.84476 10.0522 8.67195 11.0091 8.65428 12.1761C8.65588 13.3414 7.84476 14.2983 6.81837 14.2983ZM13.603 14.2983C12.5943 14.2983 11.7671 13.3414 11.7671 12.1761C11.7671 11.0108 12.5767 10.0522 13.603 10.0522C14.6294 10.0522 15.4566 11.0091 15.439 12.1761C15.439 13.3414 14.6294 14.2983 13.603 14.2983Z" fill="#5865F2"/>
<path d="M27.442 7.44482H31.8269C32.8839 7.44482 33.7769 7.61653 34.5095 7.95829C35.2401 8.30002 35.788 8.77682 36.151 9.38698C36.5138 9.99713 36.6969 10.6956 36.6969 11.4825C36.6969 12.2527 36.5074 12.9512 36.1284 13.5764C35.7493 14.2032 35.1727 14.6983 34.397 15.0634C33.6213 15.4285 32.6605 15.6119 31.5122 15.6119H27.442V7.44482ZM31.4671 13.5364C32.1787 13.5364 32.7266 13.3513 33.1087 12.9829C33.4911 12.6128 33.6823 12.1093 33.6823 11.4708C33.6823 10.879 33.5118 10.4072 33.1714 10.0538C32.831 9.70037 32.3153 9.52201 31.6261 9.52201H30.2544V13.5364H31.4671Z" fill="#5865F2"/>
<path d="M43.2618 15.6019C42.6546 15.4385 42.1068 15.2018 41.6202 14.89V12.9529C41.9881 13.2479 42.481 13.4914 43.0994 13.6831C43.7178 13.8731 44.3155 13.9681 44.8935 13.9681C45.1634 13.9681 45.3675 13.9315 45.5055 13.8581C45.6438 13.7848 45.7129 13.6964 45.7129 13.5947C45.7129 13.478 45.676 13.3813 45.6004 13.3029C45.5248 13.2246 45.3787 13.1596 45.162 13.1046L43.8127 12.7895C43.0401 12.6028 42.4922 12.3444 42.1664 12.0126C41.8403 11.6825 41.6779 11.2491 41.6779 10.7123C41.6779 10.2605 41.8193 9.86876 42.1054 9.53366C42.3895 9.19858 42.7943 8.94017 43.3194 8.75845C43.8449 8.57508 44.4582 8.4834 45.1634 8.4834C45.793 8.4834 46.3696 8.55341 46.8951 8.69345C47.4202 8.83349 47.8539 9.01186 48.1993 9.23024V11.0624C47.8457 10.844 47.441 10.6723 46.9785 10.5422C46.5174 10.4139 46.0438 10.3505 45.5553 10.3505C44.8501 10.3505 44.4985 10.4756 44.4985 10.724C44.4985 10.8407 44.5531 10.9274 44.6623 10.9857C44.7715 11.044 44.9722 11.1041 45.263 11.1674L46.3873 11.3775C47.1215 11.5092 47.6691 11.7409 48.0288 12.071C48.3888 12.4011 48.5685 12.8895 48.5685 13.5364C48.5685 14.2449 48.2715 14.8067 47.6755 15.2235C47.0796 15.6402 46.2347 15.8486 45.1393 15.8486C44.4952 15.8469 43.869 15.7652 43.2618 15.6019Z" fill="#5865F2"/>
<path d="M51.2223 15.3566C50.5785 15.0299 50.0917 14.5864 49.7672 14.0263C49.4428 13.4661 49.279 12.836 49.279 12.1358C49.279 11.4356 49.4475 10.8088 49.7849 10.257C50.1222 9.70518 50.6168 9.27173 51.2691 8.95665C51.9211 8.64158 52.7001 8.48486 53.6077 8.48486C54.7319 8.48486 55.6652 8.72993 56.4073 9.22004V11.3556C56.1456 11.1689 55.8402 11.0172 55.4917 10.9005C55.1431 10.7838 54.7705 10.7254 54.3722 10.7254C53.6752 10.7254 53.1307 10.8571 52.7371 11.1222C52.3435 11.3873 52.1461 11.7324 52.1461 12.1608C52.1461 12.5809 52.3371 12.9243 52.7195 13.1944C53.1018 13.4628 53.6558 13.5978 54.3834 13.5978C54.7577 13.5978 55.1272 13.5411 55.4917 13.4295C55.8547 13.3161 56.168 13.1777 56.4297 13.0143V15.0799C55.6059 15.5933 54.6502 15.8501 53.5626 15.8501C52.6472 15.8467 51.8665 15.6834 51.2223 15.3566Z" fill="#5865F2"/>
<path d="M59.2117 15.3575C58.5628 15.0308 58.0682 14.584 57.7275 14.0155C57.3871 13.447 57.2152 12.8135 57.2152 12.1133C57.2152 11.4132 57.3854 10.788 57.7275 10.2396C58.0696 9.69107 58.5612 9.26095 59.207 8.94921C59.8508 8.63746 60.6204 8.48242 61.5117 8.48242C62.4033 8.48242 63.1726 8.63746 63.8167 8.94921C64.4608 9.26095 64.9524 9.68774 65.2897 10.2329C65.6271 10.778 65.7956 11.4032 65.7956 12.1117C65.7956 12.8119 65.6271 13.4454 65.2897 14.0138C64.9524 14.5823 64.4592 15.0291 63.8103 15.3558C63.1614 15.6826 62.3952 15.846 61.5103 15.846C60.6251 15.846 59.859 15.6843 59.2117 15.3575ZM62.6281 13.287C62.9013 13.0036 63.0393 12.6285 63.0393 12.1617C63.0393 11.6949 62.9027 11.3232 62.6281 11.0481C62.3552 10.7713 61.9823 10.633 61.5103 10.633C61.0299 10.633 60.654 10.7713 60.3794 11.0481C60.1064 11.3248 59.9698 11.6949 59.9698 12.1617C59.9698 12.6285 60.1064 13.0036 60.3794 13.287C60.6526 13.5704 61.0299 13.7138 61.5103 13.7138C61.9823 13.7121 62.3552 13.5704 62.6281 13.287Z" fill="#5865F2"/>
<path d="M72.5513 8.9158V11.4364C72.2655 11.2414 71.896 11.1447 71.4383 11.1447C70.8389 11.1447 70.3765 11.3331 70.0551 11.7098C69.7323 12.0866 69.5717 12.6734 69.5717 13.467V15.6142H66.8171V8.78745H69.5157V10.958C69.6649 10.1644 69.9076 9.57932 70.2415 9.20087C70.5741 8.82412 71.0044 8.63574 71.5281 8.63574C71.9248 8.63574 72.2655 8.7291 72.5513 8.9158Z" fill="#5865F2"/>
<path d="M81.7036 7.21191V15.6141H78.9487V14.0854C78.7158 14.6605 78.3625 15.0989 77.8872 15.399C77.4116 15.6974 76.8237 15.8475 76.1267 15.8475C75.5035 15.8475 74.9607 15.6907 74.4963 15.3757C74.0322 15.0606 73.6741 14.6288 73.4219 14.0803C73.1714 13.5319 73.0443 12.9117 73.0443 12.2182C73.0364 11.503 73.1697 10.8612 73.4443 10.2927C73.7175 9.72423 74.1044 9.2808 74.6024 8.96236C75.1004 8.64396 75.669 8.48391 76.3067 8.48391C77.619 8.48391 78.4991 9.07572 78.9487 10.2577V7.21191H81.7036ZM78.5378 13.2401C78.8188 12.9567 78.9585 12.5883 78.9585 12.1382C78.9585 11.7031 78.8219 11.348 78.549 11.0762C78.2757 10.8045 77.9015 10.6678 77.4309 10.6678C76.9668 10.6678 76.5958 10.8062 76.3179 11.0829C76.0399 11.3597 75.9019 11.7181 75.9019 12.1615C75.9019 12.605 76.0399 12.9667 76.3179 13.2468C76.5958 13.5269 76.962 13.6669 77.4197 13.6669C77.8838 13.6652 78.2564 13.5235 78.5378 13.2401Z" fill="#5865F2"/>
<path d="M39.0182 9.51377C39.7765 9.51377 40.3916 8.94053 40.3916 8.23343C40.3916 7.52633 39.7765 6.95312 39.0182 6.95312C38.2596 6.95312 37.6448 7.52633 37.6448 8.23343C37.6448 8.94053 38.2596 9.51377 39.0182 9.51377Z" fill="#5865F2"/>
<path d="M37.6437 10.396C38.4852 10.7727 39.5293 10.7894 40.3901 10.396V15.6507H37.6437V10.396Z" fill="#5865F2"/>
</g>
</g>
</g>
<defs>
<clipPath id="clip0_189_952">
<rect width="81.7416" height="22.7575" fill="white"/>
</clipPath>
</defs>
</svg>
