<svg width="34" height="30" viewBox="0 0 34 30" fill="none" xmlns="http://www.w3.org/2000/svg">
<path d="M15 30V26.6667H28.3333V14.8333C28.3333 11.5833 27.2014 8.82639 24.9375 6.5625C22.6736 4.29861 19.9167 3.16667 16.6667 3.16667C13.4167 3.16667 10.6597 4.29861 8.39583 6.5625C6.13194 8.82639 5 11.5833 5 14.8333V25H3.33333C2.41667 25 1.63194 24.6736 0.979167 24.0208C0.326389 23.3681 0 22.5833 0 21.6667V18.3333C0 17.75 0.145833 17.2014 0.4375 16.6875C0.729167 16.1736 1.13889 15.7639 1.66667 15.4583L1.79167 13.25C2.01389 11.3611 2.5625 9.61111 3.4375 8C4.3125 6.38889 5.40972 4.98611 6.72917 3.79167C8.04861 2.59722 9.5625 1.66667 11.2708 1C12.9792 0.333333 14.7778 0 16.6667 0C18.5556 0 20.3472 0.333333 22.0417 1C23.7361 1.66667 25.25 2.59028 26.5833 3.77083C27.9167 4.95139 29.0139 6.34722 29.875 7.95833C30.7361 9.56944 31.2917 11.3194 31.5417 13.2083L31.6667 15.375C32.1944 15.625 32.6042 16 32.8958 16.5C33.1875 17 33.3333 17.5278 33.3333 18.0833V21.9167C33.3333 22.4722 33.1875 23 32.8958 23.5C32.6042 24 32.1944 24.375 31.6667 24.625V26.6667C31.6667 27.5833 31.3403 28.3681 30.6875 29.0208C30.0347 29.6736 29.25 30 28.3333 30H15ZM11.6667 18.3333C11.1944 18.3333 10.7986 18.1736 10.4792 17.8542C10.1597 17.5347 10 17.1389 10 16.6667C10 16.1944 10.1597 15.7986 10.4792 15.4792C10.7986 15.1597 11.1944 15 11.6667 15C12.1389 15 12.5347 15.1597 12.8542 15.4792C13.1736 15.7986 13.3333 16.1944 13.3333 16.6667C13.3333 17.1389 13.1736 17.5347 12.8542 17.8542C12.5347 18.1736 12.1389 18.3333 11.6667 18.3333ZM21.6667 18.3333C21.1944 18.3333 20.7986 18.1736 20.4792 17.8542C20.1597 17.5347 20 17.1389 20 16.6667C20 16.1944 20.1597 15.7986 20.4792 15.4792C20.7986 15.1597 21.1944 15 21.6667 15C22.1389 15 22.5347 15.1597 22.8542 15.4792C23.1736 15.7986 23.3333 16.1944 23.3333 16.6667C23.3333 17.1389 23.1736 17.5347 22.8542 17.8542C22.5347 18.1736 22.1389 18.3333 21.6667 18.3333ZM6.70833 15.75C6.51389 12.8056 7.40278 10.2778 9.375 8.16667C11.3472 6.05556 13.8056 5 16.75 5C19.2222 5 21.3958 5.78472 23.2708 7.35417C25.1458 8.92361 26.2778 10.9306 26.6667 13.375C24.1389 13.3472 21.8125 12.6667 19.6875 11.3333C17.5625 10 15.9306 8.19444 14.7917 5.91667C14.3472 8.13889 13.4097 10.1181 11.9792 11.8542C10.5486 13.5903 8.79167 14.8889 6.70833 15.75Z" fill="white"/>
</svg>
