<svg width="16" height="30" viewBox="0 0 16 30" fill="none" xmlns="http://www.w3.org/2000/svg">
<path d="M6.16667 30V26.4167C4.69444 26.0833 3.42361 25.4444 2.35417 24.5C1.28472 23.5556 0.5 22.2222 0 20.5L3.08333 19.25C3.5 20.5833 4.11806 21.5972 4.9375 22.2917C5.75694 22.9861 6.83333 23.3333 8.16667 23.3333C9.30556 23.3333 10.2708 23.0764 11.0625 22.5625C11.8542 22.0486 12.25 21.25 12.25 20.1667C12.25 19.1944 11.9444 18.4236 11.3333 17.8542C10.7222 17.2847 9.30556 16.6389 7.08333 15.9167C4.69444 15.1667 3.05556 14.2708 2.16667 13.2292C1.27778 12.1875 0.833333 10.9167 0.833333 9.41667C0.833333 7.61111 1.41667 6.20833 2.58333 5.20833C3.75 4.20833 4.94444 3.63889 6.16667 3.5V0H9.5V3.5C10.8889 3.72222 12.0347 4.22917 12.9375 5.02083C13.8403 5.8125 14.5 6.77778 14.9167 7.91667L11.8333 9.25C11.5 8.36111 11.0278 7.69444 10.4167 7.25C9.80556 6.80556 8.97222 6.58333 7.91667 6.58333C6.69444 6.58333 5.76389 6.85417 5.125 7.39583C4.48611 7.9375 4.16667 8.61111 4.16667 9.41667C4.16667 10.3333 4.58333 11.0556 5.41667 11.5833C6.25 12.1111 7.69444 12.6667 9.75 13.25C11.6667 13.8056 13.1181 14.6875 14.1042 15.8958C15.0903 17.1042 15.5833 18.5 15.5833 20.0833C15.5833 22.0556 15 23.5556 13.8333 24.5833C12.6667 25.6111 11.2222 26.25 9.5 26.5V30H6.16667Z" fill="white"/>
</svg>
