<svg width="34" height="34" viewBox="0 0 34 34" fill="none" xmlns="http://www.w3.org/2000/svg">
<path d="M16.6667 33.3333C16 33.3333 15.3611 33.2083 14.75 32.9583C14.1389 32.7083 13.5972 32.3472 13.125 31.875C12.3194 31.0694 11.625 30.5417 11.0417 30.2917C10.4583 30.0417 9.58333 29.9167 8.41667 29.9167C7.02778 29.9167 5.84722 29.4306 4.875 28.4583C3.90278 27.4861 3.41667 26.3056 3.41667 24.9167C3.41667 23.75 3.29167 22.875 3.04167 22.2917C2.79167 21.7083 2.26389 21.0139 1.45833 20.2083C0.986111 19.7361 0.625 19.1944 0.375 18.5833C0.125 17.9722 0 17.3333 0 16.6667C0 16 0.125 15.3611 0.375 14.75C0.625 14.1389 0.986111 13.5972 1.45833 13.125C2.26389 12.3194 2.79167 11.625 3.04167 11.0417C3.29167 10.4583 3.41667 9.58333 3.41667 8.41667C3.41667 7.02778 3.90278 5.84722 4.875 4.875C5.84722 3.90278 7.02778 3.41667 8.41667 3.41667C9.58333 3.41667 10.4583 3.29167 11.0417 3.04167C11.625 2.79167 12.3194 2.26389 13.125 1.45833C13.5972 0.986111 14.1389 0.625 14.75 0.375C15.3611 0.125 16 0 16.6667 0C17.3333 0 17.9722 0.125 18.5833 0.375C19.1944 0.625 19.7361 0.986111 20.2083 1.45833C21.0139 2.26389 21.7083 2.79167 22.2917 3.04167C22.875 3.29167 23.75 3.41667 24.9167 3.41667C26.3056 3.41667 27.4861 3.90278 28.4583 4.875C29.4306 5.84722 29.9167 7.02778 29.9167 8.41667C29.9167 9.58333 30.0417 10.4583 30.2917 11.0417C30.5417 11.625 31.0694 12.3194 31.875 13.125C32.3472 13.5972 32.7083 14.1389 32.9583 14.75C33.2083 15.3611 33.3333 16 33.3333 16.6667C33.3333 17.3333 33.2083 17.9722 32.9583 18.5833C32.7083 19.1944 32.3472 19.7361 31.875 20.2083C31.0694 21.0139 30.5417 21.7083 30.2917 22.2917C30.0417 22.875 29.9167 23.75 29.9167 24.9167C29.9167 26.3056 29.4306 27.4861 28.4583 28.4583C27.4861 29.4306 26.3056 29.9167 24.9167 29.9167C23.75 29.9167 22.875 30.0417 22.2917 30.2917C21.7083 30.5417 21.0139 31.0694 20.2083 31.875C19.7361 32.3472 19.1944 32.7083 18.5833 32.9583C17.9722 33.2083 17.3333 33.3333 16.6667 33.3333ZM20.8333 23.3333C21.5278 23.3333 22.1181 23.0903 22.6042 22.6042C23.0903 22.1181 23.3333 21.5278 23.3333 20.8333C23.3333 20.1389 23.0903 19.5486 22.6042 19.0625C22.1181 18.5764 21.5278 18.3333 20.8333 18.3333C20.1389 18.3333 19.5486 18.5764 19.0625 19.0625C18.5764 19.5486 18.3333 20.1389 18.3333 20.8333C18.3333 21.5278 18.5764 22.1181 19.0625 22.6042C19.5486 23.0903 20.1389 23.3333 20.8333 23.3333ZM12.4167 23.25L23.25 12.4167L20.9167 10.0833L10.0833 20.9167L12.4167 23.25ZM12.5 15C13.1944 15 13.7847 14.7569 14.2708 14.2708C14.7569 13.7847 15 13.1944 15 12.5C15 11.8056 14.7569 11.2153 14.2708 10.7292C13.7847 10.2431 13.1944 10 12.5 10C11.8056 10 11.2153 10.2431 10.7292 10.7292C10.2431 11.2153 10 11.8056 10 12.5C10 13.1944 10.2431 13.7847 10.7292 14.2708C11.2153 14.7569 11.8056 15 12.5 15Z" fill="white"/>
</svg>
