<svg width="37" height="24" viewBox="0 0 37 24" fill="none" xmlns="http://www.w3.org/2000/svg">
<path d="M17.9167 18.3333H19.125V17C19.9028 16.8889 20.5625 16.5694 21.1042 16.0417C21.6458 15.5139 21.9167 14.8333 21.9167 14C21.9167 13.2778 21.6389 12.6736 21.0833 12.1875C20.5278 11.7014 19.8889 11.3056 19.1667 11V7.91667C19.4444 8 19.6736 8.13889 19.8542 8.33333C20.0347 8.52778 20.1667 8.76389 20.25 9.04167L21.75 8.41667C21.5556 7.83333 21.2222 7.36806 20.75 7.02083C20.2778 6.67361 19.75 6.44444 19.1667 6.33333V5H17.9167V6.29167C17.1389 6.375 16.4792 6.65972 15.9375 7.14583C15.3958 7.63194 15.125 8.27778 15.125 9.08333C15.125 9.83333 15.4097 10.4583 15.9792 10.9583C16.5486 11.4583 17.1944 11.8611 17.9167 12.1667V15.4583C17.4722 15.3194 17.0972 15.0833 16.7917 14.75C16.4861 14.4167 16.2778 14.0278 16.1667 13.5833L14.7083 14.2083C14.9306 14.9861 15.3194 15.625 15.875 16.125C16.4306 16.625 17.1111 16.9306 17.9167 17.0417V18.3333ZM19.1667 15.4167V12.6667C19.4722 12.8056 19.7431 12.9722 19.9792 13.1667C20.2153 13.3611 20.3333 13.6528 20.3333 14.0417C20.3333 14.4861 20.2222 14.7986 20 14.9792C19.7778 15.1597 19.5 15.3056 19.1667 15.4167ZM17.9167 10.4583C17.6111 10.3194 17.3333 10.1528 17.0833 9.95833C16.8333 9.76389 16.7083 9.47222 16.7083 9.08333C16.7083 8.69445 16.8333 8.40972 17.0833 8.22917C17.3333 8.04861 17.6111 7.93056 17.9167 7.875V10.4583ZM11.6667 23.3333C8.41667 23.3333 5.65972 22.2014 3.39583 19.9375C1.13194 17.6736 0 14.9167 0 11.6667C0 8.41667 1.13194 5.65972 3.39583 3.39583C5.65972 1.13194 8.41667 0 11.6667 0H25C28.25 0 31.0069 1.13194 33.2708 3.39583C35.5347 5.65972 36.6667 8.41667 36.6667 11.6667C36.6667 14.9167 35.5347 17.6736 33.2708 19.9375C31.0069 22.2014 28.25 23.3333 25 23.3333H11.6667Z" fill="white"/>
</svg>
