<svg width="28" height="28" viewBox="0 0 28 28" fill="none" xmlns="http://www.w3.org/2000/svg">
<path d="M24.788 17.1538C24.788 21.8184 21.8092 25.8007 17.652 27.3002C19.0654 24.5794 14.9771 19.1579 14.9255 19.0862C13.0147 20.9499 12.1172 21.6791 12.3119 24.6142C11.3859 23.4789 11.3732 21.8758 11.4994 21.4773C11.1037 22.0965 9.00508 25.1356 9.85658 27.1081C5.96603 25.4853 3.21944 21.6407 3.2137 17.1681C3.20223 16.89 3.15635 14.1893 4.7963 11.6176C4.95398 11.3653 5.24927 11.2305 5.54458 11.2735C5.84275 11.3194 6.08359 11.5316 6.16385 11.8183C6.1954 11.9358 6.48496 12.8275 7.33934 13.1486C6.84334 11.8498 6.33302 9.66228 7.19886 7.33139C8.27399 4.42136 11.1381 2.20229 15.7082 0.737242C16.0207 0.634016 16.3676 0.751573 16.5568 1.02681C16.7518 1.29917 16.7403 1.66615 16.531 1.92418C16.4679 2.00446 14.9656 3.98271 16.0522 6.23332C16.0551 6.24478 16.7632 7.66397 18.3516 8.8882C18.9422 9.37558 19.7965 10.551 19.6847 12.0935C19.7335 12.0591 19.7822 12.0132 19.8223 11.9616C20.2438 11.4714 20.3613 10.4421 20.1492 9.05447C20.1062 8.73911 20.261 8.42658 20.5477 8.27462C20.8315 8.12269 21.1813 8.17144 21.4164 8.38934C22.6836 9.56477 24.8024 12.2627 24.788 17.1538Z" fill="white"/>
</svg>
