<svg width="67" height="46" viewBox="0 0 67 46" fill="none" xmlns="http://www.w3.org/2000/svg">
<path d="M40.4478 33.8461L39.9533 33.7719L40.4478 33.8461ZM66.4967 4.03568C66.692 3.84042 66.692 3.52384 66.4967 3.32858L63.3147 0.146595C63.1194 -0.048667 62.8029 -0.048667 62.6076 0.146595C62.4123 0.341857 62.4123 0.65844 62.6076 0.853702L65.436 3.68213L62.6076 6.51056C62.4123 6.70582 62.4123 7.0224 62.6076 7.21766C62.8029 7.41293 63.1194 7.41293 63.3147 7.21766L66.4967 4.03568ZM0.228973 37.1976L-3.43415e-06 37.6421C6.17259 40.8219 15.6258 44.4854 23.9044 45.0976C28.0435 45.4037 31.9479 44.9517 35.0052 43.2371C38.0899 41.5071 40.2515 38.5253 40.9423 33.9203L40.4478 33.8461L39.9533 33.7719C39.3035 38.1043 37.3036 40.8015 34.516 42.3649C31.7011 43.9436 28.0226 44.3994 23.9782 44.1003C15.89 43.5022 6.57444 39.9041 0.45795 36.7532L0.228973 37.1976ZM40.4478 33.8461L40.9423 33.9203C42.6096 22.8045 45.9346 15.3746 50.308 10.7279C54.6681 6.09538 60.1143 4.18213 66.1431 4.18213L66.1431 3.68213L66.1431 3.18213C59.8829 3.18213 54.1572 5.17904 49.5798 10.0426C45.0156 14.892 41.6375 22.5441 39.9533 33.7719L40.4478 33.8461Z" fill="url(#paint0_linear_189_990)"/>
<defs>
<linearGradient id="paint0_linear_189_990" x1="33.6079" y1="3.68213" x2="33.6079" y2="44.6865" gradientUnits="userSpaceOnUse">
<stop stop-color="white" stop-opacity="0.8"/>
<stop offset="1" stop-color="white" stop-opacity="0.15"/>
</linearGradient>
</defs>
</svg>
