<svg width="96" height="96" viewBox="0 0 96 96" fill="none" xmlns="http://www.w3.org/2000/svg">
<g clip-path="url(#clip0_268_729)">
<path d="M89.3409 0H6.03907C2.70191 0 0 2.70191 0 6.03907V52.5052C0 76.1871 19.1929 95.38 42.8748 95.38H52.5052C76.1871 95.38 95.38 76.1871 95.38 52.5052V6.03907C95.38 2.70191 92.6781 0 89.3409 0Z" fill="#D31400"/>
<path d="M88.5024 6.87744V53.0301C88.5024 72.6127 72.6043 88.5107 53.0218 88.5107H42.3497C22.7672 88.5107 6.86913 72.6127 6.86913 53.0301V6.87744L88.5024 6.87744Z" stroke="white" stroke-width="0.846994" stroke-linecap="round" stroke-linejoin="round" stroke-dasharray="2.54 2.54"/>
<path d="M12.2136 59.6961C12.2136 56.4436 12.7387 53.6485 13.7805 51.3278C14.8223 49.007 16.6857 46.4321 19.3792 43.6116C22.0303 40.7912 23.8598 38.3772 24.8846 36.3868C25.901 34.3879 26.4177 32.3043 26.4177 30.136C26.4177 28.1794 26.1043 26.8242 25.4691 26.0619C24.8423 25.2996 23.9191 24.9185 22.6994 24.9185C20.2262 24.9185 18.9896 26.4177 18.9896 29.416V34.3032H12.2136V29.8734C12.2136 26.1805 13.1284 23.3515 14.9494 21.3781C16.7704 19.4046 19.4215 18.4136 22.8942 18.4136C26.3669 18.4136 29.018 19.4046 30.839 21.3781C32.66 23.3515 33.5748 26.189 33.5748 29.8734C33.5748 32.6515 32.9141 35.3619 31.5928 38.013C30.2715 40.6641 27.9762 43.7048 24.7237 47.1267C22.5977 49.3881 21.1663 51.2177 20.4294 52.6321C19.6926 54.0466 19.3199 55.5543 19.3199 57.1551V58.1291H32.9311V64.6425H12.2136V59.6961Z" fill="white"/>
<path d="M40.9266 62.3301C39.1056 60.3566 38.1908 57.5191 38.1908 53.8347V50.2519H44.9668V54.3514C44.9668 57.3074 46.2034 58.7812 48.6766 58.7812C51.1498 58.7812 52.3864 57.3074 52.3864 54.3514V44.1282C52.3864 41.1298 51.1498 39.6306 48.6766 39.6306C46.2034 39.6306 44.9668 41.1298 44.9668 44.1282V44.5178H38.1908L39.4952 19.0571H58.3832V25.5705H45.8815L45.2971 36.4459H45.4241C46.7709 34.2353 48.8291 33.1257 51.6072 33.1257C54.2159 33.1257 56.1894 34.015 57.5362 35.7937C58.8829 37.5724 59.552 40.1558 59.552 43.5437V53.8347C59.552 57.5276 58.6373 60.3566 56.8162 62.3301C54.9952 64.3035 52.3441 65.2945 48.8714 65.2945C45.3987 65.2945 42.7476 64.3035 40.9266 62.3301Z" fill="white"/>
<path d="M64.4648 32.2703C63.8549 31.6181 63.5585 30.6864 63.5585 29.4752V23.5802C63.5585 22.369 63.8634 21.4373 64.4648 20.7851C65.0746 20.1329 65.9555 19.811 67.1243 19.811C68.2932 19.811 69.1825 20.1329 69.7839 20.7851C70.3937 21.4373 70.6902 22.369 70.6902 23.5802V29.4752C70.6902 30.6864 70.3853 31.6181 69.7839 32.2703C69.1741 32.9225 68.2932 33.2444 67.1243 33.2444C65.9555 33.2444 65.0661 32.9225 64.4648 32.2703ZM68.344 29.6446V23.4108C68.344 22.4198 67.9375 21.9285 67.1328 21.9285C66.3282 21.9285 65.9216 22.4198 65.9216 23.4108V29.6446C65.9216 30.6356 66.3282 31.1269 67.1328 31.1269C67.9375 31.1269 68.344 30.6356 68.344 29.6446ZM75.6874 20.1414H78.0506L68.92 43.7302H66.5653L75.6959 20.1414H75.6874ZM74.815 43.0949C74.2052 42.4427 73.9088 41.511 73.9088 40.2998V34.4047C73.9088 33.1935 74.2137 32.2618 74.815 31.6097C75.4249 30.9575 76.3058 30.6356 77.4746 30.6356C78.6435 30.6356 79.5328 30.9575 80.1342 31.6097C80.744 32.2618 81.0405 33.1935 81.0405 34.4047V40.2998C81.0405 41.511 80.7355 42.4427 80.1342 43.0949C79.5243 43.7471 78.6435 44.0689 77.4746 44.0689C76.3058 44.0689 75.4164 43.7471 74.815 43.0949ZM78.6858 40.4608V34.2269C78.6858 33.2359 78.2793 32.7446 77.4746 32.7446C76.67 32.7446 76.2634 33.2359 76.2634 34.2269V40.4608C76.2634 41.4517 76.67 41.943 77.4746 41.943C78.2793 41.943 78.6858 41.4517 78.6858 40.4608Z" fill="white"/>
<path d="M62.5336 63.0079C61.9323 62.3641 61.6358 61.4663 61.6358 60.2975V52.6152C61.6358 51.4464 61.9323 50.5401 62.5336 49.9049C63.135 49.2611 63.9904 48.9478 65.1169 48.9478C66.2435 48.9478 67.1074 49.2696 67.7088 49.9049C68.3101 50.5486 68.6066 51.4464 68.6066 52.6152V60.2975C68.6066 61.4663 68.3101 62.3726 67.7088 63.0079C67.1074 63.6516 66.2519 63.965 65.1169 63.965C63.982 63.965 63.1265 63.6431 62.5336 63.0079ZM66.3112 60.4415V52.4712C66.3112 51.5141 65.9131 51.0314 65.1254 51.0314C64.3377 51.0314 63.9396 51.5141 63.9396 52.4712V60.4415C63.9396 61.3986 64.3377 61.8814 65.1254 61.8814C65.9131 61.8814 66.3112 61.3986 66.3112 60.4415Z" fill="white"/>
<path d="M70.1567 49.1512H76.2296V51.2348H72.452V55.3004H75.4165V57.384H72.452V63.7449H70.1567V49.1343V49.1512Z" fill="white"/>
<path d="M77.3307 49.1512H83.4036V51.2348H79.626V55.3004H82.5905V57.384H79.626V63.7449H77.3307V49.1343V49.1512Z" fill="white"/>
</g>
<defs>
<clipPath id="clip0_268_729">
<rect width="95.38" height="95.38" fill="white"/>
</clipPath>
</defs>
</svg>
