<svg width="96" height="96" viewBox="0 0 96 96" fill="none" xmlns="http://www.w3.org/2000/svg">
<g clip-path="url(#clip0_268_714)">
<path d="M89.3409 0H6.03907C2.70191 0 0 2.70191 0 6.03907V52.5052C0 76.1871 19.1929 95.38 42.8748 95.38H52.5052C76.1871 95.38 95.38 76.1871 95.38 52.5052V6.03907C95.38 2.70191 92.6781 0 89.3409 0Z" fill="#D31400"/>
<path d="M88.5024 6.87793V53.0306C88.5024 72.6131 72.6043 88.5112 53.0218 88.5112H42.3497C22.7672 88.5112 6.86914 72.6131 6.86914 53.0306V6.87793L88.5024 6.87793Z" stroke="white" stroke-width="0.846994" stroke-linecap="round" stroke-linejoin="round" stroke-dasharray="2.54 2.54"/>
<path d="M24.3258 56.3757H10.6469V49.8623L23.6736 19.0571H31.4914V49.8623H34.8794V56.3757H31.4914V64.6423H24.3258V56.3757ZM24.3258 49.8623V32.0839H24.1988L17.1687 49.8623H24.3343H24.3258Z" fill="white"/>
<path d="M40.6726 62.2967C38.8007 60.2978 37.869 57.4773 37.869 53.8267V29.8653C37.869 26.2147 38.8007 23.3942 40.6726 21.3953C42.5359 19.3964 45.2294 18.397 48.7444 18.397C52.2594 18.397 54.9529 19.3964 56.8163 21.3953C58.6797 23.3942 59.6198 26.2147 59.6198 29.8653V53.8267C59.6198 57.4773 58.6881 60.2978 56.8163 62.2967C54.9444 64.2956 52.2594 65.295 48.7444 65.295C45.2294 65.295 42.5359 64.2956 40.6726 62.2967ZM52.4543 54.2926V29.4164C52.4543 26.418 51.2176 24.9188 48.7444 24.9188C46.2712 24.9188 45.0346 26.418 45.0346 29.4164V54.2926C45.0346 57.2909 46.2712 58.7901 48.7444 58.7901C51.2176 58.7901 52.4543 57.2909 52.4543 54.2926Z" fill="white"/>
<path d="M64.4647 32.2708C63.8548 31.6186 63.5584 30.6869 63.5584 29.4757V23.5806C63.5584 22.3694 63.8633 21.4378 64.4647 20.7856C65.0745 20.1334 65.9554 19.8115 67.1242 19.8115C68.2931 19.8115 69.1824 20.1334 69.7838 20.7856C70.3936 21.4378 70.6901 22.3694 70.6901 23.5806V29.4757C70.6901 30.6869 70.3852 31.6186 69.7838 32.2708C69.174 32.923 68.2931 33.2448 67.1242 33.2448C65.9554 33.2448 65.066 32.923 64.4647 32.2708ZM68.3439 29.6451V23.4112C68.3439 22.4203 67.9373 21.929 67.1327 21.929C66.3281 21.929 65.9215 22.4203 65.9215 23.4112V29.6451C65.9215 30.6361 66.3281 31.1274 67.1327 31.1274C67.9373 31.1274 68.3439 30.6361 68.3439 29.6451ZM75.6873 20.1419H78.0505L68.9199 43.7306H66.5652L75.6958 20.1419H75.6873ZM74.8149 43.0954C74.2051 42.4432 73.9087 41.5115 73.9087 40.3003V34.4052C73.9087 33.194 74.2136 32.2623 74.8149 31.6101C75.4248 30.958 76.3056 30.6361 77.4745 30.6361C78.6434 30.6361 79.5327 30.958 80.1341 31.6101C80.7439 32.2623 81.0403 33.194 81.0403 34.4052V40.3003C81.0403 41.5115 80.7354 42.4432 80.1341 43.0954C79.5242 43.7476 78.6434 44.0694 77.4745 44.0694C76.3056 44.0694 75.4163 43.7476 74.8149 43.0954ZM78.6857 40.4612V34.2274C78.6857 33.2364 78.2791 32.7451 77.4745 32.7451C76.6699 32.7451 76.2633 33.2364 76.2633 34.2274V40.4612C76.2633 41.4522 76.6699 41.9435 77.4745 41.9435C78.2791 41.9435 78.6857 41.4522 78.6857 40.4612Z" fill="white"/>
<path d="M62.5336 63.0083C61.9322 62.3646 61.6358 61.4668 61.6358 60.298V52.6157C61.6358 51.4469 61.9322 50.5406 62.5336 49.9053C63.135 49.2616 63.9904 48.9482 65.1169 48.9482C66.2434 48.9482 67.1074 49.2701 67.7087 49.9053C68.3101 50.5491 68.6066 51.4469 68.6066 52.6157V60.298C68.6066 61.4668 68.3101 62.3731 67.7087 63.0083C67.1074 63.6521 66.2519 63.9654 65.1169 63.9654C63.982 63.9654 63.1265 63.6436 62.5336 63.0083ZM66.3112 60.442V52.4717C66.3112 51.5146 65.9131 51.0318 65.1254 51.0318C64.3377 51.0318 63.9396 51.5146 63.9396 52.4717V60.442C63.9396 61.3991 64.3377 61.8818 65.1254 61.8818C65.9131 61.8818 66.3112 61.3991 66.3112 60.442Z" fill="white"/>
<path d="M70.1565 49.1512H76.2295V51.2348H72.4519V55.3004H75.4163V57.384H72.4519V63.7449H70.1565V49.1343V49.1512Z" fill="white"/>
<path d="M77.3305 49.1512H83.4034V51.2348H79.6258V55.3004H82.5903V57.384H79.6258V63.7449H77.3305V49.1343V49.1512Z" fill="white"/>
</g>
<defs>
<clipPath id="clip0_268_714">
<rect width="95.38" height="95.38" fill="white"/>
</clipPath>
</defs>
</svg>
