<svg width="96" height="96" viewBox="0 0 96 96" fill="none" xmlns="http://www.w3.org/2000/svg">
<g clip-path="url(#clip0_268_699)">
<path d="M89.3399 0H6.039C2.70188 0 0 2.70188 0 6.039V52.5046C0 76.1862 19.1927 95.3789 42.8743 95.3789H52.5046C76.1862 95.3789 95.3789 76.1862 95.3789 52.5046V6.039C95.3789 2.70188 92.677 0 89.3399 0Z" fill="#D31400"/>
<path d="M88.5014 6.87744V53.0296C88.5014 72.6119 72.6035 88.5098 53.0212 88.5098H42.3492C22.7669 88.5098 6.86904 72.6119 6.86904 53.0296V6.87744L88.5014 6.87744Z" stroke="white" stroke-width="0.846984" stroke-linecap="round" stroke-linejoin="round" stroke-dasharray="2.54 2.54"/>
<path d="M14.8815 62.3296C13.0605 60.3561 12.1458 57.5187 12.1458 53.8343V50.2516H18.9216V54.351C18.9216 57.3069 20.1582 58.7807 22.6314 58.7807C25.1046 58.7807 26.3412 57.3069 26.3412 54.351V44.1279C26.3412 41.1295 25.1046 39.6304 22.6314 39.6304C20.1582 39.6304 18.9216 41.1295 18.9216 44.1279V44.5175H12.1458L13.4501 19.0571H32.3379V25.5704H19.8364L19.252 36.4457H19.379C20.7257 34.2351 22.7839 33.1255 25.562 33.1255C28.1707 33.1255 30.1442 34.0149 31.4909 35.7935C32.8376 37.5722 33.5067 40.1555 33.5067 43.5434V53.8343C33.5067 57.5272 32.592 60.3561 30.7709 62.3296C28.9499 64.303 26.2989 65.294 22.8262 65.294C19.3536 65.294 16.7025 64.303 14.8815 62.3296Z" fill="white"/>
<path d="M40.6637 62.2957C38.7919 60.2968 37.8602 57.4763 37.8602 53.8258V29.8647C37.8602 26.2141 38.7919 23.3937 40.6637 21.3948C42.5271 19.3959 45.2205 18.3965 48.7355 18.3965C52.2505 18.3965 54.9439 19.3959 56.8072 21.3948C58.6706 23.3937 59.6108 26.2141 59.6108 29.8647V53.8258C59.6108 57.4763 58.6791 60.2968 56.8072 62.2957C54.9354 64.2946 52.2505 65.294 48.7355 65.294C45.2205 65.294 42.5271 64.2946 40.6637 62.2957ZM52.4537 54.2917V29.4158C52.4537 26.4174 51.2171 24.9183 48.7439 24.9183C46.2708 24.9183 45.0342 26.4174 45.0342 29.4158V54.2917C45.0342 57.29 46.2708 58.7892 48.7439 58.7892C51.2171 58.7892 52.4537 57.29 52.4537 54.2917Z" fill="white"/>
<path d="M64.464 32.2702C63.8541 31.618 63.5577 30.6863 63.5577 29.4751V23.5801C63.5577 22.3689 63.8626 21.4372 64.464 20.7851C65.0738 20.1329 65.9547 19.811 67.1235 19.811C68.2923 19.811 69.1817 20.1329 69.783 20.7851C70.3929 21.4372 70.6893 22.3689 70.6893 23.5801V29.4751C70.6893 30.6863 70.3844 31.618 69.783 32.2702C69.1732 32.9224 68.2923 33.2442 67.1235 33.2442C65.9547 33.2442 65.0653 32.9224 64.464 32.2702ZM68.3432 29.6445V23.4107C68.3432 22.4197 67.9366 21.9285 67.132 21.9285C66.3273 21.9285 65.9208 22.4197 65.9208 23.4107V29.6445C65.9208 30.6355 66.3273 31.1267 67.132 31.1267C67.9366 31.1267 68.3432 30.6355 68.3432 29.6445ZM75.6865 20.1414H78.0496L68.9191 43.7299H66.5645L75.695 20.1414H75.6865ZM74.8141 43.0946C74.2043 42.4425 73.9078 41.5108 73.9078 40.2996V34.4046C73.9078 33.1934 74.2128 32.2617 74.8141 31.6095C75.4239 30.9573 76.3048 30.6355 77.4737 30.6355C78.6425 30.6355 79.5318 30.9573 80.1332 31.6095C80.743 32.2617 81.0395 33.1934 81.0395 34.4046V40.2996C81.0395 41.5108 80.7345 42.4425 80.1332 43.0946C79.5234 43.7468 78.6425 44.0687 77.4737 44.0687C76.3048 44.0687 75.4155 43.7468 74.8141 43.0946ZM78.6848 40.4605V34.2267C78.6848 33.2357 78.2783 32.7445 77.4737 32.7445C76.669 32.7445 76.2625 33.2357 76.2625 34.2267V40.4605C76.2625 41.4515 76.669 41.9427 77.4737 41.9427C78.2783 41.9427 78.6848 41.4515 78.6848 40.4605Z" fill="white"/>
<path d="M62.5328 63.0072C61.9315 62.3635 61.635 61.4657 61.635 60.2969V52.6147C61.635 51.4459 61.9315 50.5396 62.5328 49.9044C63.1342 49.2606 63.9897 48.9473 65.1161 48.9473C66.2426 48.9473 67.1066 49.2691 67.7079 49.9044C68.3093 50.5481 68.6057 51.4459 68.6057 52.6147V60.2969C68.6057 61.4657 68.3093 62.372 67.7079 63.0072C67.1066 63.6509 66.2511 63.9643 65.1161 63.9643C63.9812 63.9643 63.1257 63.6424 62.5328 63.0072ZM66.3104 60.4408V52.4707C66.3104 51.5136 65.9123 51.0308 65.1246 51.0308C64.3369 51.0308 63.9388 51.5136 63.9388 52.4707V60.4408C63.9388 61.3979 64.3369 61.8807 65.1246 61.8807C65.9123 61.8807 66.3104 61.3979 66.3104 60.4408Z" fill="white"/>
<path d="M70.1557 49.1507H76.2286V51.2343H72.451V55.2998H75.4155V57.3834H72.451V63.7443H70.1557V49.1338V49.1507Z" fill="white"/>
<path d="M77.3297 49.1507H83.4025V51.2343H79.625V55.2998H82.5894V57.3834H79.625V63.7443H77.3297V49.1338V49.1507Z" fill="white"/>
</g>
<defs>
<clipPath id="clip0_268_699">
<rect width="95.3789" height="95.3789" fill="white"/>
</clipPath>
</defs>
</svg>
