<svg width="96" height="96" viewBox="0 0 96 96" fill="none" xmlns="http://www.w3.org/2000/svg">
<g clip-path="url(#clip0_171_699)">
<path d="M90.0952 48.2039C86.8558 47.3824 86.5742 42.8919 89.6863 41.6732C93.3414 40.2391 92.1263 34.7824 88.2031 35.0444C84.869 35.262 83.2092 31.082 85.7921 28.9578C88.827 26.4675 85.9824 21.651 82.335 23.1136C79.2302 24.355 76.3634 20.8863 78.1642 18.0704C80.2811 14.7637 76.0876 11.0625 73.0662 13.5809C70.5017 15.7214 66.694 13.3064 67.5393 10.077C68.5329 6.275 63.3975 4.05697 61.3049 7.37943C59.5222 10.2058 55.1607 9.08625 54.9661 5.75063C54.7335 1.83141 49.1686 1.30107 48.2046 5.11273C47.3832 8.35219 42.8927 8.63377 41.674 5.5217C40.2399 1.8666 34.7832 3.0817 35.0452 7.00482C35.2628 10.3389 31.0828 11.9987 28.9586 9.41584C26.4683 6.38099 21.6518 9.22554 23.1144 12.873C24.3558 15.9778 20.8871 18.8446 18.0712 17.0438C14.7645 14.9269 11.0633 19.1204 13.5817 22.1418C15.7222 24.7062 13.3072 28.514 10.0778 27.6687C6.2758 26.675 4.05777 31.8104 7.38023 33.9031C10.2066 35.6858 9.08704 40.0473 5.75143 40.2418C1.8322 40.4745 1.30187 46.0393 5.11352 47.0033C8.35299 47.8247 8.63456 52.3153 5.52249 53.534C1.8674 54.968 3.0825 60.4247 7.00562 60.1628C10.3397 59.9451 11.9995 64.1251 9.41663 66.2494C6.38178 68.7397 9.22634 73.5561 12.8738 72.0936C15.9785 70.8521 18.8454 74.3208 17.0446 77.1368C14.9277 80.4434 19.1212 84.1447 22.1426 81.6262C24.707 79.4858 28.5148 81.9008 27.6695 85.1302C26.6758 88.9322 31.8112 91.1502 33.9039 87.8277C35.6866 85.0014 40.0481 86.1209 40.2426 89.4565C40.4753 93.3758 46.0401 93.9061 47.0041 90.0944C47.8255 86.855 52.3161 86.5734 53.5348 89.6855C54.9688 93.3406 60.4255 92.1255 60.1636 88.2024C59.9459 84.8682 64.1259 83.2084 66.2502 85.7913C68.7405 88.8262 73.5569 85.9816 72.0944 82.3342C70.8529 79.2294 74.3216 76.3626 77.1376 78.1634C80.4442 80.2803 84.1455 76.0868 81.627 73.0654C79.4866 70.5009 81.9016 66.6932 85.131 67.5385C88.933 68.5321 91.151 63.3967 87.8285 61.3041C85.0021 59.5214 86.1217 55.1599 89.4573 54.9653C93.3766 54.7327 93.9069 49.1678 90.0952 48.2039Z" fill="#FF0000"/>
<path d="M75.2372 71.8487C88.6288 56.5862 87.1123 33.3575 71.8498 19.9658C56.5874 6.57417 33.3586 8.09075 19.967 23.3532C6.57532 38.6156 8.09189 61.8444 23.3543 75.236C38.6168 88.6277 61.8455 87.1111 75.2372 71.8487Z" stroke="white" stroke-width="0.579065" stroke-linecap="round" stroke-linejoin="round" stroke-dasharray="1.74 1.74"/>
<path d="M27.8421 62.5339C28.0032 65.0013 29.1472 65.8144 30.8692 65.702C32.5911 65.5896 33.6194 64.6288 33.4586 62.1672L32.9629 54.5745C32.8018 52.1071 31.6544 51.242 29.9324 51.3544C28.2105 51.4668 27.1853 52.4738 27.3464 54.9412L27.4139 55.9755L22.2885 56.3101L21.9698 36.2294L36.2654 35.2961L36.5872 40.225L27.1685 40.84L27.2612 49.1031C28.1429 47.4091 29.6626 46.4221 31.8295 46.2806C35.8224 46.0199 38.0281 48.6961 38.3597 53.7753L38.8619 61.4663C39.2225 66.9904 36.6665 70.3257 31.3446 70.6731C26.0228 71.0206 23.0547 68.0459 22.6941 62.5218L22.5073 59.6616L27.6327 59.3269L27.8421 62.5339Z" fill="white"/>
<path d="M48.5188 34.1016C53.8464 33.7537 56.9589 36.7189 57.3196 42.243L58.4914 60.1906C58.852 65.7147 56.1515 69.0594 50.8239 69.4072C45.4962 69.7551 42.3837 66.7899 42.0231 61.2658L40.8513 43.3182C40.4907 37.7941 43.1912 34.4494 48.5188 34.1016ZM50.5017 64.4725C52.2294 64.3597 53.2488 63.3531 53.0878 60.8857L51.8711 42.2506C51.71 39.7832 50.5626 38.9181 48.8406 39.0305C47.1187 39.1429 46.0935 40.1499 46.2545 42.6173L47.4712 61.2524C47.6323 63.7198 48.7797 64.585 50.5017 64.4725Z" fill="white"/>
<path d="M62.0995 34.3054C63.8619 34.1903 64.8706 35.1516 64.9905 36.9891L65.3738 42.8599C65.4938 44.6974 64.6187 45.7817 62.8563 45.8967C61.0939 46.0118 60.0853 45.0505 59.9653 43.213L59.582 37.3422C59.462 35.5047 60.3371 34.4204 62.0995 34.3054ZM62.7507 44.2788C63.3112 44.2422 63.6479 43.8895 63.5962 43.0978L63.1964 36.9728C63.1447 36.1811 62.7649 35.8752 62.2044 35.9118C61.6439 35.9484 61.3072 36.3011 61.3588 37.0927L61.7587 43.2178C61.8104 44.0094 62.1613 44.3173 62.7507 44.2788ZM70.81 33.8643L64.9323 52.1851L63.2739 52.2934L69.1516 33.9726L70.81 33.8643ZM71.3783 40.2569C73.1406 40.1419 74.1493 41.1032 74.2693 42.9407L74.6526 48.8115C74.7725 50.649 73.8974 51.7332 72.135 51.8483C70.3726 51.9634 69.364 51.0021 69.244 49.1646L68.8607 43.2938C68.7408 41.4563 69.6159 40.372 71.3783 40.2569ZM72.0298 50.2361C72.5903 50.1996 72.927 49.8468 72.8754 49.0552L72.4755 42.9301C72.4238 42.1385 72.044 41.8325 71.4835 41.8691C70.923 41.9057 70.5863 42.2585 70.6379 43.0501L71.0378 49.1751C71.0895 49.9668 71.4404 50.2746 72.0298 50.2361Z" fill="white"/>
<path d="M62.5221 56.3349C64.2267 56.2236 65.2288 57.1737 65.3442 58.9419L65.7196 64.6913C65.835 66.4595 64.9707 67.5315 63.2603 67.6431C61.55 67.7548 60.5536 66.8043 60.4382 65.0362L60.0628 59.2867C59.9474 57.5185 60.8117 56.4466 62.5221 56.3349ZM63.1574 66.0657C63.7121 66.0294 64.0392 65.7063 63.9875 64.9147L63.5974 58.9399C63.5457 58.1482 63.1794 57.8704 62.6247 57.9066C62.0699 57.9428 61.7429 58.266 61.7945 59.0576L62.1846 65.0324C62.2363 65.824 62.6026 66.1019 63.1574 66.0657Z" fill="white"/>
<path d="M70.5941 60.8679L70.6971 62.4454L68.4551 62.5918L68.7531 67.1566L67.0138 67.2702L66.2917 56.2104L70.8913 55.9102L70.9943 57.4876L68.134 57.6744L68.3517 61.0085L70.5937 60.8621L70.5941 60.8679Z" fill="white"/>
<path d="M76.0313 60.5129L76.1343 62.0904L73.8923 62.2368L74.1904 66.8017L72.4511 66.9152L71.729 55.8555L76.3286 55.5552L76.4316 57.1327L73.5713 57.3194L73.789 60.6535L76.031 60.5071L76.0313 60.5129Z" fill="white"/>
<path d="M34.299 27.486L34.0881 24.2559L35.3074 24.1763L35.5152 27.3601C35.5726 28.2384 36.1796 28.8255 36.9712 28.7738C37.7629 28.7222 38.2826 28.0615 38.2253 27.1832L38.0174 23.9993L39.2424 23.9193L39.4533 27.1494C39.5514 28.6518 38.5514 29.779 37.0433 29.8775C35.5351 29.976 34.3967 28.9825 34.299 27.486Z" fill="white"/>
<path d="M40.3516 23.8413L42.9114 23.6742C44.1479 23.5934 45.1072 24.3316 45.1808 25.4584C45.2543 26.5852 44.3934 27.4422 43.1626 27.5226L41.822 27.6101L41.9428 29.4592L40.7235 29.5388L40.3519 23.8471L40.3516 23.8413ZM42.9565 26.4102C43.5633 26.3706 43.9528 26.026 43.9211 25.5407C43.8894 25.0553 43.4526 24.7646 42.8517 24.8039L41.644 24.8827L41.7489 26.4891L42.9565 26.4102Z" fill="white"/>
<path d="M49.6805 24.3404L47.9065 24.4562L47.8345 23.3525L52.6074 23.0409L52.6794 24.1446L50.9055 24.2604L51.2054 28.8542L49.9804 28.9342L49.6805 24.3404Z" fill="white"/>
<path d="M53.1107 25.8631C53.0062 24.2625 54.3113 22.831 55.9466 22.7242C57.5818 22.6174 59.0619 23.8671 59.1664 25.4677C59.2709 27.0683 57.984 28.5102 56.3314 28.6181C54.6788 28.726 53.2152 27.4637 53.1107 25.8631ZM57.9068 25.5499C57.8422 24.5618 56.9724 23.7714 56.0132 23.834C55.054 23.8966 54.3059 24.7927 54.3704 25.7808C54.4349 26.7689 55.3051 27.5651 56.2528 27.5033C57.2004 27.4414 57.9716 26.5438 57.9068 25.5499Z" fill="white"/>
</g>
<defs>
<clipPath id="clip0_171_699">
<rect width="89.5523" height="89.5523" fill="white" transform="translate(0 5.83447) rotate(-3.73545)"/>
</clipPath>
</defs>
</svg>
