<svg width="351" height="505" viewBox="0 0 351 505" fill="none" xmlns="http://www.w3.org/2000/svg">
<g clip-path="url(#clip0_165_632)">
<path d="M141.563 87.2683C141.563 87.2683 153.509 68.7813 176.625 83.4561" stroke="white" stroke-width="4.65596" stroke-linecap="round" stroke-linejoin="round"/>
<path d="M278.271 72.4045L35.7276 98.7753C20.2215 100.461 8.91787 114.523 10.6038 130.029L48.2299 476.092C49.9158 491.598 63.9773 502.902 79.4834 501.216L322.026 474.845C337.533 473.159 348.836 459.098 347.15 443.592L309.524 97.5284C307.838 82.0223 293.777 70.7186 278.271 72.4045ZM162.922 140.07C155.702 140.855 149.21 135.636 148.425 128.415C147.64 121.194 152.858 114.703 160.079 113.917C167.3 113.132 173.792 118.351 174.577 125.572C175.362 132.793 170.143 139.284 162.922 140.07Z" fill="#CA0B0B"/>
<path d="M280.453 91.1819L37.6319 117.583C32.5192 118.139 28.8251 122.734 29.381 127.847L67.0373 474.188C67.5932 479.301 72.1885 482.995 77.3012 482.439L320.122 456.038C325.235 455.482 328.929 450.887 328.373 445.774L290.717 99.4328C290.161 94.3201 285.565 90.626 280.453 91.1819Z" stroke="white" stroke-width="2.32798" stroke-linecap="round" stroke-linejoin="round" stroke-dasharray="6.98 6.98"/>
<path d="M160.077 113.894C152.856 114.679 147.638 121.171 148.423 128.392C149.208 135.613 155.7 140.831 162.92 140.046C170.141 139.261 175.36 132.769 174.575 125.549C173.79 118.328 167.298 113.109 160.077 113.894ZM162.473 135.927C157.543 136.463 153.104 132.894 152.568 127.965C152.032 123.035 155.6 118.596 160.53 118.06C165.459 117.524 169.899 121.093 170.435 126.022C170.971 130.952 167.402 135.391 162.473 135.927Z" fill="#990006"/>
<path d="M114.04 174.61L112.634 161.672L117.517 161.141L118.903 173.893C119.286 177.411 121.826 179.664 124.996 179.319C128.167 178.975 130.14 176.231 129.758 172.713L128.371 159.961L133.277 159.428L134.684 172.365C135.338 178.382 131.517 183.083 125.477 183.74C119.436 184.397 114.692 180.604 114.04 174.61Z" fill="white"/>
<path d="M137.744 158.942L147.996 157.827C152.949 157.289 156.93 160.088 157.42 164.601C157.911 169.114 154.602 172.705 149.672 173.241L144.303 173.825L145.108 181.231L140.225 181.762L137.746 158.965L137.744 158.942ZM148.652 168.809C151.082 168.545 152.587 167.093 152.375 165.149C152.164 163.205 150.359 162.113 147.952 162.375L143.115 162.901L143.815 169.335L148.652 168.809Z" fill="white"/>
<path d="M175.277 159.334L168.172 160.106L167.692 155.686L186.808 153.608L187.289 158.028L180.184 158.801L182.184 177.2L177.278 177.733L175.277 159.334Z" fill="white"/>
<path d="M189.319 164.856C188.622 158.445 193.616 152.469 200.165 151.757C206.715 151.045 212.876 155.808 213.573 162.219C214.27 168.63 209.351 174.644 202.732 175.364C196.113 176.083 190.016 171.267 189.319 164.856ZM208.528 162.767C208.098 158.81 204.467 155.786 200.625 156.203C196.783 156.621 193.934 160.35 194.364 164.307C194.794 168.265 198.428 171.312 202.223 170.899C206.019 170.487 208.961 166.748 208.528 162.767Z" fill="white"/>
<path d="M97.8985 322.51C98.9729 332.392 103.709 335.46 110.606 334.71C117.502 333.96 121.466 329.923 120.394 320.064L117.087 289.654C116.013 279.772 111.254 276.495 104.358 277.245C97.4609 277.995 93.5176 282.217 94.5921 292.1L95.0425 296.242L74.5143 298.474L69.7554 217.875L127.012 211.65L129.159 231.391L91.4348 235.493L93.2385 268.666C96.4864 261.709 102.42 257.481 111.098 256.538C127.09 254.799 136.414 265.166 138.625 285.509L141.975 316.313C144.38 338.438 134.691 352.277 113.376 354.595C92.0613 356.912 79.6249 345.479 77.2193 323.353L75.9737 311.897L96.5019 309.665L97.8985 322.51Z" fill="white"/>
<path d="M176.018 204.706C197.356 202.386 210.371 213.756 212.777 235.882L220.593 307.765C222.998 329.89 212.731 343.792 191.393 346.112C170.055 348.432 157.039 337.062 154.634 314.936L146.818 243.053C144.413 220.928 154.68 207.026 176.018 204.706ZM189.246 326.371C196.166 325.618 200.086 321.399 199.012 311.516L190.897 236.879C189.822 226.997 185.064 223.72 178.167 224.47C171.27 225.22 167.327 229.442 168.401 239.325L176.517 313.962C177.591 323.844 182.35 327.121 189.246 326.371Z" fill="white"/>
<path d="M230.601 203.174C237.66 202.406 241.877 206.092 242.677 213.452L245.234 236.966C246.034 244.325 242.707 248.832 235.648 249.599C228.59 250.367 224.372 246.681 223.572 239.321L221.015 215.807C220.215 208.448 223.542 203.941 230.601 203.174ZM234.946 243.142C237.191 242.898 238.483 241.423 238.138 238.252L235.471 213.72C235.126 210.55 233.548 209.387 231.303 209.631C229.058 209.875 227.766 211.35 228.111 214.521L230.778 239.053C231.123 242.223 232.586 243.399 234.946 243.142ZM265.487 199.896L245.053 274.499L238.411 275.222L258.845 200.618L265.487 199.896ZM268.902 225.494C275.961 224.726 280.179 228.413 280.979 235.772L283.536 259.286C284.336 266.646 281.009 271.152 273.95 271.92C266.891 272.687 262.674 269.001 261.873 261.641L259.317 238.128C258.517 230.768 261.844 226.261 268.902 225.494ZM273.246 265.439C275.49 265.195 276.782 263.72 276.437 260.55L273.77 236.018C273.425 232.847 271.847 231.684 269.602 231.928C267.357 232.172 266.066 233.647 266.41 236.818L269.078 261.35C269.422 264.52 270.885 265.696 273.246 265.439Z" fill="white"/>
<path d="M236.115 291.582C242.942 290.84 247.132 294.482 247.902 301.564L250.406 324.592C251.176 331.674 247.89 336.129 241.039 336.874C234.189 337.619 230.022 333.974 229.252 326.892L226.749 303.864C225.979 296.782 229.265 292.327 236.115 291.582ZM240.355 330.579C242.577 330.337 243.834 328.983 243.49 325.812L240.888 301.882C240.543 298.711 239.024 297.659 236.802 297.9C234.58 298.142 233.322 299.496 233.667 302.667L236.269 326.597C236.614 329.768 238.133 330.82 240.355 330.579Z" fill="white"/>
<path d="M269.324 308.415L270.011 314.733L261.031 315.709L263.019 333.992L256.053 334.75L251.236 290.453L269.659 288.45L270.346 294.768L258.89 296.014L260.341 309.368L269.321 308.391L269.324 308.415Z" fill="white"/>
<path d="M291.079 306.049L291.766 312.367L282.786 313.344L284.774 331.627L277.808 332.384L272.992 288.088L291.414 286.085L292.101 292.403L280.645 293.649L282.097 307.002L291.076 306.026L291.079 306.049Z" fill="white"/>
<path d="M339.659 375.303L40.8044 407.796L46.5491 460.633L345.404 428.139L339.659 375.303Z" fill="#1C1C1C"/>
<path d="M86.0187 437.656L85.3912 431.911L79.7129 432.532L79.4532 430.155L85.1315 429.534L84.504 423.79L87.013 423.516L87.6405 429.26L93.3188 428.64L93.5785 431.017L87.9002 431.637L88.5277 437.382L86.0187 437.656ZM119.255 439.224C117.266 439.441 115.471 439.277 113.871 438.731C112.27 438.185 110.968 437.296 109.963 436.064C108.959 434.831 108.355 433.282 108.151 431.415L108.038 430.384L112.827 429.861L112.94 430.892C113.109 432.439 113.715 433.554 114.759 434.235C115.8 434.892 117.143 435.13 118.789 434.95C120.459 434.768 121.663 434.301 122.401 433.549C123.163 432.795 123.488 431.902 123.376 430.871C123.298 430.158 123.038 429.603 122.597 429.203C122.156 428.804 121.54 428.511 120.749 428.324C119.955 428.113 118.993 427.945 117.861 427.82L116.993 427.728C115.182 427.528 113.605 427.203 112.264 426.753C110.944 426.276 109.887 425.584 109.092 424.677C108.322 423.767 107.851 422.526 107.679 420.954C107.507 419.382 107.729 418.004 108.345 416.818C108.983 415.605 109.946 414.63 111.232 413.893C112.54 413.129 114.115 412.646 115.957 412.445C117.799 412.244 119.467 412.384 120.962 412.867C122.478 413.323 123.709 414.133 124.657 415.297C125.626 416.434 126.212 417.935 126.416 419.802L126.537 420.907L121.748 421.43L121.627 420.325C121.52 419.343 121.238 418.578 120.78 418.032C120.345 417.458 119.756 417.075 119.014 416.883C118.27 416.666 117.407 416.611 116.424 416.718C114.951 416.879 113.888 417.281 113.238 417.924C112.609 418.539 112.347 419.326 112.452 420.284C112.522 420.922 112.74 421.445 113.108 421.852C113.5 422.257 114.044 422.57 114.739 422.792C115.434 423.015 116.31 423.18 117.366 423.288L118.233 423.38C120.118 423.572 121.769 423.901 123.187 424.367C124.605 424.834 125.737 425.53 126.584 426.457C127.455 427.38 127.977 428.628 128.149 430.2C128.32 431.772 128.067 433.204 127.388 434.496C126.731 435.76 125.703 436.817 124.304 437.666C122.928 438.487 121.245 439.007 119.255 439.224ZM117.419 443.227L113.668 408.892L118.089 408.41L121.839 442.744L117.419 443.227ZM140.398 436.392L137.96 414.067L137.296 414.14L134.727 422.697L129.79 423.236L133.787 411.019L142.297 410.089L145.114 435.877L140.398 436.392ZM160.28 434.742C157.234 435.075 154.699 434.507 152.675 433.038C150.648 431.545 149.448 429.091 149.075 425.677L148.367 419.194C148.005 415.878 148.651 413.26 150.305 411.34C151.956 409.395 154.305 408.256 157.35 407.923C160.42 407.588 162.959 408.193 164.967 409.738C166.997 411.256 168.193 413.673 168.555 416.988L169.263 423.472C169.636 426.886 168.994 429.541 167.337 431.436C165.702 433.305 163.35 434.407 160.28 434.742ZM159.821 430.543C161.663 430.341 162.959 429.69 163.708 428.59C164.483 427.486 164.768 426.001 164.564 424.134L163.815 417.282C163.609 415.391 162.962 414.02 161.875 413.17C160.81 412.292 159.454 411.943 157.809 412.123C156.114 412.308 154.843 412.956 153.995 414.068C153.172 415.177 152.86 416.64 153.058 418.457L153.807 425.31C154.019 427.25 154.62 428.663 155.612 429.549C156.625 430.407 158.028 430.738 159.821 430.543ZM184.905 432.052C181.859 432.385 179.324 431.817 177.3 430.348C175.273 428.855 174.073 426.401 173.7 422.987L172.992 416.503C172.63 413.188 173.276 410.57 174.93 408.65C176.581 406.705 178.93 405.566 181.975 405.233C185.045 404.898 187.584 405.503 189.592 407.048C191.622 408.566 192.818 410.983 193.18 414.298L193.888 420.782C194.261 424.196 193.619 426.851 191.962 428.746C190.327 430.615 187.975 431.717 184.905 432.052ZM184.446 427.853C186.288 427.651 187.584 427 188.333 425.9C189.108 424.796 189.393 423.311 189.189 421.444L188.44 414.592C188.234 412.701 187.587 411.33 186.5 410.48C185.435 409.602 184.079 409.253 182.434 409.433C180.739 409.618 179.468 410.266 178.62 411.378C177.797 412.487 177.485 413.95 177.683 415.767L178.432 422.62C178.644 424.56 179.245 425.973 180.237 426.859C181.25 427.717 182.653 428.048 184.446 427.853ZM208.228 428.983L207.958 426.507L211.193 426.153L209.21 407.996L205.974 408.349L205.704 405.873L217.292 404.607C218.634 404.461 219.849 404.573 220.936 404.944C222.046 405.313 222.935 405.906 223.603 406.724C224.291 407.518 224.699 408.498 224.826 409.664L224.855 409.928C224.973 411.007 224.861 411.921 224.52 412.671C224.176 413.399 223.74 413.992 223.211 414.451C222.68 414.887 222.148 415.224 221.617 415.46L221.668 415.922C222.232 415.994 222.834 416.196 223.471 416.527C224.106 416.836 224.66 417.321 225.133 417.982C225.629 418.641 225.935 419.509 226.053 420.588L226.089 420.918C226.226 422.172 226.037 423.296 225.521 424.287C225.026 425.255 224.276 426.038 223.273 426.638C222.289 427.213 221.126 427.574 219.783 427.72L208.228 428.983ZM213.963 425.817L219.212 425.244C220.664 425.085 221.739 424.623 222.434 423.856C223.13 423.09 223.414 422.123 223.287 420.957L223.254 420.66C223.127 419.493 222.641 418.611 221.796 418.013C220.951 417.415 219.802 417.195 218.35 417.354L213.101 417.927L213.963 425.817ZM212.827 415.418L218.175 414.834C219.495 414.69 220.516 414.244 221.236 413.497C221.954 412.728 222.252 411.794 222.132 410.693L222.096 410.363C221.974 409.241 221.48 408.393 220.616 407.819C219.771 407.221 218.677 406.995 217.335 407.142L211.986 407.726L212.827 415.418ZM239.415 426.043C237.786 426.221 236.307 426.038 234.978 425.492C233.671 424.945 232.598 424.093 231.759 422.938C230.94 421.758 230.438 420.32 230.253 418.626L230.206 418.197C230.023 416.524 230.204 415.023 230.75 413.694C231.317 412.363 232.179 411.288 233.337 410.471C234.517 409.652 235.922 409.153 237.55 408.976C239.179 408.798 240.647 408.983 241.954 409.53C243.283 410.075 244.357 410.938 245.176 412.118C246.018 413.296 246.53 414.721 246.712 416.393L246.759 416.823C246.944 418.517 246.753 420.03 246.186 421.362C245.638 422.669 244.775 423.732 243.595 424.551C242.437 425.368 241.043 425.866 239.415 426.043ZM239.159 423.7C240.875 423.512 242.181 422.824 243.076 421.635C243.99 420.421 244.346 418.89 244.144 417.041L244.112 416.744C243.91 414.896 243.233 413.488 242.08 412.523C240.948 411.533 239.523 411.132 237.806 411.32C236.112 411.505 234.807 412.204 233.893 413.417C232.976 414.609 232.619 416.129 232.821 417.978L232.853 418.275C233.055 420.124 233.734 421.542 234.888 422.529C236.041 423.495 237.464 423.885 239.159 423.7ZM252.971 424.095L251.208 407.951L253.75 407.674L254.049 410.414L254.511 410.363C254.779 409.555 255.298 408.796 256.067 408.089C256.855 407.357 258.075 406.901 259.726 406.72C260.936 406.588 262.042 406.723 263.044 407.126C264.068 407.526 264.92 408.191 265.6 409.119C266.281 410.046 266.7 411.237 266.859 412.689L267.926 422.461L265.318 422.746L264.272 413.172C264.097 411.566 263.562 410.444 262.669 409.806C261.797 409.167 260.679 408.921 259.314 409.07C257.752 409.241 256.53 409.887 255.651 411.007C254.793 412.125 254.473 413.686 254.692 415.689L255.579 423.81L252.971 424.095ZM279.826 421.462C278.659 421.589 277.553 421.454 276.508 421.056C275.484 420.656 274.632 419.991 273.952 419.064C273.291 418.111 272.882 416.92 272.726 415.489L271.658 405.717L274.266 405.432L275.312 415.006C275.488 416.613 276.011 417.736 276.883 418.376C277.777 419.013 278.906 419.257 280.27 419.108C281.811 418.94 283.021 418.296 283.901 417.175C284.781 416.054 285.111 414.493 284.893 412.49L284.005 404.369L286.613 404.084L288.377 420.227L285.835 420.505L285.536 417.765L285.073 417.815C284.805 418.624 284.277 419.394 283.488 420.126C282.697 420.836 281.477 421.282 279.826 421.462ZM301.049 419.311C299.046 419.529 297.301 419.252 295.813 418.479C294.348 417.704 293.362 416.331 292.857 414.359L295.272 413.527C295.564 414.565 295.985 415.365 296.537 415.928C297.086 416.47 297.727 416.834 298.46 417.021C299.213 417.184 299.996 417.221 300.811 417.132C302.021 417 302.952 416.653 303.603 416.092C304.255 415.531 304.536 414.843 304.447 414.029C304.356 413.192 303.951 412.646 303.232 412.391C302.534 412.111 301.589 411.924 300.399 411.832L299.02 411.748C297.966 411.685 296.99 411.514 296.091 411.233C295.191 410.953 294.454 410.521 293.878 409.938C293.302 409.355 292.961 408.58 292.855 407.611C292.697 406.159 293.134 404.964 294.167 404.027C295.201 403.09 296.642 402.52 298.491 402.318C300.318 402.119 301.838 402.376 303.052 403.09C304.285 403.779 305.149 404.854 305.642 406.314L303.268 407.209C302.942 406.064 302.38 405.301 301.581 404.921C300.78 404.518 299.829 404.377 298.729 404.497C297.628 404.618 296.782 404.922 296.189 405.41C295.594 405.875 295.34 406.504 295.427 407.297C295.511 408.067 295.87 408.607 296.506 408.916C297.16 409.201 298.003 409.376 299.035 409.442L300.414 409.525C301.58 409.598 302.633 409.761 303.574 410.015C304.535 410.244 305.314 410.649 305.912 411.229C306.532 411.807 306.898 412.614 307.011 413.648C307.184 415.233 306.724 416.519 305.629 417.507C304.556 418.493 303.029 419.094 301.049 419.311Z" fill="url(#paint0_linear_165_632)"/>
<path d="M157.351 373.031C156.256 373.17 155.218 373.121 154.236 372.883C153.267 372.644 152.399 372.245 151.631 371.685C150.876 371.124 150.252 370.433 149.759 369.61C149.279 368.787 148.974 367.86 148.844 366.831C148.713 365.802 148.777 364.829 149.036 363.911C149.308 362.992 149.746 362.165 150.351 361.432C150.955 360.698 151.696 360.095 152.574 359.622C153.453 359.148 154.433 358.843 155.514 358.706C156.609 358.567 157.635 358.618 158.59 358.859C159.559 359.098 160.421 359.498 161.176 360.059C161.944 360.618 162.574 361.309 163.067 362.131C163.559 362.94 163.87 363.866 164.003 364.908C164.133 365.937 164.063 366.918 163.793 367.851C163.52 368.77 163.082 369.596 162.478 370.33C161.886 371.048 161.15 371.644 160.272 372.118C159.407 372.589 158.433 372.894 157.351 373.031ZM156.985 370.303C157.605 370.224 158.159 370.046 158.647 369.77C159.148 369.492 159.571 369.13 159.917 368.684C160.262 368.238 160.507 367.731 160.649 367.164C160.805 366.594 160.841 365.98 160.757 365.32C160.673 364.66 160.485 364.074 160.192 363.562C159.913 363.048 159.55 362.618 159.104 362.272C158.671 361.925 158.177 361.679 157.623 361.535C157.068 361.391 156.481 361.358 155.861 361.437C155.241 361.515 154.68 361.694 154.179 361.972C153.692 362.248 153.275 362.609 152.929 363.055C152.584 363.501 152.333 364.009 152.177 364.578C152.035 365.146 152.005 365.76 152.089 366.419C152.171 367.066 152.353 367.653 152.634 368.18C152.927 368.693 153.29 369.122 153.723 369.47C154.169 369.815 154.669 370.06 155.223 370.204C155.778 370.348 156.365 370.381 156.985 370.303ZM167.686 371.479L165.929 357.626L168.581 357.29L178.019 366.227L176.733 366.39L175.468 356.416L178.634 356.015L180.391 369.868L177.759 370.201L168.301 361.266L169.588 361.103L170.853 371.077L167.686 371.479ZM188.244 368.872L192.662 354.236L195.828 353.834L203.78 366.901L200.415 367.328L193.798 355.74L195.064 355.58L191.53 368.455L188.244 368.872ZM190.955 365.512L191.497 362.969L198.622 362.066L199.801 364.39L190.955 365.512ZM205.613 366.669L203.856 352.816L207.062 352.409L208.487 363.65L215.433 362.769L215.765 365.381L205.613 366.669ZM217.952 365.104L216.195 351.251L219.401 350.844L220.827 362.085L227.773 361.204L228.104 363.816L217.952 365.104ZM236.292 362.778L234.535 348.925L240.531 348.164C241.771 348.007 242.866 348.076 243.815 348.371C244.762 348.653 245.527 349.139 246.111 349.829C246.695 350.52 247.052 351.386 247.185 352.428C247.315 353.457 247.184 354.379 246.791 355.192C246.398 356.006 245.779 356.675 244.934 357.198C244.087 357.707 243.044 358.041 241.803 358.198L237.588 358.732L238.83 357.107L239.497 362.371L236.292 362.778ZM238.875 357.463L237.257 356.12L241.294 355.608C242.284 355.483 242.996 355.178 243.43 354.694C243.865 354.21 244.034 353.592 243.939 352.84C243.842 352.074 243.523 351.512 242.981 351.151C242.439 350.791 241.674 350.674 240.684 350.799L236.647 351.311L237.879 349.607L238.875 357.463ZM250.989 360.914L249.232 347.061L252.438 346.654L253.863 357.895L260.81 357.014L261.141 359.626L250.989 360.914ZM261.585 359.57L266.002 344.934L269.168 344.532L277.12 357.6L273.755 358.026L267.138 346.439L268.405 346.278L264.87 359.153L261.585 359.57ZM264.295 356.21L264.838 353.668L271.962 352.764L273.141 355.088L264.295 356.21ZM278.953 357.367L277.196 343.514L279.848 343.178L289.286 352.115L287.999 352.278L286.734 342.304L289.901 341.903L291.658 355.756L289.026 356.09L279.568 347.155L280.854 346.991L282.119 356.965L278.953 357.367ZM299.913 354.95C298.805 355.091 297.724 355.08 296.672 354.919C295.617 354.744 294.75 354.459 294.069 354.062L294.852 351.51C295.499 351.857 296.243 352.118 297.082 352.293C297.934 352.453 298.775 352.48 299.606 352.375C300.24 352.294 300.74 352.171 301.108 352.003C301.487 351.821 301.754 351.606 301.911 351.359C302.067 351.111 302.127 350.842 302.09 350.552C302.043 350.182 301.861 349.91 301.544 349.736C301.225 349.549 300.82 349.419 300.328 349.347C299.835 349.263 299.291 349.198 298.695 349.152C298.111 349.092 297.517 349.007 296.913 348.896C296.322 348.783 295.771 348.612 295.259 348.382C294.748 348.152 294.31 347.818 293.946 347.382C293.596 346.944 293.374 346.355 293.28 345.617C293.179 344.825 293.299 344.079 293.64 343.379C293.991 342.664 294.572 342.061 295.381 341.57C296.201 341.063 297.265 340.728 298.571 340.562C299.441 340.451 300.312 340.448 301.184 340.552C302.053 340.643 302.837 340.852 303.535 341.179L302.854 343.739C302.161 343.451 301.48 343.263 300.812 343.173C300.142 343.07 299.497 343.058 298.877 343.137C298.257 343.216 297.758 343.353 297.381 343.548C297.004 343.743 296.744 343.971 296.603 344.23C296.46 344.476 296.407 344.751 296.446 345.054C296.491 345.41 296.673 345.682 296.992 345.87C297.309 346.044 297.713 346.167 298.205 346.239C298.696 346.31 299.234 346.376 299.818 346.436C300.416 346.494 301.009 346.573 301.598 346.673C302.2 346.771 302.757 346.935 303.269 347.165C303.781 347.395 304.212 347.729 304.562 348.167C304.926 348.603 305.154 349.185 305.246 349.91C305.345 350.689 305.217 351.429 304.864 352.13C304.51 352.832 303.924 353.436 303.103 353.942C302.296 354.447 301.232 354.783 299.913 354.95Z" fill="white"/>
<path d="M161.626 125.61C161.626 125.61 129.198 23.6258 156.788 22.3334C184.377 21.041 161.626 125.61 161.626 125.61Z" stroke="white" stroke-width="3.68264" stroke-linecap="round" stroke-linejoin="round"/>
</g>
<defs>
<linearGradient id="paint0_linear_165_632" x1="190.53" y1="404.761" x2="193.354" y2="430.607" gradientUnits="userSpaceOnUse">
<stop offset="0.15" stop-color="white"/>
<stop offset="1" stop-color="white" stop-opacity="0.64"/>
</linearGradient>
<clipPath id="clip0_165_632">
<rect width="300.682" height="474.538" fill="white" transform="translate(0 32.5004) rotate(-6.20516)"/>
</clipPath>
</defs>
</svg>
