<svg preserveAspectRatio="none" width="1029" height="392" viewBox="0 0 1029 392" fill="none" xmlns="http://www.w3.org/2000/svg">
<path d="M139.135 81.0352C146.313 50.6366 127.489 20.1748 97.0904 12.9968C66.6918 5.81882 36.23 24.6428 29.052 55.0415C21.8741 85.4401 40.6981 115.902 71.0967 123.08C101.495 130.258 131.957 111.434 139.135 81.0352Z" fill="#F2181E"/>
<path d="M950.866 294.248C975.472 294.248 995.42 274.301 995.42 249.694C995.42 225.088 975.472 205.141 950.866 205.141C926.26 205.141 906.313 225.088 906.313 249.694C906.313 274.301 926.26 294.248 950.866 294.248Z" fill="#F2181E"/>
<g opacity="0.01">
<path d="M70.6783 391.674C31.7771 391.674 0.230468 360.157 0.197937 321.251L2.67055e-05 86.8997C-0.0162386 68.2026 7.39806 50.262 20.6136 37.0328C33.8265 23.8037 51.7536 16.365 70.4533 16.3569L958.075 15.9448C958.083 15.9448 958.099 15.9448 958.107 15.9448C997.011 15.9448 1028.56 47.4616 1028.59 86.3683L1028.79 321.134C1028.82 360.062 997.293 391.647 958.365 391.68C958.343 391.68 958.321 391.68 958.305 391.68C919.401 391.682 887.854 360.163 887.822 321.256L887.684 156.946L141.029 157.296L141.167 321.134C141.199 360.062 109.672 391.647 70.7434 391.68C70.7217 391.674 70.7 391.674 70.6783 391.674Z" fill="#E6E6E6"/>
</g>
<g opacity="0.01">
<path d="M958.3 388.963C920.897 388.966 890.563 358.658 890.53 321.248L890.389 154.23L138.312 154.58L138.453 321.131C138.486 358.563 108.167 388.931 70.7407 388.961C70.7217 388.961 70.6973 388.961 70.6811 388.961C33.2789 388.961 2.94405 358.656 2.91152 321.245L2.7109 86.897C2.69464 68.9157 9.82429 51.669 22.5302 38.9495C35.2362 26.23 52.4747 19.076 70.4533 19.0678L958.075 18.6558C958.085 18.6558 958.099 18.6558 958.107 18.6558C995.515 18.6558 1025.85 48.9608 1025.88 86.3711L1026.08 321.137C1026.11 358.569 995.791 388.936 958.365 388.966C958.343 388.963 958.319 388.963 958.3 388.963Z" fill="#E6E6E6"/>
</g>
<g opacity="0.01">
<path d="M958.302 386.252C922.394 386.255 893.271 357.159 893.241 321.245L893.097 151.516L135.599 151.871L135.742 321.134C135.775 357.067 106.668 386.222 70.7379 386.252C70.719 386.252 70.6973 386.252 70.681 386.252C34.7726 386.252 5.65219 357.159 5.61966 321.245L5.42175 86.8941C5.40549 69.6338 12.2532 53.0757 24.4495 40.8659C36.6458 28.6506 53.1958 21.7866 70.456 21.7785L958.077 21.3665C958.085 21.3665 958.099 21.3665 958.107 21.3665C994.018 21.3665 1023.14 50.457 1023.17 86.3709L1023.37 321.137C1023.4 357.069 994.292 386.225 958.362 386.255C958.34 386.252 958.319 386.252 958.302 386.252Z" fill="#E6E6E6"/>
</g>
<g opacity="0.01">
<path d="M958.302 383.542C923.89 383.544 895.981 355.663 895.952 321.245L895.805 148.808L132.888 149.161L133.034 321.137C133.064 355.571 105.172 383.512 70.7379 383.542C70.7216 383.542 70.7 383.542 70.681 383.542C36.2717 383.542 8.36306 355.663 8.33324 321.245L8.13262 86.8917C8.11907 70.3498 14.6767 54.483 26.3661 42.7801C38.0554 31.0772 53.9141 24.4978 70.456 24.4897L958.077 24.0776C958.085 24.0776 958.099 24.0776 958.107 24.0776C992.522 24.0776 1020.43 51.9564 1020.46 86.3739L1020.66 321.137C1020.69 355.571 992.793 383.512 958.359 383.542C958.34 383.542 958.318 383.542 958.302 383.542Z" fill="#E6E6E6"/>
</g>
<g opacity="0.01">
<path d="M958.302 380.831C925.384 380.833 898.692 354.163 898.663 321.24L898.514 146.092L130.171 146.452L130.321 321.139C130.35 354.077 103.67 380.801 70.7325 380.831C70.7162 380.831 70.6972 380.831 70.681 380.831C37.7626 380.831 11.0685 354.163 11.0414 321.24L10.8435 86.8888C10.8299 71.068 17.1057 55.887 28.2854 44.6965C39.4651 33.5005 54.6352 27.2085 70.4587 27.2004L958.08 26.7883C958.088 26.7883 958.099 26.7883 958.107 26.7883C991.025 26.7883 1017.72 53.4553 1017.75 86.3764L1017.94 321.142C1017.97 354.079 991.294 380.803 958.356 380.833C958.337 380.83 958.318 380.831 958.302 380.831Z" fill="#E6E6E6"/>
</g>
<g opacity="0.01">
<path d="M958.302 378.12C926.88 378.123 901.401 352.665 901.373 321.24L901.222 143.384L127.458 143.745L127.61 321.145C127.637 352.586 102.171 378.096 70.7298 378.123C70.7135 378.123 70.6945 378.123 70.681 378.123C39.2591 378.123 13.7794 352.667 13.7523 321.243L13.5544 86.8863C13.5408 71.7867 19.5292 57.297 30.202 46.6106C40.8747 35.927 55.3536 29.9197 70.4587 29.9116L958.08 29.4995C958.088 29.4995 958.099 29.4995 958.107 29.4995C989.529 29.4995 1015.01 54.9575 1015.04 86.3794L1015.23 321.145C1015.26 352.586 989.795 378.096 958.354 378.123C958.335 378.12 958.316 378.12 958.302 378.12Z" fill="#E6E6E6"/>
</g>
<g opacity="0.0117">
<path d="M958.302 375.409C928.377 375.411 904.111 351.168 904.084 321.237L903.93 140.67L124.744 141.033L124.899 321.147C124.926 351.089 100.672 375.384 70.7271 375.411C70.7135 375.411 70.6945 375.411 70.681 375.411C40.7555 375.411 16.4903 351.171 16.4632 321.24L16.2653 86.8832C16.2517 72.4992 21.9581 58.7008 32.1213 48.5268C42.2844 38.3528 56.0747 32.6274 70.4614 32.622L958.08 32.21C958.088 32.21 958.099 32.21 958.107 32.21C988.033 32.21 1012.3 56.4534 1012.32 86.3817L1012.52 321.147C1012.55 351.089 988.293 375.384 958.351 375.411C958.335 375.409 958.316 375.409 958.302 375.409Z" fill="#E6E6E6"/>
</g>
<g opacity="0.0123">
<path d="M958.302 372.698C929.876 372.701 906.82 349.666 906.795 321.234L906.638 137.959L122.031 138.325L122.188 321.15C122.212 349.596 99.1726 372.676 70.7273 372.701C70.711 372.701 70.6947 372.701 70.6812 372.701C42.2548 372.701 19.1987 349.669 19.1743 321.237L18.9764 86.8808C18.9655 73.2179 24.3819 60.1107 34.0408 50.4437C43.697 40.7767 56.7987 35.3386 70.4616 35.3332L958.083 34.9211C958.091 34.9211 958.099 34.9211 958.107 34.9211C986.536 34.9211 1009.59 57.9529 1009.61 86.3847L1009.81 321.15C1009.84 349.596 986.796 372.676 958.351 372.701C958.332 372.698 958.316 372.698 958.302 372.698Z" fill="#E6E6E6"/>
</g>
<g opacity="0.0154">
<path d="M70.6812 369.987C43.7485 369.987 21.9096 348.167 21.8852 321.234L21.6872 86.8806C21.6764 73.9361 26.8108 61.5175 35.9574 52.3574C45.1039 43.1973 57.5171 38.0493 70.4616 38.0439L958.083 37.6318C958.091 37.6318 958.102 37.6318 958.107 37.6318C985.043 37.6318 1006.88 59.4518 1006.9 86.3845L1007.1 321.15C1007.13 348.099 985.295 369.965 958.348 369.99C958.335 369.99 958.319 369.99 958.305 369.99C931.372 369.992 909.533 348.17 909.509 321.237L909.352 135.251L119.323 135.617L119.48 321.153C119.504 348.102 97.6735 369.968 70.7272 369.992C70.711 369.987 70.6947 369.987 70.6812 369.987Z" fill="#E6E6E6"/>
</g>
<g opacity="0.0162">
<path d="M958.302 367.276C932.866 367.279 912.239 346.668 912.217 321.232L912.057 132.535L116.609 132.904L116.769 321.151C116.791 346.603 96.1744 367.255 70.7245 367.276C70.711 367.276 70.6947 367.276 70.6839 367.276C45.2476 367.276 24.6204 346.668 24.5988 321.232L24.3981 86.8782C24.3873 74.6521 29.2344 62.922 37.8767 54.2743C46.5163 45.6238 58.2382 40.7605 70.4643 40.7551L958.085 40.343C958.091 40.343 958.102 40.343 958.107 40.343C983.546 40.343 1004.17 60.9512 1004.19 86.3875L1004.39 321.153C1004.41 346.606 983.796 367.257 958.346 367.279C958.329 367.276 958.313 367.276 958.302 367.276Z" fill="#E6E6E6"/>
</g>
<g opacity="0.0195">
<path d="M958.302 364.565C934.362 364.565 914.949 345.171 914.928 321.229L914.765 129.824L113.895 130.193L114.058 321.153C114.08 345.109 94.675 364.543 70.7216 364.565C70.708 364.565 70.6945 364.565 70.6836 364.565C46.7438 364.565 27.3311 345.171 27.3094 321.229L27.1115 86.8779C27.1007 75.3702 31.6658 64.3342 39.7958 56.1907C47.9284 48.0499 58.959 43.4739 70.4641 43.4685L958.085 43.0564C958.093 43.0564 958.101 43.0564 958.107 43.0564C982.047 43.0564 1001.46 62.4501 1001.48 86.3927L1001.68 321.158C1001.7 345.115 982.299 364.549 958.343 364.571C958.327 364.565 958.313 364.565 958.302 364.565Z" fill="#E6E6E6"/>
</g>
<g opacity="0.0205">
<path d="M958.302 361.854C935.859 361.854 917.658 343.672 917.639 321.226L917.476 127.11L111.182 127.487L111.347 321.159C111.366 343.616 93.1761 361.838 70.719 361.857C70.7082 361.857 70.6946 361.857 70.6838 361.857C48.2403 361.857 30.0394 343.675 30.0205 321.229L29.8198 86.8726C29.8117 76.0859 34.0868 65.7358 41.7125 58.1046C49.3355 50.4735 59.6776 46.1821 70.4642 46.1767L958.086 45.7646C958.091 45.7646 958.099 45.7646 958.104 45.7646C980.548 45.7646 998.749 63.9466 998.768 86.3928L998.966 321.159C998.985 343.616 980.795 361.838 958.338 361.857C958.327 361.854 958.313 361.854 958.302 361.854Z" fill="#E6E6E6"/>
</g>
<g opacity="0.024">
<path d="M958.302 359.143C937.355 359.143 920.369 342.173 920.35 321.223L920.184 124.397L108.468 124.773L108.634 321.158C108.653 342.116 91.6742 359.124 70.7136 359.143C70.7027 359.143 70.6892 359.143 70.6811 359.143C49.7313 359.143 32.7476 342.173 32.7286 321.223L32.5307 86.8724C32.5226 76.8041 36.5157 67.1479 43.6291 60.0237C50.7452 52.8995 60.3987 48.8928 70.4642 48.8874L958.085 48.4753C958.091 48.4753 958.099 48.4753 958.104 48.4753C979.054 48.4753 996.038 65.4455 996.057 86.3953L996.255 321.161C996.274 342.119 979.295 359.127 958.335 359.146C958.324 359.143 958.313 359.143 958.302 359.143Z" fill="#E6E6E6"/>
</g>
<g opacity="0.0253">
<path d="M958.302 356.433C938.852 356.433 923.077 340.674 923.061 321.221L922.89 121.686L105.752 122.068L105.923 321.164C105.939 340.628 90.1724 356.419 70.7109 356.436C70.7028 356.436 70.6892 356.436 70.6811 356.436C51.2304 356.436 35.4558 340.677 35.4395 321.224L35.2416 86.8729C35.2335 77.5257 38.9393 68.5554 45.5484 61.9408C52.1549 55.3262 61.1171 51.6096 70.4669 51.6042L958.088 51.1921C958.093 51.1921 958.099 51.1921 958.104 51.1921C977.558 51.1921 993.33 66.9505 993.346 86.4039L993.544 321.17C993.56 340.634 977.794 356.425 958.332 356.441C958.324 356.433 958.31 356.433 958.302 356.433Z" fill="#E6E6E6"/>
</g>
<g opacity="0.0291">
<path d="M958.302 353.721C940.348 353.721 925.788 339.177 925.772 321.218L925.598 118.972L103.041 119.354L103.212 321.164C103.228 339.129 88.6759 353.705 70.7082 353.721C70.7 353.721 70.6892 353.721 70.6811 353.721C52.7268 353.721 38.1667 339.177 38.1504 321.218L37.9525 86.8668C37.9444 78.238 41.3682 69.959 47.465 63.8541C53.5645 57.7464 61.8381 54.3145 70.4669 54.309L958.088 53.897C958.093 53.897 958.099 53.897 958.104 53.897C976.059 53.897 990.619 68.4436 990.635 86.4005L990.833 321.166C990.849 339.131 976.297 353.708 958.329 353.724C958.321 353.721 958.31 353.721 958.302 353.721Z" fill="#E6E6E6"/>
</g>
<g opacity="0.0307">
<path d="M958.302 351.011C941.844 351.011 928.496 337.676 928.482 321.218L928.309 116.262L100.33 116.646L100.501 321.164C100.514 337.633 87.1741 350.997 70.7082 351.011C70.6973 351.011 70.6892 351.011 70.6811 351.011C54.2233 351.011 40.8748 337.676 40.8613 321.218L40.6634 86.8673C40.6552 78.9542 43.7918 71.3665 49.3843 65.7685C54.9742 60.1732 62.5592 57.0232 70.4696 57.0205L958.091 56.6084H958.104C974.562 56.6084 987.911 69.9433 987.924 86.4011L988.122 321.17C988.136 337.635 974.795 351 958.329 351.014C958.319 351.011 958.31 351.011 958.302 351.011Z" fill="#E6E6E6"/>
</g>
<g opacity="0.0349">
<path d="M958.302 348.3C943.338 348.3 931.207 336.177 931.193 321.216L931.02 113.548L97.6164 113.936L97.7899 321.167C97.8035 336.139 85.6749 348.287 70.7054 348.3C70.6973 348.3 70.6891 348.3 70.681 348.3C55.7169 348.3 43.5857 336.177 43.5721 321.216L43.3742 86.8647C43.3688 79.6727 46.2206 72.7735 51.3009 67.6851C56.3838 62.5968 63.2803 59.7341 70.4696 59.7314L958.091 59.3193C958.096 59.3193 958.104 59.3193 958.104 59.3193C973.068 59.3193 985.2 71.4424 985.213 86.4038L985.411 321.17C985.425 336.142 973.296 348.289 958.327 348.303C958.319 348.3 958.31 348.3 958.302 348.3Z" fill="#E6E6E6"/>
</g>
<g opacity="0.0369">
<path d="M958.302 345.589C944.835 345.589 933.915 334.68 933.904 321.213L933.728 110.837L94.9028 111.23L95.079 321.172C95.0898 334.648 84.1785 345.581 70.7027 345.592C70.6945 345.592 70.6864 345.592 70.681 345.592C57.2133 345.592 46.2938 334.683 46.283 321.215L46.0851 86.8642C46.0797 80.3906 48.6442 74.18 53.2201 69.604C57.7961 65.0253 63.9986 62.4472 70.4722 62.4445L958.093 62.0325H958.104C971.572 62.0325 982.492 72.9411 982.502 86.4088L982.7 321.175C982.711 334.65 971.8 345.583 958.324 345.594C958.316 345.589 958.308 345.589 958.302 345.589Z" fill="#E6E6E6"/>
</g>
<g opacity="0.0417">
<path d="M958.302 342.878C946.334 342.878 936.626 333.181 936.615 321.21L936.436 108.123L92.1892 108.516L92.3681 321.172C92.379 333.149 82.6767 342.867 70.7 342.878C70.6945 342.878 70.6864 342.878 70.681 342.878C58.7124 342.878 49.0047 333.181 48.9939 321.21L48.796 86.8591C48.7905 81.1066 51.0731 75.5872 55.1395 71.5155C59.2031 67.4437 64.7197 65.1557 70.4722 65.153L958.093 64.741H958.104C970.076 64.741 979.781 74.4378 979.791 86.4091L979.989 321.175C980 333.152 970.298 342.87 958.321 342.881C958.316 342.878 958.308 342.878 958.302 342.878Z" fill="#E6E6E6"/>
</g>
<g opacity="0.0445">
<path d="M958.302 340.167C947.83 340.167 939.334 331.682 939.326 321.207L939.144 105.41L89.4756 105.806L89.6572 321.172C89.6653 331.652 81.1775 340.157 70.6972 340.165C70.6918 340.165 70.6864 340.165 70.681 340.165C60.2088 340.165 51.7129 331.68 51.7048 321.205L51.5068 86.8538C51.5014 81.8196 53.4967 76.9888 57.0561 73.4294C60.6154 69.8673 65.4408 67.864 70.4749 67.8613L958.096 67.4492H958.104C968.576 67.4492 977.072 75.9343 977.08 86.4092L977.278 321.175C977.286 331.655 968.799 340.159 958.318 340.167C958.313 340.167 958.308 340.167 958.302 340.167Z" fill="#E6E6E6"/>
</g>
<g opacity="0.0505">
<path d="M958.302 337.456C949.326 337.456 942.045 330.183 942.037 321.204L941.853 102.698L86.762 103.094L86.9463 321.174C86.9544 330.156 79.6757 337.445 70.6945 337.453C70.6945 337.453 70.6864 337.453 70.681 337.453C61.7025 337.453 54.4238 330.18 54.4156 321.202L54.2177 86.8506C54.215 82.5349 55.9256 78.398 58.9753 75.3429C62.0224 72.2904 66.1592 70.5744 70.4749 70.5717L958.096 70.1597H958.104C967.083 70.1597 974.362 77.433 974.37 86.4114L974.568 321.177C974.576 330.158 967.297 337.448 958.316 337.456H958.302Z" fill="#E6E6E6"/>
</g>
<g opacity="0.0555">
<path d="M958.302 334.746C950.82 334.746 944.753 328.687 944.748 321.202L944.561 99.9852L84.0483 100.386L84.2354 321.177C84.2408 328.662 78.1793 334.737 70.6918 334.743H70.681C63.1989 334.743 57.1319 328.684 57.1265 321.199L56.9286 86.8482C56.9259 83.2536 58.3518 79.8026 60.8919 77.2598C63.432 74.717 66.8803 73.2856 70.4776 73.2829L958.099 72.8708H958.104C965.586 72.8708 971.653 78.9297 971.659 86.4144L971.857 321.18C971.862 328.665 965.8 334.74 958.313 334.746H958.302Z" fill="#E6E6E6"/>
</g>
<g opacity="0.0745">
<path d="M958.302 332.034C952.317 332.034 947.464 327.187 947.459 321.199L947.269 97.2741L81.3347 97.6753L81.5245 321.18C81.5299 327.168 76.6801 332.026 70.6891 332.032H70.6809C64.6953 332.032 59.8428 327.185 59.8374 321.196L59.6395 86.8453C59.6368 83.969 60.7781 81.2093 62.8112 79.1762C64.8444 77.1403 67.6014 75.9936 70.4776 75.9936L958.099 75.5815H958.104C964.09 75.5815 968.942 80.4313 968.948 86.417L969.146 321.18C969.151 327.168 964.301 332.026 958.31 332.032L958.302 332.034Z" fill="#E6E6E6"/>
</g>
<path d="M958.302 329.324C953.813 329.324 950.172 325.686 950.17 321.199L949.98 94.5608L78.6241 94.9674L78.8138 321.18C78.8166 325.672 75.1785 329.318 70.6893 329.321H70.6812C66.1919 329.321 62.5512 325.683 62.5485 321.197L62.3506 86.8456C62.3479 84.6877 63.2018 82.6166 64.728 81.0904C66.2543 79.5641 68.3227 78.7048 70.4806 78.7048L958.102 78.2927H958.104C962.594 78.2927 966.234 81.9307 966.237 86.4172L966.435 321.18C966.438 325.672 962.8 329.318 958.31 329.321L958.302 329.324Z" fill="#E6E6E6"/>
<path d="M958.302 326.071C955.61 326.071 953.425 323.889 953.422 321.197L953.227 91.3078L75.3679 91.7144L75.5604 321.183C75.5631 323.878 73.3808 326.065 70.6862 326.068H70.6808C67.9889 326.068 65.8039 323.886 65.8012 321.194L65.6033 86.8456C65.6006 85.5498 66.1129 84.3082 67.0292 83.3947C67.9428 82.4784 69.1844 81.9633 70.4775 81.9633L958.099 81.5513H958.101C960.793 81.5513 962.978 83.7335 962.981 86.4255L963.179 321.191C963.182 323.886 960.999 326.074 958.305 326.076C958.305 326.071 958.302 326.071 958.302 326.071Z" fill="#F7F7F7"/>
<path d="M958.302 322.817C957.405 322.817 956.676 322.091 956.676 321.191L956.478 88.0544L72.1098 88.4637L72.305 321.188C72.3077 322.088 71.5785 322.817 70.6812 322.817C70.6785 322.817 70.6785 322.817 70.6785 322.817C69.7812 322.817 69.0519 322.091 69.0519 321.194L68.854 86.8426C68.8513 86.4116 69.0248 85.9941 69.3284 85.6905C69.6321 85.3868 70.0495 85.2133 70.4806 85.2133L958.102 84.8013C958.999 84.7986 959.728 85.5278 959.728 86.4251L959.926 321.191C959.929 322.091 959.2 322.817 958.302 322.817Z" fill="#FAFAFA"/>
<path d="M642.843 320.732L638.822 320.732L638.822 306.833L642.843 306.833L642.843 320.732ZM647.798 315.715L633.867 315.715L633.867 311.85L647.798 311.85L647.798 315.715ZM658.675 324.222L653.44 324.222L662.571 303.342L669.24 303.342L678.434 324.222L673.073 324.222L667.339 310.853L666.061 307.612L665.719 307.612L664.441 310.853L658.675 324.222ZM673.136 319.61L658.426 319.61L658.426 315.403L673.136 315.403L673.136 319.61ZM695.988 305.306L691.625 305.306L691.625 300.226L695.988 300.226L695.988 305.306ZM695.988 327.339L691.625 327.339L691.625 322.259L695.988 322.259L695.988 327.339ZM693.807 324.534C691.708 324.534 689.922 324.264 688.446 323.724C686.971 323.163 685.849 322.342 685.081 321.262C684.312 320.161 683.928 318.8 683.928 317.179L683.928 316.992L688.602 316.992L688.602 317.553C688.602 318.197 688.737 318.717 689.007 319.111C689.298 319.506 689.818 319.797 690.566 319.984C691.314 320.171 692.394 320.265 693.807 320.265C695.053 320.265 696.009 320.202 696.674 320.078C697.339 319.932 697.796 319.714 698.045 319.423C698.294 319.132 698.419 318.758 698.419 318.301C698.419 317.657 698.201 317.19 697.765 316.899C697.349 316.608 696.612 316.369 695.552 316.182L689.693 315.341C688.446 315.133 687.377 314.79 686.483 314.312C685.611 313.834 684.935 313.201 684.457 312.411C683.98 311.601 683.741 310.624 683.741 309.482C683.741 308.692 683.907 307.913 684.239 307.144C684.592 306.376 685.143 305.69 685.891 305.087C686.639 304.464 687.615 303.966 688.82 303.592C690.046 303.218 691.542 303.031 693.308 303.031C695.448 303.031 697.204 303.342 698.575 303.966C699.967 304.568 701.006 305.43 701.691 306.552C702.377 307.653 702.72 308.931 702.72 310.385L702.72 310.572L698.014 310.572L698.014 310.136C698.014 309.471 697.869 308.931 697.578 308.516C697.308 308.1 696.799 307.799 696.051 307.612C695.303 307.404 694.233 307.3 692.841 307.3C691.719 307.3 690.836 307.373 690.192 307.518C689.568 307.664 689.122 307.882 688.852 308.173C688.582 308.464 688.446 308.838 688.446 309.295C688.446 309.689 688.53 310.022 688.696 310.292C688.862 310.541 689.122 310.739 689.475 310.884C689.828 311.029 690.296 311.154 690.877 311.258L696.736 312.193C698.294 312.442 699.531 312.847 700.445 313.408C701.38 313.969 702.055 314.655 702.47 315.465C702.886 316.255 703.094 317.127 703.094 318.083C703.094 319.205 702.782 320.265 702.159 321.262C701.536 322.238 700.538 323.028 699.167 323.63C697.796 324.233 696.009 324.534 693.807 324.534ZM714.721 324.534C712.539 324.534 710.711 324.285 709.236 323.786C707.761 323.287 706.639 322.54 705.87 321.542C705.122 320.524 704.748 319.257 704.748 317.74L704.748 317.46L709.579 317.46L709.579 317.74C709.579 318.322 709.734 318.81 710.046 319.205C710.358 319.579 710.888 319.849 711.636 320.015C712.404 320.181 713.453 320.265 714.783 320.265C715.988 320.265 716.923 320.161 717.588 319.953C718.274 319.745 718.751 319.413 719.021 318.956C719.312 318.499 719.458 317.896 719.458 317.148C719.458 316.359 719.312 315.746 719.021 315.309C718.751 314.852 718.274 314.52 717.588 314.312C716.923 314.104 715.999 314 714.814 314C713.381 314 712.248 314.104 711.417 314.312C710.607 314.52 710.015 314.894 709.641 315.434L708.488 315.278L708.426 312.941L709.859 313.034C710.129 312.64 710.545 312.234 711.106 311.819C711.687 311.383 712.435 311.019 713.35 310.728C714.284 310.437 715.406 310.292 716.715 310.292C718.44 310.292 719.863 310.562 720.985 311.102C722.128 311.642 722.979 312.421 723.54 313.44C724.122 314.437 724.413 315.652 724.413 317.086C724.413 318.582 724.07 319.891 723.385 321.012C722.699 322.134 721.629 323.007 720.175 323.63C718.741 324.233 716.923 324.534 714.721 324.534ZM706.088 303.342L723.291 303.342L723.291 307.549L710.233 307.549L709.298 315.434L704.904 315.309L706.088 303.342ZM736.639 324.534C734.395 324.534 732.494 324.087 730.936 323.194C729.399 322.301 728.225 321.054 727.414 319.454C726.604 317.834 726.199 315.943 726.199 313.782C726.199 311.601 726.604 309.71 727.414 308.11C728.225 306.511 729.399 305.264 730.936 304.371C732.494 303.477 734.395 303.031 736.639 303.031C738.883 303.031 740.774 303.477 742.311 304.371C743.869 305.264 745.054 306.511 745.864 308.11C746.674 309.71 747.079 311.601 747.079 313.782C747.079 315.943 746.674 317.834 745.864 319.454C745.054 321.054 743.869 322.301 742.311 323.194C740.774 324.087 738.883 324.534 736.639 324.534ZM736.639 319.984C737.969 319.984 739.028 319.787 739.818 319.392C740.607 318.976 741.179 318.312 741.532 317.397C741.885 316.483 742.062 315.278 742.062 313.782C742.062 312.286 741.885 311.081 741.532 310.167C741.179 309.253 740.607 308.599 739.818 308.204C739.028 307.788 737.969 307.581 736.639 307.581C735.309 307.581 734.25 307.788 733.46 308.204C732.671 308.599 732.1 309.253 731.746 310.167C731.393 311.081 731.217 312.286 731.217 313.782C731.217 315.278 731.393 316.483 731.746 317.397C732.1 318.312 732.671 318.976 733.46 319.392C734.25 319.787 735.309 319.984 736.639 319.984ZM759.039 324.534C756.795 324.534 754.894 324.087 753.335 323.194C751.798 322.301 750.624 321.054 749.814 319.454C749.004 317.834 748.599 315.943 748.599 313.782C748.599 311.601 749.004 309.71 749.814 308.11C750.624 306.511 751.798 305.264 753.335 304.371C754.894 303.477 756.795 303.031 759.039 303.031C761.282 303.031 763.173 303.477 764.711 304.371C766.269 305.264 767.453 306.511 768.263 308.11C769.074 309.71 769.479 311.601 769.479 313.782C769.479 315.943 769.074 317.834 768.263 319.454C767.453 321.054 766.269 322.301 764.711 323.194C763.173 324.087 761.282 324.534 759.039 324.534ZM759.039 319.984C760.368 319.984 761.428 319.787 762.217 319.392C763.007 318.976 763.578 318.312 763.931 317.397C764.285 316.483 764.461 315.278 764.461 313.782C764.461 312.286 764.285 311.081 763.931 310.167C763.578 309.253 763.007 308.599 762.217 308.204C761.428 307.788 760.368 307.581 759.039 307.581C757.709 307.581 756.649 307.788 755.86 308.204C755.07 308.599 754.499 309.253 754.146 310.167C753.793 311.081 753.616 312.286 753.616 313.782C753.616 315.278 753.793 316.483 754.146 317.397C754.499 318.312 755.07 318.976 755.86 319.392C756.649 319.787 757.709 319.984 759.039 319.984ZM786.963 324.534C784.678 324.534 782.694 324.098 781.011 323.225C779.349 322.332 778.061 321.085 777.147 319.485C776.253 317.865 775.807 315.964 775.807 313.782C775.807 311.601 776.253 309.71 777.147 308.11C778.061 306.49 779.349 305.243 781.011 304.371C782.694 303.477 784.678 303.031 786.963 303.031C789.145 303.031 791.025 303.373 792.604 304.059C794.204 304.745 795.44 305.721 796.313 306.988C797.185 308.256 797.622 309.783 797.622 311.57L797.622 312.037L792.417 312.037L792.417 311.57C792.417 310.198 791.991 309.18 791.139 308.516C790.308 307.851 788.948 307.518 787.057 307.518C785.54 307.518 784.314 307.726 783.379 308.142C782.465 308.536 781.8 309.191 781.385 310.105C780.969 310.998 780.762 312.224 780.762 313.782C780.762 315.32 780.969 316.546 781.385 317.46C781.8 318.374 782.465 319.039 783.379 319.454C784.314 319.849 785.54 320.046 787.057 320.046C788.948 320.046 790.308 319.714 791.139 319.049C791.991 318.384 792.417 317.366 792.417 315.995L792.417 315.528L797.622 315.528L797.622 315.995C797.622 317.761 797.185 319.288 796.313 320.576C795.44 321.844 794.204 322.82 792.604 323.506C791.025 324.191 789.145 324.534 786.963 324.534ZM803.481 324.222L798.245 324.222L807.376 303.342L814.045 303.342L823.239 324.222L817.879 324.222L812.144 310.853L810.867 307.612L810.524 307.612L809.246 310.853L803.481 324.222ZM817.941 319.61L803.231 319.61L803.231 315.403L817.941 315.403L817.941 319.61ZM833.803 324.534C831.705 324.534 829.918 324.264 828.443 323.724C826.968 323.163 825.846 322.342 825.077 321.262C824.309 320.161 823.924 318.8 823.924 317.179L823.924 316.992L828.599 316.992L828.599 317.553C828.599 318.197 828.734 318.717 829.004 319.111C829.295 319.506 829.814 319.797 830.562 319.984C831.31 320.171 832.391 320.265 833.803 320.265C835.05 320.265 836.006 320.202 836.67 320.078C837.335 319.932 837.792 319.714 838.042 319.423C838.291 319.132 838.416 318.758 838.416 318.301C838.416 317.657 838.198 317.19 837.761 316.899C837.346 316.608 836.608 316.369 835.549 316.182L829.69 315.341C828.443 315.133 827.373 314.79 826.48 314.312C825.607 313.834 824.932 313.201 824.454 312.411C823.976 311.601 823.737 310.624 823.737 309.482C823.737 308.692 823.903 307.913 824.236 307.144C824.589 306.376 825.14 305.69 825.888 305.087C826.635 304.464 827.612 303.966 828.817 303.592C830.043 303.218 831.539 303.031 833.305 303.031C835.445 303.031 837.2 303.342 838.571 303.966C839.963 304.568 841.002 305.43 841.688 306.552C842.374 307.653 842.716 308.931 842.716 310.385L842.716 310.572L838.011 310.572L838.011 310.136C838.011 309.471 837.865 308.931 837.574 308.516C837.304 308.1 836.795 307.799 836.047 307.612C835.299 307.404 834.229 307.3 832.837 307.3C831.715 307.3 830.832 307.373 830.188 307.518C829.565 307.664 829.118 307.882 828.848 308.173C828.578 308.464 828.443 308.838 828.443 309.295C828.443 309.689 828.526 310.022 828.692 310.292C828.859 310.541 829.118 310.739 829.471 310.884C829.825 311.029 830.292 311.154 830.874 311.258L836.733 312.193C838.291 312.442 839.527 312.847 840.441 313.408C841.376 313.969 842.052 314.655 842.467 315.465C842.883 316.255 843.09 317.127 843.09 318.083C843.09 319.205 842.779 320.265 842.155 321.262C841.532 322.238 840.535 323.028 839.164 323.63C837.792 324.233 836.006 324.534 833.803 324.534ZM865.251 324.222L860.576 324.222L860.576 303.342L865.251 303.342L865.251 324.222ZM849.669 324.222L844.994 324.222L844.994 303.342L849.669 303.342L849.669 324.222ZM862.976 315.839L846.303 315.839L846.303 311.632L862.976 311.632L862.976 315.839ZM638.791 361.222L634.117 361.222L634.117 340.342L645.647 340.342C647.372 340.342 648.837 340.592 650.042 341.09C651.247 341.568 652.161 342.274 652.784 343.209C653.407 344.144 653.719 345.277 653.719 346.606C653.719 347.749 653.501 348.725 653.065 349.536C652.628 350.346 651.974 351 651.101 351.499C650.229 351.977 649.138 352.278 647.829 352.403L647.829 352.652C648.764 352.902 649.46 353.275 649.917 353.774C650.374 354.273 650.8 354.886 651.195 355.613L654.218 361.222L648.795 361.222L645.928 355.8C645.637 355.26 645.336 354.834 645.024 354.522C644.713 354.21 644.307 353.992 643.809 353.868C643.331 353.722 642.687 353.649 641.877 353.649L638.791 353.649L638.791 361.222ZM638.791 344.549L638.791 350.128L645.616 350.128C646.717 350.128 647.528 349.941 648.047 349.567C648.567 349.172 648.826 348.424 648.826 347.323C648.826 346.284 648.567 345.567 648.047 345.173C647.528 344.757 646.717 344.549 645.616 344.549L638.791 344.549ZM660.369 361.222L655.694 361.222L655.694 340.342L660.369 340.342L660.369 361.222ZM673.365 361.222L657.003 361.222L657.003 357.015L673.365 357.015L673.365 361.222ZM672.897 352.808L657.003 352.808L657.003 348.632L672.897 348.632L672.897 352.808ZM673.365 344.549L657.003 344.549L657.003 340.342L673.365 340.342L673.365 344.549ZM686.446 361.222L679.497 361.222L674.573 340.342L679.808 340.342L682.333 352.185L683.049 356.766L683.392 356.766L684.358 352.185L687.849 340.342L694.798 340.342L698.258 352.185L699.224 356.766L699.567 356.766L700.283 352.185L702.808 340.342L707.919 340.342L702.964 361.222L696.014 361.222L692.897 350.782L691.433 344.768L691.09 344.768L689.625 350.782L686.446 361.222ZM713.365 361.222L708.13 361.222L717.261 340.342L723.93 340.342L733.124 361.222L727.763 361.222L722.029 347.853L720.751 344.612L720.409 344.612L719.131 347.853L713.365 361.222ZM727.826 356.61L713.116 356.61L713.116 352.403L727.826 352.403L727.826 356.61ZM738.889 361.222L734.214 361.222L734.214 340.342L745.745 340.342C747.469 340.342 748.934 340.592 750.139 341.09C751.344 341.568 752.258 342.274 752.882 343.209C753.505 344.144 753.817 345.277 753.817 346.606C753.817 347.749 753.598 348.725 753.162 349.536C752.726 350.346 752.071 351 751.199 351.499C750.326 351.977 749.235 352.278 747.927 352.403L747.927 352.652C748.861 352.902 749.557 353.275 750.015 353.774C750.472 354.273 750.898 354.886 751.292 355.613L754.315 361.222L748.893 361.222L746.025 355.8C745.735 355.26 745.433 354.834 745.122 354.522C744.81 354.21 744.405 353.992 743.906 353.868C743.428 353.722 742.784 353.649 741.974 353.649L738.889 353.649L738.889 361.222ZM738.889 344.549L738.889 350.128L745.714 350.128C746.815 350.128 747.625 349.941 748.145 349.567C748.664 349.172 748.924 348.424 748.924 347.323C748.924 346.284 748.664 345.567 748.145 345.173C747.625 344.757 746.815 344.549 745.714 344.549L738.889 344.549ZM766.107 361.222L757.319 361.222L757.319 357.015L766.107 357.015C767.541 357.015 768.684 356.849 769.535 356.517C770.408 356.163 771.042 355.54 771.436 354.647C771.852 353.733 772.06 352.444 772.06 350.782C772.06 349.099 771.852 347.811 771.436 346.918C771.042 346.025 770.408 345.412 769.535 345.079C768.684 344.726 767.541 344.549 766.107 344.549L757.319 344.549L757.319 340.342L766.107 340.342C768.351 340.342 770.283 340.758 771.904 341.589C773.545 342.42 774.813 343.614 775.706 345.173C776.599 346.731 777.046 348.601 777.046 350.782C777.046 352.964 776.599 354.834 775.706 356.392C774.813 357.95 773.545 359.145 771.904 359.976C770.283 360.807 768.351 361.222 766.107 361.222ZM760.716 361.222L756.041 361.222L756.041 340.342L760.716 340.342L760.716 361.222ZM788.548 361.534C786.45 361.534 784.663 361.264 783.188 360.724C781.713 360.163 780.591 359.342 779.822 358.262C779.053 357.161 778.669 355.8 778.669 354.179L778.669 353.992L783.343 353.992L783.343 354.553C783.343 355.197 783.479 355.717 783.749 356.111C784.039 356.506 784.559 356.797 785.307 356.984C786.055 357.171 787.135 357.265 788.548 357.265C789.794 357.265 790.75 357.202 791.415 357.078C792.08 356.932 792.537 356.714 792.786 356.423C793.036 356.132 793.16 355.758 793.16 355.301C793.16 354.657 792.942 354.19 792.506 353.899C792.09 353.608 791.353 353.369 790.293 353.182L784.434 352.341C783.188 352.133 782.118 351.79 781.224 351.312C780.352 350.834 779.676 350.201 779.199 349.411C778.721 348.601 778.482 347.624 778.482 346.482C778.482 345.692 778.648 344.913 778.98 344.144C779.334 343.376 779.884 342.69 780.632 342.087C781.38 341.464 782.357 340.966 783.562 340.592C784.787 340.218 786.283 340.031 788.049 340.031C790.189 340.031 791.945 340.342 793.316 340.966C794.708 341.568 795.747 342.43 796.433 343.552C797.118 344.653 797.461 345.931 797.461 347.385L797.461 347.572L792.755 347.572L792.755 347.136C792.755 346.471 792.61 345.931 792.319 345.516C792.049 345.1 791.54 344.799 790.792 344.612C790.044 344.404 788.974 344.3 787.582 344.3C786.46 344.3 785.577 344.373 784.933 344.518C784.31 344.664 783.863 344.882 783.593 345.173C783.323 345.464 783.188 345.838 783.188 346.295C783.188 346.689 783.271 347.022 783.437 347.292C783.603 347.541 783.863 347.739 784.216 347.884C784.569 348.029 785.037 348.154 785.618 348.258L791.477 349.193C793.036 349.442 794.272 349.847 795.186 350.408C796.121 350.969 796.796 351.655 797.212 352.465C797.627 353.255 797.835 354.127 797.835 355.083C797.835 356.205 797.523 357.265 796.9 358.262C796.277 359.238 795.279 360.028 793.908 360.63C792.537 361.233 790.75 361.534 788.548 361.534Z" fill="white"/>
<path d="M510.501 76.9503L499.229 76.2455C495.708 76.053 492.216 75.6898 488.687 75.3618C486.925 75.2154 485.162 75.0093 483.4 74.7599C481.638 74.5105 479.868 74.3397 478.103 73.9982L472.793 73.0602L467.477 71.8159C465.698 71.4228 463.928 70.7722 462.152 70.2382L460.819 69.8153L460.485 69.7095L460.317 69.6553L459.978 69.5143L459.368 69.2704C458.544 68.9342 457.772 68.6496 456.904 68.2701L454.052 66.8007C453.139 66.2803 452.293 65.7083 451.412 65.1553C449.69 63.9679 448.026 62.6016 446.505 61.0022C443.472 57.8196 441.062 53.493 440.281 48.7218C439.538 43.9696 440.303 38.9491 442.485 34.8123C444.586 30.6185 447.815 27.1296 451.707 24.6979C455.584 22.2473 460.146 20.8973 464.687 20.7563C469.241 20.5991 473.671 21.7458 477.515 23.5865C478.477 24.05 479.44 24.5082 480.302 25.0937L481.627 25.9314L481.958 26.1401L482.27 26.3516L482.303 26.376L482.368 26.4275L482.498 26.5305L483.01 26.9426L487.093 30.2471C489.852 32.8984 492.78 35.6825 494.954 38.5289C497.359 41.313 499.37 44.3519 501.401 47.342C503.287 50.4405 505.088 53.5662 506.652 56.8165C508.197 60.0669 509.552 63.4609 510.42 66.9743L510.469 67.1694V67.2101L510.501 76.9503ZM509.287 75.4431L509.26 67.2182L509.308 67.4541C507.21 64.632 505.077 61.951 502.751 59.381C501.572 58.1096 500.517 56.7705 499.302 55.5451C498.104 54.309 496.887 53.0999 495.735 51.8502C493.252 49.5053 490.904 47.0601 488.323 44.9266C487.071 43.8287 485.829 42.6549 484.569 41.782C483.308 40.8277 482.153 39.8708 480.852 38.9193L476.444 36.0674L475.894 35.7096L475.758 35.6201L475.691 35.5767L475.655 35.555C476.187 35.9129 475.786 35.6472 475.897 35.7231L475.658 35.6093L474.707 35.143C474.083 34.8014 473.446 34.5547 472.809 34.3107C470.266 33.3348 467.699 32.9119 465.251 33.08C462.822 33.3267 460.464 34.0288 458.444 35.349C456.454 36.6774 454.697 38.4259 453.665 40.5024C452.567 42.5464 452.152 44.7748 452.385 46.9245C452.708 49.058 453.534 51.2538 455.218 53.2328C456.066 54.2087 457.013 55.1765 458.1 56.071C458.672 56.4885 459.238 56.9548 459.808 57.3533L461.529 58.4566C462.226 58.8551 463.055 59.2672 463.811 59.6738L464.392 59.9802L464.465 60.0181L464.503 60.0371C464.679 60.1157 464.302 59.9503 464.354 59.9747L464.495 60.0344L464.777 60.1564L465.904 60.6443C467.425 61.2705 468.878 62.0052 470.456 62.5853L475.189 64.3528L480.047 65.9848C483.311 67.0556 486.618 68.0613 489.955 69.0996C493.279 70.1595 496.662 71.0867 500.007 72.2036L505.063 73.8599C506.47 74.3831 507.88 74.8982 509.287 75.4431Z" fill="#F2181E"/>
<path d="M519.572 75.598C521.025 75.0071 522.483 74.454 523.942 73.8848L528.978 72.1606C532.318 71.0031 535.691 70.0434 539.001 68.9374L548.882 65.7304L553.729 64.0578L558.44 62.2415C560.018 61.6532 561.466 60.9186 562.978 60.2707L564.101 59.7719L564.38 59.6471L564.521 59.5848C564.572 59.5631 564.187 59.7312 564.369 59.6499L564.404 59.6309L564.478 59.5902L565.055 59.2785L567.338 58.0559L569.04 56.939C569.604 56.5378 570.165 56.0661 570.732 55.6459C571.802 54.735 572.767 53.7944 573.594 52.8049C575.237 50.807 576.086 48.6382 576.389 46.5075C576.462 45.4285 576.492 44.3442 576.216 43.2707C576.172 42.7231 575.92 42.2026 575.804 41.6604C575.546 41.148 575.413 40.5977 575.091 40.1044C574.023 38.0603 572.309 36.2739 570.301 34.9591C568.265 33.6687 565.917 32.9069 563.469 32.6982C561.016 32.541 558.427 32.9395 555.884 33.9588C555.244 34.2027 554.594 34.4332 553.973 34.7856L553.021 35.2627L552.783 35.3793C552.891 35.3034 552.498 35.5717 553.019 35.2112L552.983 35.2329L552.916 35.279L552.777 35.3711L552.232 35.7317C550.777 36.7049 549.307 37.6564 547.833 38.5998C545.358 40.5869 542.866 42.2785 540.375 44.6641C537.794 46.8084 535.463 49.2726 532.993 51.6365L529.442 55.3558C528.23 56.5893 527.2 57.9474 526.013 59.2188C523.709 61.8132 521.589 64.5159 519.509 67.3651L519.545 67.1807L519.572 75.598ZM518.631 76.7746L518.598 67.1889V67.1563L518.634 67.0045C519.479 63.502 520.811 60.1053 522.342 56.8522C523.866 53.5829 525.677 50.4735 527.517 47.3478C529.526 44.3469 531.519 41.2999 533.888 38.4941C536.054 35.6504 538.93 32.8283 541.674 30.1689C543.013 29.0412 544.36 27.9189 545.724 26.8237L546.233 26.4089L546.361 26.3059L546.426 26.2544L546.458 26.23L546.765 26.0213L547.09 25.8098L548.407 24.9668C549.267 24.3812 550.213 23.8987 551.167 23.4243C554.989 21.5863 559.395 20.3691 563.941 20.4911C568.463 20.6212 573.049 21.8682 576.937 24.3107C578.889 25.5116 580.678 26.9782 582.275 28.6427C583.809 30.3614 585.219 32.2238 586.251 34.3383C588.455 38.4616 589.317 43.474 588.572 48.2452C587.813 53.0272 585.471 57.3971 582.429 60.5933C580.906 62.1954 579.274 63.6078 577.547 64.7951C576.666 65.3563 575.823 65.931 574.909 66.4569L572.06 67.9425C571.198 68.3329 570.431 68.6338 569.604 68.9699L568.994 69.2139L568.655 69.3576L568.487 69.4118L568.154 69.5202L566.822 69.9458C565.044 70.4799 563.282 71.1522 561.506 71.5615L556.193 72.8221C554.428 73.1799 552.653 73.4646 550.888 73.7872C549.123 74.1342 547.358 74.3293 545.594 74.5706C543.829 74.8146 542.072 75.0477 540.307 75.1914C536.775 75.5194 533.283 75.8935 529.762 76.0914C526.281 76.3191 522.757 76.5631 519.211 76.7447L518.631 76.7746Z" fill="#F2181E"/>
<path d="M522.06 71.1656C522.074 75.3512 518.691 78.7534 514.505 78.7669C510.322 78.7805 506.92 75.4 506.906 71.2144C506.893 67.0315 510.273 63.6266 514.454 63.6131C518.639 63.6022 522.047 66.9827 522.06 71.1656Z" fill="#F2181E"/>
<path d="M201.788 170.623C204.068 173.727 205.212 177.471 205.212 181.862C205.212 188.276 202.728 193.226 197.765 196.713C192.798 200.199 185.62 201.942 176.229 201.942H138.187V128.745H174.215C183.205 128.745 190.05 130.472 194.745 133.92C199.44 137.368 201.79 142.023 201.79 147.879C201.79 151.365 200.969 154.485 199.326 157.237C197.683 159.994 195.349 162.168 192.332 163.773C196.352 165.239 199.505 167.522 201.788 170.623ZM157.909 143.696V157.811H171.596C178.306 157.811 181.659 155.445 181.659 150.703C181.659 146.032 178.306 143.696 171.596 143.696H157.909ZM185.083 179.563C185.083 174.616 181.594 172.141 174.616 172.141H157.912V186.991H174.616C181.592 186.989 185.083 184.514 185.083 179.563Z" fill="white"/>
<path d="M232.684 128.745H252.609V185.525H286.224V201.942H232.684V128.745Z" fill="white"/>
<path d="M359.182 187.721H329.395L323.859 201.942H303.53L334.627 128.745H354.251L385.451 201.942H364.721L359.182 187.721ZM353.346 172.453L344.289 149.031L335.229 172.453H353.346Z" fill="white"/>
<path d="M422.433 198.542C416.561 195.303 411.95 190.789 408.593 185.001C405.24 179.216 403.559 172.661 403.559 165.342C403.559 158.022 405.237 151.473 408.593 145.685C411.947 139.897 416.561 135.384 422.433 132.142C428.304 128.902 434.927 127.281 442.309 127.281C448.75 127.281 454.554 128.468 459.721 130.838C464.885 133.207 469.179 136.625 472.6 141.085L459.921 153.005C455.356 147.29 449.821 144.43 443.315 144.43C439.492 144.43 436.085 145.3 433.1 147.043C430.115 148.789 427.797 151.245 426.157 154.417C424.512 157.589 423.69 161.232 423.69 165.342C423.69 169.457 424.512 173.098 426.157 176.269C427.797 179.444 430.115 181.9 433.1 183.643C436.085 185.386 439.489 186.256 443.315 186.256C449.821 186.256 455.356 183.399 459.921 177.682L472.6 189.602C469.179 194.064 464.885 197.479 459.721 199.849C454.554 202.218 448.75 203.405 442.309 203.405C434.93 203.405 428.304 201.784 422.433 198.542Z" fill="white"/>
<path d="M525.739 175.381L518.292 183.643V201.942H498.568V128.745H518.292V159.175L545.566 128.745H567.506L538.724 161.159L569.016 201.942H545.87L525.739 175.381Z" fill="white"/>
<path d="M158.663 225.367V241.47H189.76V257.466H158.663V282.564H138.735V209.367H193.986V225.364L158.663 225.367Z" fill="#F2181E"/>
<path d="M241.185 263.116H230.317V282.566H210.389V209.37H242.595C248.968 209.37 254.504 210.468 259.199 212.663C263.894 214.859 267.516 217.996 270.07 222.076C272.615 226.153 273.892 230.946 273.892 236.454C273.892 241.751 272.702 246.371 270.322 250.309C267.939 254.248 264.534 257.333 260.104 259.562L275.299 282.566H253.964L241.185 263.116ZM250.646 228.503C248.564 226.622 245.479 225.681 241.386 225.681H230.317V247.116H241.386C245.479 247.116 248.564 246.192 250.646 244.346C252.725 242.499 253.764 239.867 253.764 236.451C253.764 233.036 252.725 230.387 250.646 228.503Z" fill="#F2181E"/>
<path d="M291.908 209.37H311.836V282.566H291.908V209.37Z" fill="#F2181E"/>
<path d="M333.065 209.37H366.377C374.092 209.37 380.934 210.869 386.906 213.864C392.876 216.863 397.506 221.116 400.794 226.622C404.08 232.13 405.723 238.579 405.723 245.967C405.723 253.359 404.077 259.806 400.794 265.314C397.506 270.82 392.876 275.076 386.906 278.072C380.934 281.067 374.089 282.566 366.377 282.566H333.065V209.37ZM365.574 266.043C371.614 266.043 376.458 264.268 380.115 260.711C383.772 257.157 385.6 252.24 385.6 245.967C385.6 239.694 383.77 234.779 380.115 231.225C376.456 227.668 371.611 225.892 365.574 225.892H352.993V266.043H365.574Z" fill="#F2181E"/>
<path d="M469.431 268.345H439.644L434.108 282.566H413.779L444.876 209.37H464.5L495.7 282.566H474.969L469.431 268.345ZM463.595 253.077L454.537 229.655L445.478 253.077H463.595Z" fill="#F2181E"/>
<path d="M541.687 256.32V282.566H521.762V256.005L494.892 209.37H515.926L532.63 238.438L549.337 209.37H568.658L541.687 256.32Z" fill="#F2181E"/>
<path d="M789.213 203.036C786.798 199.915 785.591 195.296 785.591 189.178V184.68C785.591 178.38 786.768 173.761 789.124 170.822C791.477 167.886 795.394 166.417 800.87 166.417C806.406 166.417 810.35 167.854 812.706 170.73C815.061 173.606 816.238 178.133 816.238 184.312V189.359C816.238 195.478 815.032 200.067 812.616 203.125C810.201 206.186 806.286 207.712 800.87 207.712C795.513 207.715 791.626 206.156 789.213 203.036ZM805.023 196.703C805.671 195.052 805.994 192.482 805.994 188.996V184.591C805.994 181.164 805.685 178.716 805.066 177.25C804.448 175.78 803.05 175.048 800.87 175.048C798.75 175.048 797.381 175.797 796.763 177.296C796.145 178.795 795.836 181.259 795.836 184.683V189.088C795.836 192.515 796.158 195.052 796.806 196.706C797.454 198.357 798.807 199.184 800.87 199.184C802.99 199.181 804.375 198.354 805.023 196.703ZM830.37 166.693H838.408L817.564 241.118H809.439L830.37 166.693ZM835.228 236.759C832.812 233.671 831.606 229.036 831.606 222.858V218.36C831.606 212.12 832.785 207.533 835.138 204.594C837.491 201.659 841.409 200.189 846.885 200.189C852.42 200.189 856.365 201.629 858.72 204.502C861.073 207.379 862.253 211.906 862.253 218.084V223.039C862.253 229.22 861.046 233.823 858.631 236.851C856.216 239.879 852.301 241.395 846.885 241.395C841.528 241.395 837.643 239.85 835.228 236.759ZM851.038 230.383C851.686 228.732 852.008 226.195 852.008 222.768V218.363C852.008 214.937 851.699 212.475 851.081 210.976C850.463 209.477 849.061 208.729 846.885 208.729C844.765 208.729 843.396 209.479 842.778 210.976C842.16 212.478 841.85 214.939 841.85 218.363V222.768C841.85 226.195 842.173 228.732 842.821 230.383C843.469 232.037 844.822 232.861 846.885 232.861C849.007 232.861 850.39 232.034 851.038 230.383Z" fill="white"/>
<path d="M644.701 149.217C642.806 147.282 641.857 144.536 641.857 140.984V127.728H648.366V140.776C648.366 144.603 649.825 146.514 652.739 146.514C655.631 146.514 657.079 144.603 657.079 140.776V127.728H663.49V140.984C663.49 144.538 662.541 147.282 660.647 149.217C658.752 151.153 656.092 152.121 652.674 152.121C649.255 152.121 646.596 151.15 644.701 149.217Z" fill="#F2181E"/>
<path d="M689.436 128.802C690.97 129.52 692.155 130.545 692.987 131.878C693.822 133.209 694.237 134.774 694.237 136.574C694.237 138.374 693.822 139.932 692.987 141.255C692.155 142.576 690.973 143.595 689.436 144.313C687.902 145.032 686.094 145.387 684.012 145.387H680.002V151.641H673.491V127.728H684.014C686.094 127.728 687.902 128.086 689.436 128.802ZM686.641 139.154C687.322 138.55 687.66 137.693 687.66 136.576C687.66 135.462 687.322 134.595 686.641 133.979C685.963 133.364 684.955 133.058 683.618 133.058H680.002V140.06H683.618C684.955 140.06 685.963 139.756 686.641 139.154Z" fill="#F2181E"/>
<path d="M707.323 133.09H700.255V127.726H720.869V133.09H713.831V151.641H707.323V133.09Z" fill="#F2181E"/>
<path d="M733.61 150.513C731.669 149.442 730.146 147.965 729.037 146.073C727.931 144.183 727.378 142.052 727.378 139.683C727.378 137.317 727.931 135.186 729.037 133.296C730.143 131.407 731.669 129.927 733.61 128.853C735.551 127.782 737.736 127.248 740.17 127.248C742.602 127.248 744.79 127.782 746.728 128.853C748.669 129.927 750.193 131.404 751.299 133.296C752.405 135.186 752.958 137.317 752.958 139.683C752.958 142.052 752.405 144.183 751.299 146.073C750.193 147.962 748.666 149.442 746.728 150.513C744.79 151.587 742.602 152.121 740.17 152.121C737.736 152.121 735.551 151.587 733.61 150.513ZM743.326 145.663C744.269 145.094 745.012 144.289 745.56 143.253C746.107 142.215 746.384 141.028 746.384 139.683C746.384 138.341 746.107 137.148 745.56 136.116C745.012 135.077 744.267 134.275 743.326 133.706C742.383 133.136 741.331 132.852 740.17 132.852C739.007 132.852 737.956 133.136 737.012 133.706C736.069 134.275 735.326 135.077 734.778 136.116C734.231 137.151 733.954 138.341 733.954 139.683C733.954 141.028 734.231 142.218 734.778 143.253C735.326 144.289 736.072 145.094 737.012 145.663C737.956 146.233 739.007 146.515 740.17 146.515C741.331 146.515 742.383 146.233 743.326 145.663Z" fill="#F2181E"/>
<path d="M791.073 283.413C789.601 281.732 788.798 279.127 788.665 275.6L794.269 274.619C794.323 276.723 794.605 278.276 795.117 279.271C795.632 280.271 796.402 280.77 797.427 280.77C798.192 280.77 798.742 280.515 799.083 280.011C799.425 279.507 799.596 278.856 799.596 278.065C799.596 276.752 799.314 275.636 798.747 274.722C798.181 273.806 797.294 272.803 796.085 271.71L792.767 268.717C791.452 267.571 790.447 266.34 789.75 265.028C789.053 263.718 788.703 262.143 788.703 260.314C788.703 257.608 789.473 255.523 791.013 254.06C792.55 252.598 794.678 251.864 797.386 251.864C800.282 251.864 802.296 252.731 803.426 254.469C804.557 256.207 805.202 258.413 805.362 261.089L799.718 261.951C799.664 260.202 799.474 258.909 799.146 258.074C798.815 257.239 798.164 256.825 797.191 256.825C796.481 256.825 795.928 257.107 795.535 257.665C795.139 258.226 794.941 258.888 794.941 259.652C794.941 260.745 795.172 261.669 795.632 262.42C796.093 263.171 796.823 263.998 797.823 264.9L801.06 267.853C802.586 269.249 803.781 270.718 804.649 272.261C805.516 273.803 805.95 275.617 805.95 277.693C805.95 279.279 805.608 280.694 804.925 281.936C804.239 283.18 803.274 284.156 802.025 284.869C800.775 285.579 799.335 285.934 797.704 285.934C794.76 285.932 792.55 285.094 791.073 283.413Z" fill="#F2181E"/>
<path d="M815.343 252.27H822.565L828.722 285.484H822.722L821.54 278.186H816.49L815.267 285.484H809.149L815.343 252.27ZM820.906 274L818.973 260.633L817.078 274H820.906Z" fill="#F2181E"/>
<path d="M833.536 252.27H840.01V280.891H847.546V285.484H833.536V252.27Z" fill="#F2181E"/>
<path d="M852.201 252.27H866.132V256.946H858.674V265.762H864.435V270.476H858.674V280.891H866.21V285.484H852.201V252.27Z" fill="#F2181E"/>
<path d="M667.941 293.851C659.439 293.783 652.511 291.897 647.159 288.195C641.916 284.386 638.082 279.242 635.659 272.765C633.235 266.287 632.057 258.905 632.123 250.618L632.503 203.316C632.571 194.813 633.601 187.234 635.591 180.576C637.69 173.92 641.337 168.729 646.534 165.003C651.731 161.17 659.173 159.293 668.859 159.37C677.254 159.438 683.862 160.783 688.685 163.404C693.507 166.026 696.921 169.821 698.926 174.788C700.931 179.755 701.905 185.898 701.846 193.217C701.842 193.647 701.839 194.078 701.836 194.508C701.941 194.832 701.992 195.155 701.989 195.478L676.643 195.275C676.686 190.001 676.286 186.123 675.445 183.641C674.712 181.052 672.516 179.743 668.857 179.713C666.382 179.693 664.492 180.432 663.189 181.928C661.993 183.425 661.164 186.056 660.703 189.819C660.243 193.583 659.985 198.854 659.931 205.635L659.837 217.259C661.147 215.009 663.26 213.304 666.175 212.143C669.091 210.875 672.38 210.202 676.04 210.123C682.93 209.963 688.406 211.568 692.469 214.937C696.64 218.307 699.616 222.906 701.399 228.732C703.183 234.451 704.047 240.862 703.99 247.966C703.916 257.114 702.775 265.177 700.567 272.156C698.359 279.026 694.656 284.378 689.459 288.211C684.262 292.044 677.089 293.924 667.941 293.851ZM668.423 273.996C670.899 274.016 672.681 273.223 673.77 271.618C674.968 269.905 675.741 267.436 676.09 264.21C676.547 260.877 676.795 256.788 676.834 251.945C676.869 247.64 676.737 243.926 676.439 240.802C676.249 237.679 675.569 235.252 674.399 233.52C673.23 231.681 671.246 230.751 668.448 230.728C667.156 230.718 665.916 230.977 664.728 231.505C663.54 232.034 662.512 232.725 661.644 233.58C660.777 234.326 660.125 235.074 659.688 235.824L659.517 257.134C659.494 260.04 659.687 262.786 660.097 265.373C660.614 267.96 661.512 270.066 662.791 271.691C664.178 273.209 666.055 273.977 668.423 273.996Z" fill="white"/>
<path d="M741.729 294.927C732.15 294.851 724.899 293.124 719.975 289.748C715.159 286.265 711.915 281.449 710.242 275.301C708.569 269.152 707.765 262.042 707.83 253.97L733.822 254.179C733.782 259.129 734.019 263.168 734.532 266.293C735.045 269.419 735.996 271.687 737.383 273.097C738.88 274.4 740.974 275.009 743.665 274.923C746.464 274.838 748.465 273.724 749.666 271.581C750.867 269.438 751.591 266.376 751.838 262.396C752.194 258.309 752.395 253.413 752.441 247.709C752.475 243.404 752.237 239.581 751.725 236.24C751.322 232.9 750.374 230.255 748.883 228.306C747.5 226.25 745.356 225.21 742.45 225.187C739.759 225.165 737.545 226.116 735.808 228.04C734.07 229.963 732.808 232.967 732.022 237.051L708.775 236.864L711.801 161.491L772.826 161.981L772.644 184.582L733.253 184.266L731.584 211.215C732.672 209.717 734.727 208.442 737.749 207.39C740.772 206.23 744.007 205.503 747.454 205.207C754.133 204.507 759.719 205.79 764.214 209.055C768.817 212.213 772.222 217.03 774.431 223.506C776.747 229.983 777.867 237.903 777.792 247.266C777.736 254.262 777.253 260.716 776.345 266.629C775.437 272.434 773.728 277.479 771.218 281.764C768.709 285.941 765.077 289.195 760.323 291.525C755.568 293.855 749.37 294.989 741.729 294.927Z" fill="white"/>
</svg>
