<svg preserveAspectRatio="none" width="351" height="505" viewBox="0 0 351 505" fill="none" xmlns="http://www.w3.org/2000/svg">
<g clip-path="url(#clip0_165_632)">
<path d="M141.563 87.2683C141.563 87.2683 153.509 68.7813 176.625 83.4561" stroke="white" stroke-width="4.65596" stroke-linecap="round" stroke-linejoin="round"/>
<path d="M278.271 72.4045L35.7276 98.7753C20.2215 100.461 8.91787 114.523 10.6038 130.029L48.2299 476.092C49.9158 491.598 63.9773 502.902 79.4834 501.216L322.026 474.845C337.533 473.159 348.836 459.098 347.15 443.592L309.524 97.5284C307.838 82.0223 293.777 70.7186 278.271 72.4045ZM162.922 140.07C155.702 140.855 149.21 135.636 148.425 128.415C147.64 121.194 152.858 114.703 160.079 113.917C167.3 113.132 173.792 118.351 174.577 125.572C175.362 132.793 170.143 139.284 162.922 140.07Z" fill="#CA0B0B"/>
<path d="M103.64 356.957C94.0843 358.024 86.0529 356.839 79.5459 353.402C73.1462 349.83 68.1502 344.571 64.5578 337.624C60.9654 330.677 58.6491 322.547 57.6091 313.233L51.6727 260.073C50.6057 250.517 50.7421 241.868 52.0818 234.126C53.5426 226.37 56.9395 220.051 62.2727 215.169C67.5924 210.166 75.6953 207.057 86.5814 205.842C96.016 204.788 103.617 205.409 109.384 207.704C115.151 209.999 119.495 213.8 122.414 219.108C125.334 224.415 127.253 231.181 128.171 239.406C128.225 239.89 128.279 240.374 128.333 240.858C128.495 241.207 128.596 241.563 128.636 241.926L100.151 245.107C99.4891 239.18 98.5191 234.88 97.2407 232.206C96.0699 229.397 93.4282 228.223 89.3157 228.682C86.5337 228.993 84.5115 230.076 83.2491 231.931C82.1076 233.773 81.5314 236.838 81.5203 241.126C81.5092 245.413 81.9292 251.367 82.7801 258.987L84.2389 272.051C85.4067 269.348 87.5492 267.15 90.6665 265.455C93.7702 263.638 97.3716 262.44 101.471 261.86C109.185 260.754 115.55 261.819 120.565 265.055C125.701 268.278 129.661 273.04 132.447 279.342C135.219 285.523 137.051 292.606 137.943 300.589C139.091 310.87 138.894 320.077 137.353 328.209C135.798 336.221 132.361 342.728 127.041 347.73C121.722 352.733 113.921 355.809 103.64 356.957ZM101.511 334.6C104.293 334.289 106.187 333.159 107.194 331.21C108.309 329.126 108.845 326.249 108.802 322.58C108.867 318.776 108.596 314.153 107.988 308.71C107.448 303.872 106.8 299.719 106.046 296.252C105.412 292.771 104.322 290.137 102.776 288.35C101.215 286.443 98.8629 285.664 95.718 286.016C94.2665 286.178 92.9093 286.635 91.6463 287.389C90.3833 288.142 89.322 289.057 88.4624 290.132C87.5893 291.087 86.9581 292.015 86.5688 292.916L89.2432 316.865C89.6079 320.131 90.1942 323.188 91.0022 326.037C91.9312 328.873 93.2227 331.116 94.8768 332.769C96.6383 334.287 98.8496 334.897 101.511 334.6Z" fill="white"/>
<path d="M186.632 348.24C175.867 349.442 167.493 348.479 161.51 345.351C155.635 342.088 151.345 337.118 148.64 330.439C145.934 323.761 144.075 315.886 143.062 306.814L172.273 303.552C172.895 309.116 173.703 313.618 174.7 317.058C175.696 320.498 177.069 322.917 178.817 324.314C180.672 325.576 183.105 325.978 186.116 325.519C189.247 325.047 191.343 323.527 192.403 320.96C193.464 318.392 193.865 314.857 193.607 310.354C193.457 305.718 193.023 300.194 192.308 293.783C191.767 288.945 190.985 284.685 189.962 281.003C189.059 277.307 187.64 274.465 185.703 272.477C183.874 270.354 181.327 269.475 178.061 269.84C175.037 270.178 172.679 271.543 170.987 273.937C169.295 276.33 168.282 279.872 167.948 284.563L141.822 287.48L135.082 202.446L203.664 194.788L206.501 220.189L162.23 225.132L163.981 255.614C165.001 253.786 167.138 252.078 170.389 250.49C173.627 248.781 177.162 247.529 180.992 246.734C188.396 245.05 194.842 245.739 200.327 248.8C205.92 251.727 210.392 256.677 213.742 263.651C217.213 270.611 219.537 279.353 220.712 289.876C221.59 297.739 221.916 305.05 221.692 311.811C221.453 318.45 220.213 324.345 217.972 329.494C215.716 334.522 212.076 338.663 207.051 341.919C202.026 345.174 195.22 347.281 186.632 348.24Z" fill="white"/>
<path d="M280.453 91.1819L37.6319 117.583C32.5192 118.139 28.8251 122.734 29.381 127.847L67.0373 474.188C67.5932 479.301 72.1885 482.995 77.3012 482.439L320.122 456.038C325.235 455.482 328.929 450.887 328.373 445.774L290.717 99.4328C290.161 94.3201 285.565 90.626 280.453 91.1819Z" stroke="white" stroke-width="2.32798" stroke-linecap="round" stroke-linejoin="round" stroke-dasharray="6.98 6.98"/>
<path d="M160.077 113.894C152.856 114.679 147.638 121.171 148.423 128.392C149.208 135.613 155.7 140.831 162.92 140.046C170.141 139.261 175.36 132.769 174.575 125.549C173.79 118.328 167.298 113.109 160.077 113.894ZM162.473 135.927C157.543 136.463 153.104 132.894 152.568 127.965C152.032 123.035 155.6 118.596 160.53 118.06C165.459 117.524 169.899 121.093 170.435 126.022C170.971 130.952 167.402 135.391 162.473 135.927Z" fill="#990006"/>
<path d="M114.04 174.61L112.634 161.672L117.517 161.141L118.903 173.893C119.286 177.411 121.826 179.664 124.996 179.319C128.167 178.975 130.14 176.231 129.758 172.713L128.371 159.961L133.277 159.428L134.684 172.365C135.338 178.382 131.517 183.083 125.477 183.74C119.436 184.397 114.692 180.604 114.04 174.61Z" fill="white"/>
<path d="M137.744 158.942L147.996 157.827C152.949 157.289 156.93 160.088 157.42 164.601C157.911 169.114 154.602 172.705 149.672 173.241L144.303 173.825L145.108 181.231L140.225 181.762L137.746 158.965L137.744 158.942ZM148.652 168.809C151.082 168.545 152.587 167.093 152.375 165.149C152.164 163.205 150.359 162.113 147.952 162.375L143.115 162.901L143.815 169.335L148.652 168.809Z" fill="white"/>
<path d="M175.277 159.334L168.172 160.106L167.692 155.686L186.808 153.608L187.289 158.028L180.184 158.801L182.184 177.2L177.278 177.733L175.277 159.334Z" fill="white"/>
<path d="M189.319 164.856C188.622 158.445 193.616 152.469 200.165 151.757C206.715 151.045 212.876 155.808 213.573 162.219C214.27 168.63 209.351 174.644 202.732 175.364C196.113 176.083 190.016 171.267 189.319 164.856ZM208.528 162.767C208.098 158.81 204.467 155.786 200.625 156.203C196.783 156.621 193.934 160.35 194.364 164.307C194.794 168.265 198.428 171.312 202.223 170.899C206.019 170.487 208.961 166.748 208.528 162.767Z" fill="white"/>
<path d="M230.601 203.174C237.66 202.406 241.877 206.092 242.677 213.452L245.234 236.966C246.034 244.325 242.707 248.832 235.648 249.599C228.59 250.367 224.372 246.681 223.572 239.321L221.015 215.807C220.215 208.448 223.542 203.941 230.601 203.174ZM234.946 243.142C237.191 242.898 238.483 241.423 238.138 238.252L235.471 213.72C235.126 210.55 233.548 209.387 231.303 209.631C229.058 209.875 227.766 211.35 228.111 214.521L230.778 239.053C231.123 242.223 232.586 243.399 234.946 243.142ZM265.487 199.896L245.053 274.499L238.411 275.222L258.845 200.618L265.487 199.896ZM268.902 225.494C275.961 224.726 280.179 228.413 280.979 235.772L283.536 259.286C284.336 266.646 281.009 271.152 273.95 271.92C266.891 272.687 262.674 269.001 261.873 261.641L259.317 238.128C258.517 230.768 261.844 226.261 268.902 225.494ZM273.246 265.439C275.49 265.195 276.782 263.72 276.437 260.55L273.77 236.018C273.425 232.847 271.847 231.684 269.602 231.928C267.357 232.172 266.066 233.647 266.41 236.818L269.078 261.35C269.422 264.52 270.885 265.696 273.246 265.439Z" fill="white"/>
<path d="M236.115 291.582C242.942 290.84 247.132 294.482 247.902 301.564L250.406 324.592C251.176 331.674 247.89 336.129 241.039 336.874C234.189 337.619 230.022 333.974 229.252 326.892L226.749 303.864C225.979 296.782 229.265 292.327 236.115 291.582ZM240.355 330.579C242.577 330.337 243.834 328.983 243.49 325.812L240.888 301.882C240.543 298.711 239.024 297.659 236.802 297.9C234.58 298.142 233.322 299.496 233.667 302.667L236.269 326.597C236.614 329.768 238.133 330.82 240.355 330.579Z" fill="white"/>
<path d="M269.324 308.415L270.011 314.733L261.031 315.709L263.019 333.992L256.053 334.75L251.236 290.453L269.659 288.45L270.346 294.768L258.89 296.014L260.341 309.368L269.321 308.391L269.324 308.415Z" fill="white"/>
<path d="M291.079 306.049L291.766 312.367L282.786 313.344L284.774 331.627L277.808 332.384L272.992 288.088L291.414 286.085L292.101 292.403L280.645 293.649L282.097 307.002L291.076 306.026L291.079 306.049Z" fill="white"/>
<path d="M338.584 365.417L39.7296 397.91L47.8553 472.646L346.71 440.152L338.584 365.417Z" fill="#1C1C1C"/>
<path d="M145.149 414.874L144.593 409.826L139.603 410.375L139.373 408.286L144.363 407.736L143.807 402.688L146.012 402.445L146.568 407.493L151.559 406.944L151.789 409.033L146.799 409.583L147.355 414.631L145.149 414.874ZM174.365 416.226C172.617 416.419 171.039 416.276 169.632 415.797C168.225 415.319 167.079 414.538 166.195 413.456C165.311 412.374 164.779 411.012 164.598 409.372L164.498 408.465L168.708 408.001L168.807 408.908C168.957 410.268 169.491 411.247 170.409 411.845C171.325 412.421 172.505 412.63 173.952 412.471C175.42 412.309 176.478 411.897 177.126 411.236C177.795 410.572 178.08 409.787 177.98 408.881C177.912 408.255 177.683 407.767 177.295 407.416C176.907 407.066 176.365 406.808 175.67 406.645C174.972 406.459 174.125 406.312 173.13 406.203L172.368 406.124C170.776 405.949 169.39 405.665 168.21 405.271C167.05 404.852 166.12 404.245 165.421 403.448C164.743 402.649 164.328 401.558 164.175 400.177C164.023 398.795 164.217 397.583 164.758 396.54C165.318 395.474 166.163 394.616 167.293 393.967C168.442 393.294 169.826 392.869 171.445 392.691C173.064 392.512 174.531 392.635 175.844 393.058C177.177 393.457 178.261 394.168 179.094 395.191C179.947 396.189 180.464 397.509 180.644 399.149L180.751 400.121L176.542 400.584L176.435 399.613C176.34 398.749 176.091 398.078 175.689 397.598C175.306 397.094 174.788 396.757 174.136 396.589C173.481 396.399 172.722 396.351 171.859 396.446C170.564 396.589 169.631 396.943 169.059 397.509C168.507 398.05 168.278 398.742 168.37 399.584C168.432 400.145 168.625 400.604 168.948 400.962C169.293 401.317 169.771 401.592 170.383 401.787C170.994 401.982 171.764 402.126 172.692 402.221L173.454 402.301C175.111 402.468 176.563 402.756 177.81 403.165C179.056 403.573 180.052 404.185 180.797 404.998C181.564 405.81 182.023 406.906 182.175 408.288C182.328 409.669 182.106 410.928 181.51 412.064C180.933 413.176 180.031 414.106 178.802 414.853C177.593 415.576 176.114 416.034 174.365 416.226ZM172.754 419.747L169.43 389.57L173.316 389.142L176.64 419.319L172.754 419.747ZM194.454 414.014C192.684 414.209 191.117 414.064 189.753 413.581C188.411 413.095 187.331 412.319 186.514 411.251C185.698 410.183 185.206 408.893 185.04 407.382L185.004 407.058L189.213 406.595L189.245 406.886C189.364 407.966 189.823 408.854 190.621 409.553C191.438 410.228 192.559 410.487 193.983 410.33C195.408 410.173 196.456 409.675 197.129 408.836C197.82 407.974 198.098 406.927 197.963 405.697L197.927 405.373C197.794 404.164 197.299 403.246 196.444 402.62C195.61 401.99 194.621 401.739 193.477 401.865C192.851 401.934 192.342 402.077 191.951 402.295C191.56 402.513 191.249 402.766 191.019 403.053C190.788 403.341 190.601 403.624 190.457 403.902L185.438 404.454L184.04 391.762L199.517 390.057L199.931 393.813L188.598 395.062L189.208 400.598L189.791 400.534C189.976 400.23 190.238 399.928 190.576 399.628C190.914 399.329 191.366 399.061 191.929 398.824C192.493 398.587 193.174 398.424 193.973 398.337C195.311 398.189 196.562 398.335 197.725 398.775C198.887 399.215 199.853 399.95 200.622 400.98C201.41 401.985 201.892 403.287 202.068 404.884L202.111 405.273C202.286 406.87 202.093 408.289 201.531 409.531C200.99 410.77 200.119 411.784 198.916 412.572C197.712 413.338 196.225 413.819 194.454 414.014ZM215.196 411.729C212.52 412.024 210.291 411.527 208.511 410.237C206.728 408.926 205.671 406.77 205.34 403.77L204.713 398.071C204.392 395.157 204.958 392.855 206.41 391.166C207.86 389.455 209.924 388.452 212.6 388.158C215.298 387.86 217.531 388.39 219.297 389.747C221.082 391.079 222.135 393.203 222.456 396.117L223.084 401.815C223.414 404.816 222.852 407.15 221.397 408.818C219.962 410.461 217.895 411.432 215.196 411.729ZM214.79 408.038C216.409 407.86 217.547 407.286 218.205 406.318C218.885 405.348 219.134 404.042 218.954 402.401L218.29 396.379C218.107 394.717 217.538 393.513 216.581 392.766C215.645 391.995 214.453 391.689 213.007 391.849C211.517 392.013 210.4 392.584 209.656 393.561C208.933 394.537 208.66 395.823 208.836 397.42L209.499 403.443C209.687 405.148 210.217 406.39 211.089 407.167C211.981 407.921 213.214 408.211 214.79 408.038ZM236.839 409.345C234.163 409.64 231.934 409.143 230.154 407.853C228.371 406.542 227.314 404.386 226.983 401.386L226.356 395.687C226.035 392.773 226.601 390.472 228.053 388.782C229.503 387.071 231.567 386.068 234.243 385.774C236.941 385.476 239.174 386.006 240.94 387.363C242.725 388.696 243.778 390.819 244.099 393.733L244.727 399.432C245.057 402.432 244.495 404.766 243.04 406.434C241.605 408.078 239.538 409.048 236.839 409.345ZM236.433 405.654C238.052 405.476 239.19 404.902 239.848 403.934C240.528 402.964 240.777 401.658 240.597 400.018L239.933 393.995C239.75 392.333 239.181 391.129 238.224 390.382C237.288 389.611 236.096 389.306 234.65 389.465C233.16 389.629 232.043 390.2 231.299 391.177C230.576 392.153 230.303 393.439 230.479 395.037L231.142 401.059C231.33 402.764 231.86 404.006 232.732 404.784C233.624 405.537 234.857 405.828 236.433 405.654ZM118.373 451.46C116.319 451.686 114.619 451.274 113.273 450.225C111.925 449.16 111.125 447.485 110.874 445.201L110.439 441.257C110.188 438.973 110.605 437.173 111.69 435.856C112.774 434.522 114.343 433.743 116.397 433.516C118.435 433.292 120.058 433.687 121.267 434.701C122.493 435.714 123.215 437.206 123.432 439.178L123.445 439.301L121.4 439.526L121.378 439.329C121.235 438.031 120.765 437.01 119.968 436.266C119.185 435.504 118.063 435.204 116.601 435.365C115.138 435.526 114.046 436.104 113.324 437.098C112.6 438.076 112.327 439.37 112.504 440.98L112.95 445.022C113.127 446.632 113.676 447.844 114.597 448.657C115.517 449.454 116.707 449.772 118.17 449.611C119.632 449.45 120.663 448.921 121.263 448.023C121.877 447.107 122.113 446 121.97 444.702L121.926 444.308L123.972 444.082L124.007 444.403C124.225 446.375 123.845 447.988 122.869 449.243C121.909 450.496 120.411 451.235 118.373 451.46ZM132.215 449.935C131.377 450.027 130.597 449.964 129.874 449.744C129.152 449.524 128.562 449.157 128.106 448.641C127.651 448.126 127.378 447.466 127.29 446.661C127.199 445.839 127.322 445.144 127.658 444.574C127.993 443.989 128.491 443.527 129.152 443.188C129.812 442.832 130.568 442.608 131.423 442.513L135.49 442.065L135.392 441.178C135.298 440.324 134.969 439.678 134.405 439.241C133.858 438.803 133.091 438.638 132.106 438.746C131.136 438.853 130.406 439.174 129.917 439.711C129.425 440.23 129.124 440.896 129.014 441.706L127.125 441.315C127.248 440.62 127.493 439.978 127.861 439.388C128.226 438.783 128.744 438.277 129.415 437.87C130.1 437.445 130.943 437.178 131.946 437.067C133.49 436.897 134.734 437.168 135.677 437.879C136.618 438.573 137.169 439.644 137.328 441.09L137.928 446.537C137.982 447.03 138.239 447.251 138.7 447.2L139.809 447.078L139.991 448.729L138.29 448.917C137.748 448.976 137.296 448.876 136.935 448.617C136.572 448.341 136.362 447.948 136.306 447.439L136.292 447.316L135.997 447.348C135.85 447.68 135.64 448.036 135.366 448.415C135.106 448.777 134.725 449.093 134.223 449.365C133.723 449.652 133.053 449.843 132.215 449.935ZM132.253 448.234C133.403 448.108 134.294 447.669 134.926 446.917C135.573 446.147 135.829 445.146 135.693 443.914L135.663 443.643L131.671 444.083C130.898 444.168 130.276 444.411 129.805 444.812C129.348 445.195 129.157 445.723 129.231 446.397C129.305 447.071 129.618 447.568 130.169 447.89C130.737 448.21 131.431 448.325 132.253 448.234ZM147.947 448.202C146.452 448.367 145.149 448.161 144.038 447.585C142.943 447.007 142.206 445.982 141.828 444.511L143.631 443.888C143.849 444.662 144.164 445.259 144.576 445.68C144.987 446.083 145.466 446.355 146.013 446.494C146.575 446.615 147.16 446.642 147.768 446.575C148.672 446.476 149.367 446.216 149.853 445.797C150.339 445.378 150.548 444.864 150.481 444.256C150.413 443.632 150.11 443.224 149.573 443.034C149.052 442.825 148.346 442.687 147.457 442.618L146.428 442.557C145.641 442.511 144.912 442.383 144.24 442.174C143.568 441.966 143.017 441.644 142.587 441.209C142.157 440.774 141.902 440.195 141.822 439.472C141.703 438.388 142.028 437.495 142.799 436.795C143.57 436.095 144.646 435.669 146.026 435.517C147.39 435.366 148.525 435.557 149.432 436.089C150.354 436.603 150.999 437.405 151.369 438.495L149.596 439.165C149.352 438.31 148.932 437.741 148.336 437.457C147.737 437.157 147.027 437.053 146.205 437.143C145.384 437.234 144.752 437.461 144.31 437.826C143.866 438.174 143.677 438.644 143.742 439.236C143.805 439.811 144.074 440.214 144.548 440.444C145.037 440.656 145.667 440.786 146.437 440.835L147.467 440.896C148.338 440.95 149.124 441.071 149.827 441.26C150.544 441.43 151.126 441.732 151.573 442.165C152.036 442.596 152.311 443.198 152.396 443.97C152.526 445.153 152.183 446.114 151.366 446.853C150.566 447.589 149.426 448.039 147.947 448.202ZM156.544 446.906L154.644 429.653L156.591 429.438L157.376 436.561L157.721 436.523C157.845 436.144 158.055 435.78 158.349 435.431C158.658 435.065 159.063 434.746 159.566 434.474C160.084 434.201 160.755 434.019 161.576 433.928C162.48 433.829 163.307 433.937 164.057 434.254C164.821 434.552 165.458 435.048 165.967 435.74C166.473 436.416 166.787 437.296 166.906 438.381L167.71 445.676L165.762 445.891L164.975 438.743C164.843 437.543 164.443 436.706 163.775 436.231C163.124 435.754 162.289 435.571 161.27 435.683C160.104 435.812 159.192 436.295 158.536 437.132C157.897 437.968 157.659 439.133 157.824 440.628L158.492 446.691L156.544 446.906ZM178.902 444.443L177.002 427.19L183.977 426.422C185.045 426.304 186.003 426.39 186.849 426.679C187.711 426.95 188.41 427.406 188.946 428.045C189.48 428.668 189.8 429.456 189.905 430.409L189.934 430.68C190.059 431.814 189.887 432.739 189.417 433.456C188.947 434.173 188.355 434.688 187.641 434.999L187.679 435.344C188.272 435.295 188.779 435.439 189.198 435.775C189.633 436.094 189.89 436.622 189.972 437.362L190.61 443.154L188.564 443.379L187.953 437.833C187.899 437.341 187.718 436.978 187.409 436.746C187.117 436.512 186.7 436.425 186.158 436.485L180.194 437.142L180.973 444.215L178.902 444.443ZM179.987 435.268L184.695 434.75C185.829 434.625 186.67 434.258 187.218 433.649C187.781 433.021 188.008 432.215 187.899 431.229L187.88 431.056C187.772 430.07 187.384 429.34 186.716 428.864C186.046 428.373 185.137 428.19 183.986 428.317L179.279 428.835L179.987 435.268ZM200.577 442.405C199.361 442.539 198.265 442.402 197.289 441.994C196.311 441.57 195.515 440.917 194.903 440.037C194.29 439.156 193.916 438.1 193.781 436.867L193.748 436.572C193.61 435.323 193.745 434.202 194.151 433.209C194.557 432.217 195.184 431.416 196.032 430.807C196.878 430.182 197.884 429.805 199.05 429.676C200.184 429.551 201.214 429.687 202.139 430.084C203.062 430.465 203.82 431.08 204.413 431.929C205.005 432.779 205.368 433.811 205.502 435.027L205.6 435.915L195.766 436.998C195.958 438.291 196.489 439.263 197.359 439.916C198.228 440.552 199.253 440.805 200.436 440.674C201.472 440.56 202.242 440.234 202.748 439.696C203.255 439.158 203.619 438.544 203.843 437.854L205.608 438.483C205.418 439.02 205.129 439.567 204.742 440.125C204.37 440.682 203.851 441.171 203.182 441.594C202.53 442.015 201.662 442.286 200.577 442.405ZM195.614 435.393L203.452 434.53C203.263 433.42 202.781 432.591 202.005 432.045C201.247 431.496 200.325 431.282 199.24 431.401C198.14 431.523 197.27 431.934 196.632 432.637C195.995 433.339 195.655 434.258 195.614 435.393ZM211.533 440.849L207.79 429.063L209.761 428.846L212.941 439.372L213.287 439.334L214.74 428.297L217.969 427.942L221.79 438.397L222.135 438.359L222.948 427.393L224.919 427.176L223.832 439.495L220.504 439.861L216.659 429.408L216.338 429.443L214.86 440.483L211.533 440.849ZM233.629 438.765C232.791 438.857 232.011 438.793 231.288 438.573C230.565 438.354 229.976 437.986 229.52 437.471C229.064 436.956 228.792 436.296 228.703 435.49C228.613 434.669 228.736 433.973 229.072 433.404C229.407 432.819 229.905 432.356 230.566 432.017C231.225 431.662 231.982 431.437 232.837 431.343L236.903 430.895L236.806 430.008C236.712 429.153 236.383 428.508 235.819 428.071C235.272 427.632 234.505 427.467 233.519 427.576C232.55 427.683 231.82 428.004 231.33 428.54C230.839 429.06 230.538 429.725 230.428 430.536L228.539 430.145C228.662 429.45 228.907 428.807 229.274 428.218C229.64 427.612 230.158 427.106 230.828 426.7C231.513 426.275 232.357 426.008 233.359 425.897C234.904 425.727 236.148 425.997 237.091 426.708C238.032 427.403 238.582 428.473 238.742 429.919L239.342 435.366C239.396 435.859 239.653 436.08 240.113 436.03L241.222 435.908L241.404 437.559L239.704 437.746C239.161 437.806 238.71 437.706 238.348 437.447C237.985 437.171 237.776 436.778 237.72 436.268L237.706 436.145L237.41 436.178C237.264 436.51 237.054 436.866 236.78 437.245C236.52 437.606 236.139 437.923 235.637 438.194C235.136 438.482 234.467 438.672 233.629 438.765ZM233.666 437.064C234.817 436.938 235.708 436.498 236.34 435.747C236.987 434.977 237.243 433.976 237.107 432.744L237.077 432.473L233.084 432.912C232.312 432.997 231.69 433.241 231.219 433.642C230.762 434.025 230.571 434.553 230.645 435.227C230.719 435.9 231.032 436.398 231.583 436.72C232.15 437.04 232.845 437.155 233.666 437.064ZM244.564 437.211L243.236 425.158L245.134 424.949L245.297 426.428L245.642 426.39C245.798 425.841 246.084 425.419 246.5 425.123C246.917 424.828 247.487 424.64 248.21 424.561L249.639 424.403L249.835 426.178L248.282 426.349C247.411 426.445 246.732 426.769 246.244 427.322C245.77 427.856 245.59 428.633 245.702 429.652L246.511 436.996L244.564 437.211ZM259.054 435.964C258.019 436.078 257.039 435.937 256.114 435.54C255.189 435.143 254.42 434.504 253.807 433.623C253.195 432.743 252.818 431.662 252.677 430.38L252.642 430.06C252.5 428.778 252.634 427.649 253.042 426.673C253.448 425.68 254.051 424.89 254.851 424.303C255.666 423.698 256.599 423.337 257.651 423.222C258.489 423.129 259.208 423.166 259.809 423.333C260.424 423.482 260.931 423.708 261.33 424.014C261.728 424.302 262.046 424.625 262.285 424.981L262.63 424.943L261.848 417.845L263.795 417.63L265.696 434.883L263.798 435.092L263.578 433.096L263.233 433.134C262.971 433.778 262.522 434.376 261.884 434.929C261.246 435.482 260.303 435.827 259.054 435.964ZM259.382 434.182C260.631 434.044 261.598 433.539 262.283 432.665C262.983 431.773 263.255 430.612 263.097 429.183L263.073 428.961C262.915 427.531 262.399 426.465 261.523 425.764C260.662 425.044 259.607 424.752 258.359 424.89C257.126 425.026 256.152 425.54 255.435 426.434C254.733 427.31 254.461 428.462 254.619 429.892L254.643 430.114C254.801 431.543 255.318 432.617 256.195 433.335C257.087 434.035 258.15 434.318 259.382 434.182ZM275.163 434.19C273.668 434.355 272.364 434.149 271.253 433.573C270.158 432.995 269.422 431.97 269.043 430.498L270.846 429.876C271.064 430.65 271.379 431.247 271.792 431.667C272.202 432.071 272.681 432.343 273.228 432.482C273.791 432.603 274.376 432.63 274.984 432.563C275.887 432.464 276.582 432.204 277.068 431.785C277.554 431.365 277.764 430.852 277.697 430.244C277.628 429.619 277.325 429.212 276.789 429.022C276.267 428.813 275.561 428.674 274.672 428.606L273.643 428.545C272.856 428.498 272.127 428.371 271.455 428.162C270.784 427.953 270.233 427.632 269.802 427.197C269.372 426.762 269.117 426.183 269.037 425.46C268.918 424.375 269.244 423.483 270.015 422.783C270.786 422.082 271.861 421.656 273.242 421.504C274.605 421.354 275.741 421.545 276.648 422.077C277.569 422.591 278.214 423.393 278.584 424.483L276.812 425.152C276.568 424.298 276.148 423.729 275.551 423.445C274.952 423.145 274.242 423.04 273.421 423.131C272.599 423.221 271.967 423.449 271.525 423.814C271.081 424.162 270.892 424.632 270.957 425.223C271.02 425.799 271.289 426.201 271.764 426.432C272.253 426.644 272.882 426.774 273.653 426.822L274.682 426.884C275.553 426.937 276.34 427.059 277.042 427.247C277.76 427.418 278.342 427.72 278.789 428.153C279.252 428.584 279.526 429.186 279.611 429.958C279.741 431.141 279.398 432.102 278.581 432.84C277.781 433.577 276.642 434.027 275.163 434.19Z" fill="url(#paint0_linear_165_632)"/>
<path d="M157.351 373.031C156.256 373.17 155.218 373.121 154.236 372.883C153.267 372.644 152.399 372.245 151.631 371.685C150.876 371.124 150.252 370.433 149.759 369.61C149.279 368.787 148.974 367.86 148.844 366.831C148.713 365.802 148.777 364.829 149.036 363.911C149.308 362.992 149.746 362.165 150.351 361.432C150.955 360.698 151.696 360.095 152.574 359.622C153.453 359.148 154.433 358.843 155.514 358.706C156.609 358.567 157.635 358.618 158.59 358.859C159.559 359.098 160.421 359.498 161.176 360.059C161.944 360.618 162.574 361.309 163.067 362.131C163.559 362.94 163.87 363.866 164.003 364.908C164.133 365.937 164.063 366.918 163.793 367.851C163.52 368.77 163.082 369.596 162.478 370.33C161.886 371.048 161.15 371.644 160.272 372.118C159.407 372.589 158.433 372.894 157.351 373.031ZM156.985 370.303C157.605 370.224 158.159 370.046 158.647 369.77C159.148 369.492 159.571 369.13 159.917 368.684C160.262 368.238 160.507 367.731 160.649 367.164C160.805 366.594 160.841 365.98 160.757 365.32C160.673 364.66 160.485 364.074 160.192 363.562C159.913 363.048 159.55 362.618 159.104 362.272C158.671 361.925 158.177 361.679 157.623 361.535C157.068 361.391 156.481 361.358 155.861 361.437C155.241 361.515 154.68 361.694 154.179 361.972C153.692 362.248 153.275 362.609 152.929 363.055C152.584 363.501 152.333 364.009 152.177 364.578C152.035 365.146 152.005 365.76 152.089 366.419C152.171 367.066 152.353 367.653 152.634 368.18C152.927 368.693 153.29 369.122 153.723 369.47C154.169 369.815 154.669 370.06 155.223 370.204C155.778 370.348 156.365 370.381 156.985 370.303ZM167.686 371.479L165.929 357.626L168.581 357.29L178.019 366.227L176.733 366.39L175.468 356.416L178.634 356.015L180.391 369.868L177.759 370.201L168.301 361.266L169.588 361.103L170.853 371.077L167.686 371.479ZM188.244 368.872L192.662 354.236L195.828 353.834L203.78 366.901L200.415 367.328L193.798 355.74L195.064 355.58L191.53 368.455L188.244 368.872ZM190.955 365.512L191.497 362.969L198.622 362.066L199.801 364.39L190.955 365.512ZM205.613 366.669L203.856 352.816L207.062 352.409L208.487 363.65L215.433 362.769L215.765 365.381L205.613 366.669ZM217.952 365.104L216.195 351.251L219.401 350.844L220.827 362.085L227.773 361.204L228.104 363.816L217.952 365.104ZM236.292 362.778L234.535 348.925L240.531 348.164C241.771 348.007 242.866 348.076 243.815 348.371C244.762 348.653 245.527 349.139 246.111 349.829C246.695 350.52 247.052 351.386 247.185 352.428C247.315 353.457 247.184 354.379 246.791 355.192C246.398 356.006 245.779 356.675 244.934 357.198C244.087 357.707 243.044 358.041 241.803 358.198L237.588 358.732L238.83 357.107L239.497 362.371L236.292 362.778ZM238.875 357.463L237.257 356.12L241.294 355.608C242.284 355.483 242.996 355.178 243.43 354.694C243.865 354.21 244.034 353.592 243.939 352.84C243.842 352.074 243.523 351.512 242.981 351.151C242.439 350.791 241.674 350.674 240.684 350.799L236.647 351.311L237.879 349.607L238.875 357.463ZM250.989 360.914L249.232 347.061L252.438 346.654L253.863 357.895L260.81 357.014L261.141 359.626L250.989 360.914ZM261.585 359.57L266.002 344.934L269.168 344.532L277.12 357.6L273.755 358.026L267.138 346.439L268.405 346.278L264.87 359.153L261.585 359.57ZM264.295 356.21L264.838 353.668L271.962 352.764L273.141 355.088L264.295 356.21ZM278.953 357.367L277.196 343.514L279.848 343.178L289.286 352.115L287.999 352.278L286.734 342.304L289.901 341.903L291.658 355.756L289.026 356.09L279.568 347.155L280.854 346.991L282.119 356.965L278.953 357.367ZM299.913 354.95C298.805 355.091 297.724 355.08 296.672 354.919C295.617 354.744 294.75 354.459 294.069 354.062L294.852 351.51C295.499 351.857 296.243 352.118 297.082 352.293C297.934 352.453 298.775 352.48 299.606 352.375C300.24 352.294 300.74 352.171 301.108 352.003C301.487 351.821 301.754 351.606 301.911 351.359C302.067 351.111 302.127 350.842 302.09 350.552C302.043 350.182 301.861 349.91 301.544 349.736C301.225 349.549 300.82 349.419 300.328 349.347C299.835 349.263 299.291 349.198 298.695 349.152C298.111 349.092 297.517 349.007 296.913 348.896C296.322 348.783 295.771 348.612 295.259 348.382C294.748 348.152 294.31 347.818 293.946 347.382C293.596 346.944 293.374 346.355 293.28 345.617C293.179 344.825 293.299 344.079 293.64 343.379C293.991 342.664 294.572 342.061 295.381 341.57C296.201 341.063 297.265 340.728 298.571 340.562C299.441 340.451 300.312 340.448 301.184 340.552C302.053 340.643 302.837 340.852 303.535 341.179L302.854 343.739C302.161 343.451 301.48 343.263 300.812 343.173C300.142 343.07 299.497 343.058 298.877 343.137C298.257 343.216 297.758 343.353 297.381 343.548C297.004 343.743 296.744 343.971 296.603 344.23C296.46 344.476 296.407 344.751 296.446 345.054C296.491 345.41 296.673 345.682 296.992 345.87C297.309 346.044 297.713 346.167 298.205 346.239C298.696 346.31 299.234 346.376 299.818 346.436C300.416 346.494 301.009 346.573 301.598 346.673C302.2 346.771 302.757 346.935 303.269 347.165C303.781 347.395 304.212 347.729 304.562 348.167C304.926 348.603 305.154 349.185 305.246 349.91C305.345 350.689 305.217 351.429 304.864 352.13C304.51 352.832 303.924 353.436 303.103 353.942C302.296 354.447 301.232 354.783 299.913 354.95Z" fill="white"/>
<path d="M161.626 125.61C161.626 125.61 129.198 23.6258 156.788 22.3334C184.377 21.041 161.626 125.61 161.626 125.61Z" stroke="white" stroke-width="3.68264" stroke-linecap="round" stroke-linejoin="round"/>
</g>
<defs>
<linearGradient id="paint0_linear_165_632" x1="189.981" y1="390.909" x2="195.675" y2="442.596" gradientUnits="userSpaceOnUse">
<stop offset="0.15" stop-color="white"/>
<stop offset="1" stop-color="white" stop-opacity="0.64"/>
</linearGradient>
<clipPath id="clip0_165_632">
<rect width="300.682" height="474.538" fill="white" transform="translate(0 32.5004) rotate(-6.20516)"/>
</clipPath>
</defs>
</svg>
