<svg width="28" height="28" viewBox="0 0 28 28" fill="none" xmlns="http://www.w3.org/2000/svg">
<path d="M13.0508 18.85H24.6508V2.9H8.70078V14.5H5.80078V2.175C5.80078 0.973777 6.77456 0 7.97578 0H25.3758C26.5769 0 27.5508 0.973777 27.5508 2.175V19.575C27.5508 20.7762 26.5769 21.75 25.3758 21.75H13.0508V18.85Z" fill="white"/>
<path d="M13.0496 5.79983C12.2488 5.79985 11.5996 6.44903 11.5996 7.24985C11.5996 8.05065 12.2488 8.69985 13.0496 8.69983L16.799 8.69982L12.0243 13.4745C11.458 14.0408 11.458 14.9589 12.0243 15.5251C12.5906 16.0914 13.5087 16.0914 14.0749 15.5251L18.8496 10.7504V14.4998C18.8496 15.3007 19.4988 15.9498 20.2996 15.9498C21.1004 15.9498 21.7496 15.3007 21.7496 14.4998V7.2498C21.7496 7.21358 21.7483 7.17751 21.7455 7.14164C21.7197 6.79664 21.5713 6.47082 21.3249 6.2245C21.3098 6.20931 21.2943 6.19451 21.2785 6.18008C21.0262 5.94889 20.712 5.82314 20.3923 5.80278C20.3615 5.80081 20.3306 5.7998 20.2996 5.7998L13.0496 5.79983Z" fill="white"/>
<path d="M0 19.5749C0 18.3737 0.973781 17.3999 2.175 17.3999H7.975C9.17622 17.3999 10.15 18.3737 10.15 19.5749V25.3749C10.15 26.5761 9.17622 27.5499 7.975 27.5499H2.175C0.973781 27.5499 0 26.5761 0 25.3749V19.5749Z" fill="white"/>
</svg>
