<svg width="87" height="23" viewBox="0 0 87 23" fill="none" xmlns="http://www.w3.org/2000/svg">
<g clip-path="url(#clip0_189_945)">
<path d="M11.9541 22.2164C17.8583 22.2164 22.6447 17.3646 22.6447 11.3795C22.6447 5.39436 17.8583 0.54248 11.9541 0.54248C6.0499 0.54248 1.26358 5.39436 1.26358 11.3795C1.26358 17.3646 6.0499 22.2164 11.9541 22.2164Z" fill="url(#paint0_linear_189_945)"/>
<path fill-rule="evenodd" clip-rule="evenodd" d="M6.10926 11.261C9.22317 9.87679 11.3047 8.98215 12.3371 8.54327C15.3011 7.29415 15.9172 7.07471 16.3169 7.07471C16.4002 7.07471 16.6 7.09159 16.7332 7.19287C16.8331 7.27727 16.8664 7.39543 16.8831 7.47983C16.8997 7.56423 16.9164 7.74991 16.8997 7.90183C16.7332 9.60671 16.0505 13.7761 15.6841 15.6835C15.5343 16.4938 15.2345 16.7638 14.9514 16.7976C14.3353 16.8482 13.8524 16.3756 13.2529 15.9874C12.3204 15.3628 11.7876 14.9746 10.8717 14.3669C9.82264 13.6579 10.5054 13.2697 11.1048 12.6451C11.2547 12.4763 14.0023 9.96119 14.0522 9.72487C14.0522 9.69111 14.0689 9.58983 14.0023 9.53919C13.9357 9.48855 13.8524 9.50543 13.7858 9.52231C13.6859 9.53919 12.1872 10.552 9.27313 12.5438C8.84018 12.8477 8.45718 12.9827 8.10749 12.9827C7.7245 12.9827 6.99181 12.7633 6.4423 12.5776C5.77622 12.3582 5.24336 12.24 5.29332 11.8686C5.34327 11.6661 5.6097 11.4635 6.10926 11.261Z" fill="white"/>
</g>
<path d="M30.166 7.67907V6.30046H37.4092V7.67907H34.6032V15.3789H32.9719V7.67907H30.166ZM40.731 15.5119C40.0483 15.5119 39.4587 15.37 38.9623 15.0863C38.4687 14.7997 38.089 14.3948 37.823 13.8717C37.5571 13.3457 37.4241 12.7266 37.4241 12.0144C37.4241 11.314 37.5571 10.6993 37.823 10.1703C38.092 9.63839 38.4673 9.22465 38.949 8.92913C39.4307 8.63065 39.9966 8.48142 40.6467 8.48142C41.0664 8.48142 41.4624 8.54939 41.8347 8.68533C42.2101 8.81831 42.541 9.02518 42.8277 9.30592C43.1173 9.58667 43.3449 9.94425 43.5104 10.3787C43.6758 10.8101 43.7586 11.3243 43.7586 11.9213V12.4133H38.1777V11.3317H42.2204C42.2174 11.0244 42.151 10.751 42.0209 10.5117C41.8909 10.2693 41.7091 10.0787 41.4757 9.93982C41.2452 9.80092 40.9763 9.73147 40.6689 9.73147C40.3409 9.73147 40.0527 9.81127 39.8045 9.97085C39.5563 10.1275 39.3627 10.3343 39.2238 10.5914C39.0879 10.8456 39.0184 11.1249 39.0155 11.4293V12.3734C39.0155 12.7694 39.0879 13.1093 39.2327 13.393C39.3775 13.6737 39.5799 13.8895 39.84 14.0402C40.1 14.188 40.4044 14.2618 40.7531 14.2618C40.9866 14.2618 41.1979 14.2293 41.387 14.1643C41.5762 14.0963 41.7402 13.9973 41.8791 13.8673C42.018 13.7373 42.1229 13.5762 42.1938 13.3841L43.6921 13.5526C43.5975 13.9486 43.4173 14.2943 43.1513 14.5899C42.8883 14.8824 42.5514 15.11 42.1406 15.2725C41.7298 15.4321 41.26 15.5119 40.731 15.5119ZM46.6903 6.30046V15.3789H45.0856V6.30046H46.6903ZM51.3241 15.5119C50.6415 15.5119 50.0519 15.37 49.5554 15.0863C49.0619 14.7997 48.6822 14.3948 48.4162 13.8717C48.1502 13.3457 48.0172 12.7266 48.0172 12.0144C48.0172 11.314 48.1502 10.6993 48.4162 10.1703C48.6851 9.63839 49.0604 9.22465 49.5421 8.92913C50.0238 8.63065 50.5898 8.48142 51.2399 8.48142C51.6596 8.48142 52.0556 8.54939 52.4279 8.68533C52.8032 8.81831 53.1342 9.02518 53.4209 9.30592C53.7105 9.58667 53.938 9.94425 54.1035 10.3787C54.269 10.8101 54.3518 11.3243 54.3518 11.9213V12.4133H48.7708V11.3317H52.8136C52.8106 11.0244 52.7441 10.751 52.6141 10.5117C52.4841 10.2693 52.3023 10.0787 52.0689 9.93982C51.8383 9.80092 51.5694 9.73147 51.2621 9.73147C50.934 9.73147 50.6459 9.81127 50.3977 9.97085C50.1494 10.1275 49.9559 10.3343 49.817 10.5914C49.681 10.8456 49.6116 11.1249 49.6086 11.4293V12.3734C49.6086 12.7694 49.681 13.1093 49.8258 13.393C49.9706 13.6737 50.1731 13.8895 50.4331 14.0402C50.6932 14.188 50.9976 14.2618 51.3463 14.2618C51.5798 14.2618 51.7911 14.2293 51.9802 14.1643C52.1693 14.0963 52.3333 13.9973 52.4722 13.8673C52.6111 13.7373 52.716 13.5762 52.787 13.3841L54.2853 13.5526C54.1907 13.9486 54.0104 14.2943 53.7445 14.5899C53.4815 14.8824 53.1446 15.11 52.7338 15.2725C52.323 15.4321 51.8531 15.5119 51.3241 15.5119ZM58.6399 18.0741C58.0636 18.0741 57.5686 17.9958 57.1549 17.8391C56.7411 17.6855 56.4087 17.4786 56.1575 17.2185C55.9063 16.9585 55.7319 16.6703 55.6344 16.3541L57.0795 16.0039C57.1445 16.1369 57.2391 16.2684 57.3632 16.3985C57.4873 16.5314 57.6543 16.6408 57.8641 16.7265C58.0769 16.8151 58.3444 16.8595 58.6665 16.8595C59.1216 16.8595 59.4984 16.7487 59.7968 16.527C60.0953 16.3083 60.2446 15.9478 60.2446 15.4454V14.1554H60.1648C60.082 14.3209 59.9609 14.4909 59.8013 14.6652C59.6447 14.8396 59.4363 14.9859 59.1763 15.1041C58.9191 15.2223 58.5956 15.2814 58.2055 15.2814C57.6824 15.2814 57.2081 15.1587 56.7825 14.9135C56.3599 14.6652 56.023 14.2958 55.7718 13.8052C55.5236 13.3117 55.3995 12.6941 55.3995 11.9523C55.3995 11.2047 55.5236 10.5737 55.7718 10.0595C56.023 9.54234 56.3614 9.15077 56.787 8.8848C57.2125 8.61588 57.6868 8.48142 58.2099 8.48142C58.6088 8.48142 58.9369 8.54939 59.194 8.68533C59.454 8.81831 59.6609 8.97937 59.8146 9.1685C59.9683 9.35468 60.085 9.53052 60.1648 9.69601H60.2534V8.57007H61.836V15.4897C61.836 16.0719 61.6971 16.5536 61.4193 16.9348C61.1415 17.3161 60.7617 17.6012 60.28 17.7904C59.7983 17.9795 59.2516 18.0741 58.6399 18.0741ZM58.6532 14.0225C58.993 14.0225 59.2826 13.9397 59.522 13.7742C59.7614 13.6087 59.9431 13.3708 60.0673 13.0605C60.1914 12.7502 60.2534 12.3779 60.2534 11.9435C60.2534 11.515 60.1914 11.1396 60.0673 10.8175C59.9461 10.4954 59.7658 10.2457 59.5264 10.0684C59.29 9.8881 58.9989 9.79797 58.6532 9.79797C58.2956 9.79797 57.9971 9.89106 57.7577 10.0772C57.5184 10.2634 57.3381 10.519 57.2169 10.8441C57.0958 11.1662 57.0352 11.5327 57.0352 11.9435C57.0352 12.3601 57.0958 12.7251 57.2169 13.0384C57.3411 13.3487 57.5228 13.591 57.7622 13.7654C58.0045 13.9368 58.3015 14.0225 58.6532 14.0225ZM63.45 15.3789V8.57007H65.0059V9.70488H65.0768C65.2009 9.31183 65.4137 9.00892 65.7151 8.79615C66.0195 8.58042 66.3668 8.47255 66.7569 8.47255C66.8455 8.47255 66.9445 8.47698 67.0539 8.48585C67.1662 8.49176 67.2592 8.5021 67.3331 8.51688V9.99301C67.2652 9.96937 67.1573 9.94868 67.0095 9.93095C66.8647 9.91027 66.7243 9.89992 66.5884 9.89992C66.2958 9.89992 66.0328 9.96346 65.7994 10.0905C65.5689 10.2147 65.3871 10.3875 65.2541 10.6092C65.1211 10.8308 65.0546 11.0864 65.0546 11.3761V15.3789H63.45ZM70.2061 15.5163C69.7746 15.5163 69.386 15.4395 69.0402 15.2858C68.6974 15.1292 68.4255 14.8987 68.2246 14.5943C68.0266 14.2899 67.9276 13.9146 67.9276 13.4684C67.9276 13.0842 67.9985 12.7665 68.1404 12.5153C68.2822 12.2641 68.4758 12.0631 68.7211 11.9124C68.9663 11.7617 69.2427 11.6479 69.55 11.5711C69.8603 11.4913 70.1809 11.4337 70.5119 11.3982C70.9109 11.3568 71.2345 11.3199 71.4827 11.2874C71.731 11.2519 71.9112 11.1987 72.0235 11.1278C72.1388 11.0539 72.1964 10.9402 72.1964 10.7865V10.7599C72.1964 10.426 72.0974 10.1674 71.8994 9.98415C71.7014 9.80092 71.4162 9.70931 71.0439 9.70931C70.6508 9.70931 70.339 9.79501 70.1085 9.96642C69.881 10.1378 69.7273 10.3403 69.6475 10.5737L68.1492 10.3609C68.2674 9.94721 68.4625 9.60144 68.7344 9.32365C69.0062 9.04291 69.3387 8.83309 69.7317 8.69419C70.1248 8.55234 70.5592 8.48142 71.035 8.48142C71.363 8.48142 71.6896 8.51983 72.0147 8.59667C72.3397 8.6735 72.6367 8.80058 72.9057 8.97789C73.1746 9.15225 73.3903 9.39015 73.5528 9.69158C73.7183 9.99301 73.8011 10.3698 73.8011 10.822V15.3789H72.2585V14.4436H72.2053C72.1077 14.6327 71.9703 14.81 71.793 14.9755C71.6187 15.1381 71.3985 15.2696 71.1325 15.37C70.8695 15.4676 70.5607 15.5163 70.2061 15.5163ZM70.6227 14.3372C70.9449 14.3372 71.2241 14.2737 71.4605 14.1466C71.697 14.0165 71.8787 13.8451 72.0058 13.6324C72.1358 13.4196 72.2008 13.1876 72.2008 12.9364V12.1341C72.1506 12.1754 72.0649 12.2139 71.9437 12.2493C71.8255 12.2848 71.6925 12.3158 71.5448 12.3424C71.397 12.369 71.2507 12.3927 71.1059 12.4133C70.9611 12.434 70.8355 12.4518 70.7291 12.4665C70.4898 12.499 70.2755 12.5522 70.0864 12.6261C69.8972 12.7 69.748 12.8034 69.6387 12.9364C69.5293 13.0664 69.4746 13.2349 69.4746 13.4418C69.4746 13.7373 69.5825 13.9604 69.7982 14.1111C70.014 14.2618 70.2888 14.3372 70.6227 14.3372ZM75.3841 15.3789V8.57007H76.9178V9.72704H76.9976C77.1395 9.33695 77.3744 9.03256 77.7024 8.81388C78.0305 8.59224 78.422 8.48142 78.8771 8.48142C79.3382 8.48142 79.7268 8.59371 80.043 8.81831C80.3621 9.03995 80.5867 9.34286 80.7168 9.72704H80.7877C80.9384 9.34877 81.1926 9.04734 81.5501 8.82274C81.9107 8.59519 82.3377 8.48142 82.8312 8.48142C83.4577 8.48142 83.969 8.67942 84.365 9.07541C84.761 9.47142 84.959 10.0492 84.959 10.8087V15.3789H83.3499V11.0569C83.3499 10.6343 83.2376 10.3255 83.013 10.1304C82.7884 9.93243 82.5135 9.83343 82.1885 9.83343C81.8013 9.83343 81.4984 9.95459 81.2797 10.1969C81.064 10.4363 80.9561 10.7481 80.9561 11.1323V15.3789H79.3825V10.9904C79.3825 10.6387 79.2761 10.358 79.0633 10.1482C78.8535 9.93834 78.5787 9.83343 78.2388 9.83343C78.0083 9.83343 77.7985 9.89253 77.6093 10.0107C77.4202 10.126 77.2695 10.29 77.1572 10.5028C77.0449 10.7126 76.9888 10.9579 76.9888 11.2386V15.3789H75.3841Z" fill="white"/>
<defs>
<linearGradient id="paint0_linear_189_945" x1="1.27943" y1="11.3716" x2="22.645" y2="11.3716" gradientUnits="userSpaceOnUse">
<stop stop-color="#2AABEE"/>
<stop offset="1" stop-color="#229ED9"/>
</linearGradient>
<clipPath id="clip0_189_945">
<rect width="23.9081" height="22.7575" fill="white"/>
</clipPath>
</defs>
</svg>
