<svg width="96" height="23" viewBox="0 0 96 23" fill="none" xmlns="http://www.w3.org/2000/svg">
<g clip-path="url(#clip0_189_943)">
<path d="M11.1447 0C5.05326 0 0.0949667 5.05853 0.0923826 11.2759C0.0917366 13.2633 0.60081 15.2033 1.56792 16.9132L0 22.7575L5.85887 21.1893C7.4733 22.0877 9.29059 22.561 11.1402 22.5617H11.1447C17.2355 22.5617 22.1938 17.5025 22.1964 11.2851C22.1977 8.27203 21.049 5.43888 18.9623 3.30776C16.8757 1.17597 14.1009 0.00131836 11.1447 0ZM11.1447 20.6573H11.1408C9.4928 20.6573 7.87578 20.2045 6.46549 19.3508L6.1302 19.1478L2.6539 20.0786L3.5816 16.6199L3.36324 16.2652C2.44394 14.7728 1.95812 13.0478 1.95877 11.2772C1.96071 6.10926 6.08175 1.90503 11.1486 1.90503C13.6022 1.90568 15.9085 2.88193 17.6425 4.6538C19.3771 6.42501 20.3313 8.78025 20.3306 11.2845C20.3287 16.4524 16.2077 20.6573 11.1447 20.6573ZM16.1831 13.6377C15.9073 13.4967 14.5493 12.8151 14.296 12.7208C14.0428 12.6266 13.8587 12.5798 13.6746 12.8619C13.4904 13.144 12.9613 13.7788 12.8005 13.9667C12.6396 14.1552 12.4781 14.1783 12.2023 14.0372C11.9264 13.8961 11.0362 13.5982 9.98184 12.6384C9.16074 11.8916 8.60644 10.9687 8.44558 10.6866C8.28472 10.4045 8.42814 10.2522 8.56703 10.1118C8.69107 9.98589 8.84289 9.78286 8.98114 9.61807C9.11939 9.45327 9.16526 9.33594 9.25699 9.14742C9.34873 8.95955 9.30286 8.79475 9.23374 8.65369C9.16461 8.51263 8.61226 7.12572 8.38227 6.56146C8.15809 6.01236 7.93069 6.08619 7.76078 6.07762C7.59992 6.06905 7.4158 6.06774 7.23168 6.06774C7.04756 6.06774 6.74845 6.13827 6.49521 6.4204C6.24196 6.70252 5.52874 7.38411 5.52874 8.77102C5.52874 10.1579 6.51846 11.498 6.65607 11.6859C6.79432 11.8738 8.60321 14.7201 11.3734 15.9402C12.0323 16.2303 12.5466 16.4037 12.9478 16.5335C13.6093 16.7477 14.2114 16.7174 14.6869 16.6449C15.2173 16.5638 16.3207 15.9633 16.5507 15.3048C16.7807 14.6469 16.7807 14.0827 16.7116 13.9647C16.6424 13.8474 16.4583 13.7768 16.1825 13.6358L16.1831 13.6377ZM35.7346 13.4657H35.7049L33.8728 5.92338H31.6646L29.8021 13.3734H29.7724L28.0753 5.92338H25.7172L28.5559 16.869H30.9443L32.7312 9.41834H32.7616L34.5789 16.869H36.922L39.8059 5.92338H37.4931L35.7353 13.4657H35.7346ZM46.9995 9.62532C46.7895 9.34451 46.5014 9.125 46.1364 8.96614C45.7707 8.8086 45.3024 8.7295 44.7319 8.7295C44.3314 8.7295 43.9211 8.83365 43.4999 9.04392C43.0794 9.25288 42.7344 9.58775 42.4637 10.0479H42.4185V5.92338H40.2859V16.8684H42.4185V12.7142C42.4185 11.9067 42.5483 11.3273 42.8093 10.974C43.0697 10.622 43.4902 10.4453 44.071 10.4453C44.5814 10.4453 44.9367 10.6062 45.1376 10.9285C45.3379 11.2502 45.438 11.738 45.438 12.3919V16.8684H47.5712V11.9937C47.5712 11.5033 47.5279 11.0564 47.4433 10.6523C47.358 10.2496 47.2107 9.90679 47.0001 9.62532H46.9995ZM55.7862 15.1057V10.9826C55.7862 10.5014 55.6815 10.1157 55.4703 9.82505C55.2603 9.53369 54.9903 9.30628 54.6601 9.1428C54.3294 8.97933 53.9637 8.86924 53.5632 8.81321C53.1626 8.75718 52.7673 8.72884 52.3771 8.72884C51.9468 8.72884 51.5185 8.77168 51.0934 8.85935C50.667 8.94637 50.2846 9.09204 49.9441 9.29639C49.6036 9.50074 49.3226 9.77166 49.1036 10.1085C48.8827 10.446 48.7573 10.8698 48.7276 11.3814H50.8602C50.9002 10.9522 51.0411 10.6451 51.2814 10.4612C51.5217 10.2772 51.8518 10.1856 52.2724 10.1856C52.4623 10.1856 52.64 10.1981 52.8054 10.2239C52.9701 10.2496 53.1155 10.2997 53.2408 10.3768C53.3661 10.4532 53.4663 10.5607 53.5412 10.6991C53.6161 10.8369 53.6536 11.0241 53.6536 11.2581C53.6633 11.4835 53.5981 11.6536 53.4585 11.7716C53.3177 11.8896 53.1278 11.9792 52.8874 12.0399C52.6471 12.1019 52.3719 12.148 52.0611 12.1777C51.7504 12.2093 51.4351 12.2508 51.1154 12.3009C50.7943 12.3523 50.4764 12.4209 50.1618 12.5079C49.8465 12.5943 49.5649 12.7254 49.32 12.8981C49.0745 13.0728 48.8743 13.3049 48.7186 13.5962C48.5635 13.8876 48.486 14.2587 48.486 14.7076C48.486 15.1163 48.5538 15.4689 48.6889 15.7649C48.8239 16.0622 49.0119 16.3068 49.2522 16.5012C49.4925 16.6957 49.7729 16.8387 50.0933 16.931C50.4131 17.0226 50.7594 17.0688 51.1296 17.0688C51.6102 17.0688 52.0812 16.9969 52.5411 16.8545C53.0018 16.7102 53.403 16.461 53.7434 16.1024C53.7531 16.2356 53.7705 16.3661 53.7957 16.4933C53.8209 16.6205 53.8532 16.7464 53.8933 16.8684H56.0562C55.9561 16.7056 55.8857 16.4603 55.8456 16.1327C55.8049 15.8058 55.7849 15.4643 55.7849 15.1057H55.7862ZM53.6536 13.8025C53.6536 13.9265 53.6413 14.0899 53.6161 14.2936C53.5916 14.4986 53.5238 14.6997 53.4133 14.8994C53.3028 15.0985 53.1323 15.2705 52.9023 15.4129C52.6723 15.5566 52.3467 15.6278 51.9255 15.6278C51.7556 15.6278 51.5902 15.6126 51.43 15.581C51.2698 15.5507 51.1296 15.4966 51.0094 15.4202C50.8892 15.3437 50.7943 15.2389 50.7239 15.1057C50.6541 14.9726 50.6186 14.8098 50.6186 14.616C50.6186 14.4116 50.6541 14.2422 50.7239 14.1097C50.7943 13.9772 50.8867 13.8671 51.0023 13.7801C51.1166 13.6931 51.2523 13.6246 51.4074 13.5731C51.5624 13.5224 51.72 13.4815 51.8809 13.4505C52.0508 13.4202 52.2214 13.3938 52.3913 13.3741C52.5625 13.3543 52.7246 13.3279 52.8797 13.2976C53.0354 13.2666 53.1801 13.2284 53.3157 13.1822C53.4508 13.1361 53.5632 13.0735 53.6536 12.9911V13.8032V13.8025ZM59.767 6.56739H57.6338V8.94307H56.3424V10.3992H57.6338V15.0754C57.6338 15.4742 57.6997 15.7959 57.8296 16.0411C57.9601 16.2863 58.1377 16.4762 58.3625 16.6087C58.588 16.7418 58.8484 16.8308 59.1442 16.8763C59.4388 16.9218 59.7528 16.9455 60.0829 16.9455C60.2942 16.9455 60.5087 16.9402 60.7296 16.931C60.9493 16.9204 61.1495 16.9007 61.3304 16.869V15.1829C61.2296 15.2033 61.125 15.2198 61.0145 15.229C60.9047 15.2395 60.7897 15.2448 60.6695 15.2448C60.3097 15.2448 60.0687 15.1829 59.9486 15.0602C59.829 14.9376 59.769 14.6924 59.769 14.3239V10.3992H61.3311V8.94307H59.769V6.56739H59.767ZM68.5828 13.3971C68.4426 13.1467 68.2572 12.937 68.0272 12.7683C67.7972 12.6002 67.5336 12.4644 67.239 12.3616C66.9431 12.2601 66.6402 12.1737 66.3301 12.1019C66.0297 12.03 65.7351 11.9634 65.4444 11.9021C65.1536 11.8408 64.8959 11.7716 64.6704 11.6958C64.4456 11.6187 64.2634 11.5198 64.1232 11.3965C63.9824 11.2739 63.9133 11.1164 63.9133 10.9213C63.9133 10.7578 63.952 10.6273 64.0328 10.5304C64.1129 10.4335 64.2111 10.3596 64.3261 10.3076C64.4417 10.2568 64.5683 10.2239 64.7085 10.208C64.8487 10.1929 64.9792 10.1856 65.0987 10.1856C65.4792 10.1856 65.81 10.2594 66.091 10.4078C66.3708 10.5561 66.5265 10.8395 66.5555 11.2581H68.5834C68.5434 10.7677 68.4206 10.3616 68.2158 10.0393C68.011 9.71761 67.7526 9.45987 67.4425 9.26541C67.1324 9.07095 66.7797 8.93318 66.383 8.85145C65.9877 8.76971 65.58 8.72884 65.1601 8.72884C64.7402 8.72884 64.328 8.76707 63.9288 8.84288C63.5276 8.92 63.1671 9.05315 62.8473 9.24234C62.5262 9.43152 62.2691 9.68926 62.0734 10.0162C61.8776 10.3432 61.7801 10.7624 61.7801 11.2733C61.7801 11.6207 61.8505 11.9153 61.9913 12.1552C62.1302 12.3958 62.3163 12.5943 62.5456 12.7531C62.7769 12.9113 63.0398 13.0399 63.3351 13.1361C63.6303 13.2343 63.9333 13.318 64.2434 13.3899C65.0051 13.5534 65.5988 13.7168 66.0238 13.881C66.4496 14.0445 66.6621 14.2897 66.6621 14.6166C66.6621 14.8111 66.6175 14.9706 66.5271 15.0985C66.4367 15.227 66.3242 15.3285 66.1892 15.405C66.0536 15.4821 65.903 15.5388 65.7383 15.5737C65.5729 15.61 65.4146 15.6278 65.2648 15.6278C65.0541 15.6278 64.8519 15.6021 64.6568 15.5513C64.4611 15.4999 64.2886 15.4208 64.1381 15.3134C63.9882 15.2059 63.8648 15.0682 63.7698 14.8994C63.6755 14.7307 63.6271 14.5296 63.6271 14.2936H61.5998C61.6205 14.8249 61.7374 15.2672 61.9532 15.6199C62.1677 15.9725 62.4429 16.256 62.7788 16.4709C63.1141 16.6851 63.4979 16.8387 63.9288 16.931C64.3584 17.0226 64.799 17.0688 65.2493 17.0688C65.6995 17.0688 66.1233 17.0253 66.5491 16.9389C66.9748 16.8519 67.3527 16.7009 67.6829 16.486C68.0143 16.2718 68.2804 15.9884 68.4865 15.6357C68.6913 15.2824 68.794 14.846 68.794 14.3246C68.794 13.9561 68.7243 13.6476 68.5841 13.3978L68.5828 13.3971ZM72.8182 5.92338L68.763 16.869H71.1359L71.9764 14.4314H75.9869L76.7971 16.869H79.2462L75.2363 5.92338H72.8175H72.8182ZM72.5933 12.6384L73.9901 8.62205H74.0198L75.3719 12.6384H72.5933ZM86.6213 10.0169C86.3312 9.62862 85.9656 9.31682 85.525 9.08216C85.0844 8.84683 84.5592 8.7295 83.9486 8.7295C83.4674 8.7295 83.0274 8.8264 82.6269 9.02019C82.225 9.21465 81.8956 9.52644 81.6359 9.95557H81.6055V8.94307H79.577V19.6442H81.7114V15.8882H81.7405C82.0009 16.2771 82.3342 16.5704 82.7406 16.7688C83.145 16.9679 83.5888 17.0681 84.0695 17.0681C84.6405 17.0681 85.1386 16.9547 85.5637 16.7306C85.9895 16.5058 86.3448 16.2039 86.6303 15.8256C86.9159 15.4472 87.1278 15.0134 87.2693 14.523C87.4081 14.0319 87.4792 13.5211 87.4792 12.9898C87.4792 12.4275 87.4081 11.8889 87.2693 11.3721C87.1278 10.8567 86.9133 10.4038 86.6226 10.0156L86.6213 10.0169ZM85.2549 13.8645C85.1942 14.1717 85.0915 14.4393 84.9468 14.6694C84.8014 14.8994 84.6115 15.0866 84.375 15.229C84.1405 15.372 83.8472 15.4445 83.4971 15.4445C83.1469 15.4445 82.8672 15.3727 82.6269 15.229C82.3865 15.0866 82.1934 14.8994 82.048 14.6694C81.9027 14.4393 81.798 14.1717 81.7328 13.8645C81.6675 13.558 81.6359 13.2462 81.6359 12.9304C81.6359 12.6147 81.6649 12.2858 81.725 11.9799C81.7857 11.6734 81.8878 11.4025 82.0338 11.1665C82.1779 10.9318 82.3691 10.7407 82.6049 10.5923C82.8401 10.444 83.1321 10.3689 83.4829 10.3689C83.8337 10.3689 84.1121 10.444 84.3466 10.5923C84.5818 10.74 84.7749 10.9338 84.9248 11.1744C85.0747 11.415 85.1819 11.6885 85.2478 11.9944C85.3137 12.3009 85.3447 12.6134 85.3447 12.9304C85.3447 13.2475 85.3157 13.5586 85.2556 13.8645H85.2549ZM95.7678 11.3735C95.6276 10.858 95.4125 10.4051 95.1218 10.0169C94.8311 9.62862 94.4667 9.31682 94.0261 9.08216C93.5849 8.84683 93.059 8.7295 92.4485 8.7295C91.9685 8.7295 91.5273 8.8264 91.1274 9.02019C90.7268 9.21465 90.396 9.52644 90.1357 9.95557H90.1066V8.94307H88.0787V19.6442H90.2113V15.8882H90.2416C90.502 16.2771 90.8354 16.5704 91.2404 16.7688C91.6455 16.9679 92.0893 17.0681 92.57 17.0681C93.1404 17.0681 93.6378 16.9547 94.0642 16.7306C94.4893 16.5058 94.8453 16.2039 95.1302 15.8256C95.4164 15.4472 95.6283 15.0134 95.7685 14.523C95.9093 14.0319 95.9791 13.5211 95.9791 12.9898C95.9791 12.4275 95.9093 11.8889 95.7685 11.3721L95.7678 11.3735ZM93.7548 13.8645C93.6953 14.1717 93.5926 14.4393 93.4473 14.6694C93.3013 14.8994 93.1113 15.0866 92.8762 15.229C92.641 15.372 92.3484 15.4445 91.9976 15.4445C91.6468 15.4445 91.3664 15.3727 91.1261 15.229C90.8851 15.0866 90.6932 14.8994 90.5472 14.6694C90.4025 14.4393 90.2972 14.1717 90.232 13.8645C90.1667 13.558 90.1344 13.2462 90.1344 12.9304C90.1344 12.6147 90.1648 12.2858 90.2249 11.9799C90.2849 11.6734 90.3876 11.4025 90.533 11.1665C90.6777 10.9318 90.8683 10.7407 91.1041 10.5923C91.3386 10.444 91.6319 10.3689 91.9827 10.3689C92.3335 10.3689 92.6106 10.444 92.8458 10.5923C93.0816 10.74 93.2741 10.9338 93.4247 11.1744C93.5752 11.415 93.6831 11.6885 93.7477 11.9944C93.8136 12.3009 93.8452 12.6134 93.8452 12.9304C93.8452 13.2475 93.8148 13.5586 93.7548 13.8645Z" fill="#25D366"/>
</g>
<defs>
<clipPath id="clip0_189_943">
<rect width="95.9784" height="22.7575" fill="white"/>
</clipPath>
</defs>
</svg>
