<svg preserveAspectRatio="none" width="1440" height="325" viewBox="0 0 1440 325" fill="none" xmlns="http://www.w3.org/2000/svg">
<path d="M1224.3 20C1224.3 8.95431 1233.25 0 1244.3 0H1524.3C1535.34 0 1544.3 8.95431 1544.3 20V304.8C1544.3 315.846 1535.34 324.8 1524.3 324.8H1244.3C1233.25 324.8 1224.3 315.846 1224.3 304.8V20Z" fill="#1D0808"/>
<path d="M1224.3 20C1224.3 8.95431 1233.25 0 1244.3 0H1524.3C1535.34 0 1544.3 8.95431 1544.3 20V304.8C1544.3 315.846 1535.34 324.8 1524.3 324.8H1244.3C1233.25 324.8 1224.3 315.846 1224.3 304.8V20Z" fill="url(#paint0_linear_278_362)"/>
<path d="M1224.3 20C1224.3 8.95431 1233.25 0 1244.3 0H1524.3C1535.34 0 1544.3 8.95431 1544.3 20V304.8C1544.3 315.846 1535.34 324.8 1524.3 324.8H1244.3C1233.25 324.8 1224.3 315.846 1224.3 304.8V20Z" fill="url(#paint1_linear_278_362)"/>
<path d="M892.295 20C892.295 8.95431 901.25 0 912.295 0H1192.3C1203.34 0 1212.3 8.95431 1212.3 20V304.8C1212.3 315.846 1203.34 324.8 1192.3 324.8H912.295C901.25 324.8 892.295 315.846 892.295 304.8V20Z" fill="#1D0808"/>
<path d="M892.295 20C892.295 8.95431 901.25 0 912.295 0H1192.3C1203.34 0 1212.3 8.95431 1212.3 20V304.8C1212.3 315.846 1203.34 324.8 1192.3 324.8H912.295C901.25 324.8 892.295 315.846 892.295 304.8V20Z" fill="url(#paint2_linear_278_362)"/>
<path d="M560.295 20C560.295 8.95431 569.25 0 580.295 0H860.295C871.341 0 880.295 8.95431 880.295 20V304.8C880.295 315.846 871.341 324.8 860.295 324.8H580.295C569.25 324.8 560.295 315.846 560.295 304.8V20Z" fill="#1D0808"/>
<path d="M560.295 20C560.295 8.95431 569.25 0 580.295 0H860.295C871.341 0 880.295 8.95431 880.295 20V304.8C880.295 315.846 871.341 324.8 860.295 324.8H580.295C569.25 324.8 560.295 315.846 560.295 304.8V20Z" fill="url(#paint3_linear_278_362)"/>
<path d="M228.295 20C228.295 8.95431 237.25 0 248.295 0H528.295C539.341 0 548.295 8.95431 548.295 20V304.8C548.295 315.846 539.341 324.8 528.295 324.8H248.295C237.25 324.8 228.295 315.846 228.295 304.8V20Z" fill="#1D0808"/>
<path d="M228.295 20C228.295 8.95431 237.25 0 248.295 0H528.295C539.341 0 548.295 8.95431 548.295 20V304.8C548.295 315.846 539.341 324.8 528.295 324.8H248.295C237.25 324.8 228.295 315.846 228.295 304.8V20Z" fill="url(#paint4_linear_278_362)"/>
<path d="M-103.705 20C-103.705 8.95431 -94.7503 0 -83.7046 0H196.295C207.341 0 216.295 8.95431 216.295 20V304.8C216.295 315.846 207.341 324.8 196.295 324.8H-83.7046C-94.7503 324.8 -103.705 315.846 -103.705 304.8V20Z" fill="#1D0808"/>
<path d="M-103.705 20C-103.705 8.95431 -94.7503 0 -83.7046 0H196.295C207.341 0 216.295 8.95431 216.295 20V304.8C216.295 315.846 207.341 324.8 196.295 324.8H-83.7046C-94.7503 324.8 -103.705 315.846 -103.705 304.8V20Z" fill="url(#paint5_linear_278_362)"/>
<path d="M-103.705 20C-103.705 8.95431 -94.7503 0 -83.7046 0H196.295C207.341 0 216.295 8.95431 216.295 20V304.8C216.295 315.846 207.341 324.8 196.295 324.8H-83.7046C-94.7503 324.8 -103.705 315.846 -103.705 304.8V20Z" fill="url(#paint6_linear_278_362)"/>
<defs>
<linearGradient id="paint0_linear_278_362" x1="1384.3" y1="0" x2="1384.3" y2="324.8" gradientUnits="userSpaceOnUse">
<stop offset="0.5" stop-color="#060606"/>
<stop offset="1" stop-color="#060606" stop-opacity="0.3"/>
</linearGradient>
<linearGradient id="paint1_linear_278_362" x1="1544.3" y1="162.4" x2="1224.3" y2="162.4" gradientUnits="userSpaceOnUse">
<stop stop-color="#060606"/>
<stop offset="1" stop-color="#060606" stop-opacity="0"/>
</linearGradient>
<linearGradient id="paint2_linear_278_362" x1="1052.3" y1="0" x2="1052.3" y2="324.8" gradientUnits="userSpaceOnUse">
<stop offset="0.5" stop-color="#060606"/>
<stop offset="1" stop-color="#060606" stop-opacity="0.3"/>
</linearGradient>
<linearGradient id="paint3_linear_278_362" x1="720.295" y1="0" x2="720.295" y2="324.8" gradientUnits="userSpaceOnUse">
<stop offset="0.5" stop-color="#060606"/>
<stop offset="1" stop-color="#060606" stop-opacity="0.3"/>
</linearGradient>
<linearGradient id="paint4_linear_278_362" x1="388.295" y1="0" x2="388.295" y2="324.8" gradientUnits="userSpaceOnUse">
<stop offset="0.5" stop-color="#060606"/>
<stop offset="1" stop-color="#060606" stop-opacity="0.3"/>
</linearGradient>
<linearGradient id="paint5_linear_278_362" x1="56.2954" y1="0" x2="56.2954" y2="324.8" gradientUnits="userSpaceOnUse">
<stop offset="0.5" stop-color="#060606"/>
<stop offset="1" stop-color="#060606" stop-opacity="0.3"/>
</linearGradient>
<linearGradient id="paint6_linear_278_362" x1="-103.705" y1="162.4" x2="216.295" y2="162.4" gradientUnits="userSpaceOnUse">
<stop stop-color="#060606"/>
<stop offset="1" stop-color="#060606" stop-opacity="0"/>
</linearGradient>
</defs>
</svg>
